<svg width="65" height="62" viewBox="0 0 65 62" fill="none" xmlns="http://www.w3.org/2000/svg">
<g clip-path="url(#clip0_136_1066)">
<path fill-rule="evenodd" clip-rule="evenodd" d="M24.5704 44.3513C24.5704 44.2876 24.5704 44.2062 24.5704 44.1425C24.254 44.0965 23.9517 44.0469 23.6495 43.9974C23.525 43.9337 23.173 43.9514 23.173 43.9514C23.1019 43.8876 23.1552 43.7567 23.1552 43.7567C23.0308 43.6292 22.6788 43.8522 22.6077 43.7885C22.5543 43.7248 22.6077 43.5797 22.6077 43.5797C22.5365 43.5797 22.4832 43.5797 22.3623 43.4523C22.6645 43.4346 22.9632 43.4204 23.3152 43.4062C23.9339 43.4381 24.5882 43.47 25.2602 43.5655C25.4558 43.5478 25.6834 43.5337 25.9323 43.5832C26.1812 43.5832 26.4799 43.5514 26.7821 43.5337C26.8532 43.6788 26.9563 43.6611 27.1519 43.7248C27.1519 43.7248 27.2586 43.6434 27.3297 43.7071L27.0986 43.9974C26.3732 44.0469 25.6514 44.0788 24.9224 44.1248C24.9224 44.1248 25.0113 44.592 24.7624 44.3336C24.6913 44.2699 24.798 44.1248 24.7447 44.1248C24.6238 44.1425 24.6415 44.2699 24.5704 44.3513Z" fill="white"/>
<path fill-rule="evenodd" clip-rule="evenodd" d="M48.2055 35.1165C48.3299 35.0351 48.5077 34.9537 48.6819 34.9395C48.9308 34.7944 49.162 34.6493 49.3895 34.5537C49.4606 34.5537 49.514 34.49 49.5815 34.5537C49.6349 34.5537 49.5815 34.7448 49.7593 34.7448C49.7593 34.6811 49.7949 34.1997 49.9193 34.3272C49.9193 34.3272 49.866 34.4581 49.9371 34.536C50.0616 34.6493 50.1647 34.3095 50.2216 34.228C50.3994 34.0192 50.5771 33.8741 50.7514 33.729C50.9256 33.6476 51.1034 33.6334 51.3523 33.6157C51.4056 33.6157 51.4767 33.6157 51.5301 33.6157C51.5301 33.5343 51.5301 33.4706 51.5834 33.4706C51.6901 33.2617 51.8323 33.4564 51.8323 33.6617C51.779 33.6617 51.779 33.7254 51.779 33.8104C51.6012 33.952 51.4234 34.0971 51.267 34.2422C50.7194 34.2741 51.3203 34.1608 51.0181 34.451C50.9149 34.5325 50.8936 34.1927 50.7869 34.4652C50.7158 34.4794 50.7869 34.6103 50.7869 34.674C50.6803 34.7555 50.4171 34.5608 50.6269 34.9643C50.7336 34.8829 50.9292 34.8015 51.1034 34.7236L51.459 34.7094C51.459 34.6457 51.459 34.5643 51.5088 34.5643C51.6865 34.2918 51.7576 34.6139 51.8821 34.8227C51.7754 34.9678 51.651 35.113 51.619 35.3041L51.6368 35.7218C51.6901 35.7218 51.7399 35.7041 51.8643 35.7713C52.0563 36.0262 51.5088 35.9943 51.459 36.1394C51.3523 36.2209 51.4234 36.3483 51.299 36.3483C50.9256 36.3801 51.3523 36.1394 51.0501 36.366C50.8723 36.4474 50.7656 36.589 50.6411 36.7341C50.3425 36.7518 50.4491 36.6031 50.3745 36.412C50.5523 36.2527 50.73 36.1076 50.9754 36.0262C50.602 35.9802 50.2322 35.9306 49.9336 35.9448C49.8269 36.0899 49.706 36.235 49.5993 36.3801C49.1228 36.412 49.6527 36.3164 49.4251 36.6031L49.0695 36.6208C48.9984 36.6208 49.0695 36.7518 49.0695 36.8297C48.8419 37.0385 48.8917 36.6987 48.8206 36.6987C48.6997 36.635 48.6464 36.8438 48.6606 36.9075C48.5397 36.989 48.4153 37.0704 48.3086 37.2155C48.1308 37.2155 48.0597 37.2969 47.953 37.2969C47.8286 37.3748 47.7041 37.442 47.601 37.5872C47.5299 37.6013 47.4765 37.6013 47.4232 37.6686C47.2454 37.75 47.121 37.8951 47.0178 38.0402C46.7192 38.1181 46.5414 38.2668 46.4347 38.6207C46.8614 38.5889 47.3379 38.5712 47.8321 38.5393C47.6579 38.6844 47.5299 38.8296 47.4268 38.9747C47.249 39.0561 47.0712 39.1375 46.8792 39.2012C46.7192 39.3605 46.5414 39.5056 46.3636 39.6507C46.1182 39.6684 45.9938 39.5375 45.9405 39.8136C45.7093 39.8277 45.464 39.8454 45.2862 39.9268C44.9306 40.072 44.6319 40.2312 44.3297 40.3764C44.2764 40.3941 44.223 40.4578 44.223 40.5215C43.9208 40.5392 43.6221 40.5711 43.3768 40.5711C43.1456 40.6525 42.9003 40.8117 42.7403 40.9569C42.4914 40.971 42.3172 40.971 42.1394 41.0524C42.246 40.7799 42.406 40.5073 42.5803 40.2171C42.7581 40.1357 42.9359 40.0543 43.1101 39.9764C43.1634 39.9127 43.2168 39.8313 43.2879 39.7676C43.4657 39.6861 43.6434 39.672 43.8177 39.672C43.871 39.3994 43.9955 39.5269 44.2408 39.5092C44.4719 39.3463 44.6995 39.2048 44.9484 39.0596C45.1262 38.9782 45.304 38.9641 45.4782 38.9464C45.7093 38.7375 46.008 38.6561 45.848 39.1375C45.6204 39.2189 45.3715 39.2968 45.1404 39.3782C44.9626 39.4596 44.7848 39.6047 44.6639 39.7463C44.5395 39.7463 44.4364 39.7605 44.3084 39.7605C43.7786 40.0012 43.231 40.2454 42.7012 40.4684C42.4523 40.4224 42.2247 40.3728 41.9758 40.3905C41.798 40.4542 41.6913 40.6808 41.5669 40.6135C41.3891 40.6949 41.1971 40.7728 41.0193 40.8365C40.966 40.9179 40.9126 40.9816 40.8593 41.0631C40.6104 41.0808 40.4326 41.0808 40.2584 41.0949C40.2584 41.3675 40.0806 41.3038 39.9028 41.3214C39.725 41.4029 39.533 41.4807 39.3552 41.5621C39.0565 41.3675 39.0565 41.4347 38.9463 41.7887C38.893 41.7887 38.9997 41.6436 38.9997 41.6436L38.7685 41.8028C38.3987 41.8842 38.4521 41.6117 38.3454 42.0294C38.0432 42.0435 37.7445 42.0612 37.5134 42.0789C37.2147 42.0931 36.9124 42.178 36.6671 42.2701C36.4537 42.6877 36.1871 42.2205 35.9595 42.447C35.5897 42.4612 35.2875 42.4789 34.9852 42.4966C34.811 42.578 34.6332 42.6594 34.4554 42.7373C34.2065 42.6913 34.0323 42.624 33.8367 42.6417C33.5345 42.6594 33.2322 42.7373 33.0047 42.8187C32.0304 42.9497 31.1308 43.0629 30.2276 43.1904C29.9432 43.2045 29.6445 43.2222 29.3423 43.2364C28.7947 43.2045 28.2471 43.1727 27.7137 43.1408C27.5715 42.932 27.5217 42.9497 27.4471 42.801C26.9528 42.7054 26.5261 42.6559 26.103 42.6099C25.6798 42.578 25.2532 42.5285 24.83 42.4824C24.3358 42.3869 23.8593 42.3373 23.4362 42.3055C23.1162 42.2417 22.8175 42.2736 22.5864 42.2736C22.5152 42.2099 22.4619 42.1426 22.3943 42.0825C22.021 42.0329 21.669 42.0648 21.2992 42.0825C21.0503 41.9692 20.8725 41.9055 20.6805 41.8418C20.4849 41.5197 20.6805 41.8418 20.4494 41.7285C20.2005 41.6011 20.4849 41.5197 20.4849 41.5197C20.4849 41.456 20.3605 41.3922 20.3605 41.456C20.2538 41.4737 20.2538 41.6011 20.2538 41.7462C20.076 41.6825 19.884 41.6188 19.7595 41.5692C19.6529 41.5692 19.5284 41.5869 19.4573 41.5055L19.3328 41.2471C19.1373 41.1197 19.0128 41.1339 18.9631 41.3427C18.7142 41.2153 18.4688 41.1657 18.291 41.102L18.1488 40.8436C18.0955 40.8436 18.0955 40.9073 18.1132 40.9746L17.7434 41.0064C17.6723 40.9427 17.7257 40.7976 17.7257 40.7976C17.6012 40.6702 17.4981 40.7516 17.427 40.7516C17.2492 40.6879 17.0572 40.6383 16.8794 40.5746C16.8083 40.5109 16.7549 40.4436 16.6838 40.3799C16.5096 40.3339 16.314 40.2666 16.1362 40.2029C15.9407 40.0083 15.7664 39.895 15.6242 39.7676C15.4464 39.7038 15.2686 39.6543 15.0766 39.5906C15.0588 39.1871 15.0091 39.3994 14.8313 39.3994C14.5859 39.4136 14.7602 39.2685 14.6357 39.2083C14.5824 39.1446 14.4579 39.226 14.4579 39.226C14.3868 39.1623 14.4402 39.0172 14.4402 39.0172C14.3193 38.826 14.209 39.0349 14.1415 38.9676C13.8926 38.7092 14.4402 38.7411 13.9459 38.7729C13.7681 38.5818 13.6294 38.3871 13.505 38.2597C13.7539 38.2455 13.8037 38.2455 13.7859 37.9694C13.6081 37.7783 13.4125 37.5836 13.2739 37.3748C12.833 36.7943 12.3707 36.2032 12.0009 35.6864L11.6311 35.7005C11.5067 35.651 11.3822 35.4421 11.3111 35.4421C11.1689 34.7838 11.0124 34.1042 10.8524 33.4316C10.8346 32.9502 10.8169 32.483 10.7991 32.0653C10.9591 31.7928 10.888 31.3893 10.9946 31.0353C10.9769 30.8265 11.1013 30.7628 11.1546 30.6176C11.2613 30.1362 11.3502 29.715 11.5813 29.2974C11.8445 28.6071 12.3743 28.1541 12.7654 27.5948C12.7654 27.5311 12.7654 27.4638 12.8187 27.4497C13.0463 27.1594 13.2774 26.9541 13.5085 26.7276C13.6863 26.5825 13.8606 26.4373 14.0384 26.2922C14.337 26.2745 14.0384 26.1471 14.3228 26.002C14.4437 25.8568 14.5504 25.7117 14.7282 25.6339C15.1015 25.6162 14.6748 25.4392 15.0802 25.4073C15.2046 25.1985 15.3113 24.9896 15.4891 24.8445C15.6669 24.6994 15.8411 24.5543 16.0722 24.395C16.25 24.4587 16.442 24.5897 16.6909 24.6994C16.8687 24.4906 17.0963 24.2676 17.3274 24.1189C17.3985 24.2499 17.9817 23.6694 17.9817 23.6694C18.2661 23.4464 18.5826 23.7012 18.9382 23.5419C19.3435 23.3154 19.7702 23.0924 20.2467 22.9296C20.4956 23.0428 20.3 22.7845 20.4778 22.7066C20.652 22.5615 20.5987 22.7703 20.78 22.7561C21.0254 22.7384 20.78 22.6287 20.9578 22.5473C20.9578 22.4836 21.0787 22.5331 21.1356 22.5331C21.3134 22.4517 21.4876 22.3739 21.6654 22.3066C22.0352 22.2748 21.5943 22.0978 22.0174 22.0801C22.5472 21.8394 23.0806 21.5987 23.6246 21.3545C23.8558 21.3545 23.9269 21.4854 23.9091 21.2093C24.1544 21.0642 24.3856 20.9686 24.6842 20.8872C25.1607 20.8554 25.6585 20.8377 26.1883 20.8058C26.5403 20.6465 26.9137 20.5474 27.319 20.4695C27.8666 20.3563 28.4142 20.2607 28.944 20.2289C30.377 20.1474 31.8953 20.0519 33.3994 19.9705C33.4705 20.0342 33.5238 20.0979 33.5949 20.2289C34.1425 20.197 34.6723 20.1651 35.2199 20.1333C35.5933 20.1828 36.0164 20.2147 36.4395 20.328C36.5106 20.4731 36.6315 20.6005 36.6173 20.328C36.8129 20.374 36.9907 20.4412 37.1649 20.4872C37.3569 20.4872 37.6591 20.3917 37.6769 20.7421C37.8547 20.7279 38.0858 20.7102 38.3312 20.7598C38.4734 21.0323 38.6334 20.6784 38.8788 20.9368C39.021 21.0642 38.8254 21.0819 39.0743 21.1315C39.1454 21.1315 39.2521 20.9863 39.3766 21.05L39.5188 21.3084C39.6432 21.3084 39.6788 21.0359 39.8708 21.358C40.0664 21.489 40.2584 21.6801 40.5073 21.8748L41.2504 22.2287L41.7625 22.8871C42.15 23.2729 42.0078 22.9367 42.3278 23.4676C42.5412 23.7897 42.7367 24.2569 42.9323 24.6569C42.879 24.6569 42.879 24.7206 42.879 24.802C42.9501 25.0604 43.0923 25.464 43.1101 25.8002C43.0568 25.9453 43.0034 26.0905 43.0212 26.2816C42.9679 26.4267 42.9679 26.6356 42.9856 26.8444C42.879 27.1205 42.6301 27.3293 42.5981 27.616C42.5447 27.8249 42.4914 28.0196 42.4381 28.2284C42.3847 28.2426 42.2603 28.1788 42.2603 28.2426C42.1892 28.2426 42.2603 28.3735 42.2603 28.4514C42.2105 28.4514 42.0825 28.3877 42.0825 28.4514C41.958 28.4691 41.7802 28.6142 41.9047 28.6779C41.9047 28.6779 42.0256 28.5965 42.1003 28.5965C41.9225 28.8054 41.7482 29.0319 41.5882 29.3044C41.2184 29.3221 41.4673 29.5133 41.2362 29.7398C41.1829 29.7398 41.0584 29.6761 41.0584 29.7398C40.8273 30.0301 41.3784 29.931 40.8842 29.9628C40.7775 30.1079 40.6531 30.2531 40.5464 30.3805C40.1233 30.4123 40.5464 30.5893 40.1908 30.6035C40.0664 30.7486 39.9597 30.8937 39.8388 31.0389C39.661 31.1167 39.4832 31.2017 39.309 31.2795C39.0779 31.4247 38.8503 31.584 38.6725 31.7928C38.4272 31.8742 38.2672 32.0193 38.0894 32.1645C37.9116 32.1822 37.716 32.26 37.6094 32.3237C37.5916 32.1963 37.5916 32.1326 37.5916 32.0653C37.4138 32.2105 37.2573 32.4193 37.1329 32.6281C36.7275 32.7237 36.3044 32.8865 35.8777 33.0458C35.6999 33.1272 35.5257 33.2086 35.3479 33.2865C35.1168 33.2865 34.9781 33.1555 34.939 33.4458C34.5159 33.4635 34.0892 33.4953 33.7194 33.5095C32.642 33.5732 31.561 33.6405 30.4659 33.7042C30.1316 33.7183 29.8294 33.736 29.5307 33.7679C29.3351 33.7042 29.1574 33.6405 28.9618 33.6546C28.9618 33.3184 28.784 33.4635 28.592 33.4777C28.4675 33.3467 28.3431 33.2193 28.2222 33.0918C28.0978 33.0918 27.9769 33.1095 27.9235 33.1732C27.8702 33.3821 27.888 33.6546 27.9057 33.9307C27.3582 33.9626 26.8639 33.9944 26.3874 34.0121C26.3163 33.8847 26.263 33.821 26.263 33.7537C26.0674 33.7537 25.8399 33.7679 25.7154 33.7856C25.2923 33.6723 24.9723 33.2865 24.7802 33.014C24.638 32.8865 24.5136 32.7556 24.5136 32.6919C24.318 32.2883 24.3536 31.8884 24.2113 31.5486C24.158 31.4211 24.0158 31.2902 24.0158 31.1486C23.8735 30.5539 24.0869 30.1363 24.2469 29.6372C24.1935 29.6513 24.0691 29.5876 24.0691 29.6513C23.8913 29.7327 23.9624 30.0053 23.8202 29.7327C23.9269 29.3151 24.0869 28.7664 24.3144 28.4797C24.5278 28.062 24.8798 27.8355 25.3065 27.7399C25.3598 27.5311 25.5376 27.4497 25.7296 27.5806C25.7296 27.5806 25.783 27.6444 25.783 27.7081C25.5696 27.9983 25.591 27.386 25.623 27.9311C25.4452 28.2072 25.2887 28.4939 25.1109 28.77C25.1785 28.77 25.2354 28.77 25.3563 28.7523C25.4629 28.6248 25.5874 28.4797 25.7652 28.3983C25.943 28.3169 26.1208 28.2355 26.295 28.1576C26.8248 27.7895 27.3368 27.0816 28.0622 27.032C28.24 26.9506 28.4853 27.0816 28.7164 27.0639C28.7342 27.3364 28.8587 27.386 28.6276 27.4001C28.432 27.4815 28.2578 27.5594 28.08 27.6408C27.9022 27.7859 27.7422 27.9275 27.5679 28.0762C27.2657 28.108 27.1946 27.9629 27.2124 28.2992C27.0346 28.3806 26.8568 28.462 26.6826 28.5399C26.5581 28.685 26.455 28.8301 26.327 28.9753C26.2737 28.9753 26.1528 28.9115 26.1528 28.9753C25.975 29.0567 26.0994 29.1841 26.2239 29.1841L26.455 29.039C27.1626 28.7169 27.888 28.3948 28.592 28.0903C28.8231 28.0089 29.072 27.9275 29.2996 27.8497C29.8472 27.8178 30.4303 27.7718 31.0312 27.7364C31.049 28.0762 31.1024 28.0125 31.4188 27.9948C31.5966 27.9134 31.7744 27.8355 31.9486 27.7541C32.1797 27.7364 32.4251 27.7222 32.674 27.7859C32.6384 27.2373 32.7451 27.9134 32.9051 27.6231C33.0829 27.5417 33.2571 27.4638 33.506 27.4638C33.506 27.3824 33.5594 27.3187 33.6127 27.3187C33.4349 27.124 33.2394 26.9966 33.1185 26.8692C32.8696 26.8869 32.642 26.901 32.3931 26.9187L32.5851 27.1134C32.5851 27.1134 32.5318 27.2408 32.5851 27.3046C32.7095 27.432 33.1149 27.0001 33.2038 27.4001C33.2038 27.4815 33.2038 27.609 33.2216 27.7541C33.4527 27.7364 33.7016 27.7222 34.0038 27.7045C33.7194 27.9948 33.4918 28.285 33.2607 28.6355C33.0829 28.6355 32.9087 28.7169 32.7309 28.7983C32.5531 29.1522 32.4109 28.8124 32.2366 28.8301L32.0055 28.9753C31.9522 28.9753 31.8099 28.9257 31.8277 28.9894C31.7566 28.9894 31.8277 29.1204 31.8277 29.1841C31.2801 29.1522 30.729 29.1204 30.2561 29.1522C29.9716 29.0248 29.7263 28.9115 29.4774 28.8655C29.3529 28.8655 29.2996 28.9292 29.2463 29.0106C28.9974 29.0248 28.8231 29.0248 28.6276 29.0425L28.5209 29.3151C28.3964 29.3292 28.272 29.2018 28.2186 29.269C27.92 29.2832 28.1831 29.623 27.9342 29.492C27.6853 29.6372 27.4577 29.7964 27.2799 30.0088C27.1021 30.0902 26.9279 30.1716 26.7501 30.2495C26.7679 30.6495 26.5723 30.1858 26.5901 30.6672C26.7679 30.7167 27.0133 30.7805 27.2622 30.8902C27.5111 30.8725 27.7386 30.8725 27.9875 30.922C28.784 30.8725 29.5627 30.8902 30.3379 30.922C30.7432 30.7628 31.1699 30.6637 31.593 30.5681C31.8917 30.4867 32.1762 30.3911 32.546 30.3097C32.7238 30.2283 32.898 30.2141 33.1469 30.1964C33.2536 30.1327 33.4278 30.0513 33.6234 30.0336C33.6056 29.6973 33.6767 29.8248 33.9789 29.8071C34.1567 29.6619 34.3843 29.5841 34.6332 29.5027C35.0421 29.3434 35.4652 29.1806 35.8706 29.0213C36.0484 28.9399 36.2262 28.862 36.4715 28.8443C36.7702 28.9576 36.5782 28.6992 36.7026 28.6355C36.7026 28.554 36.756 28.6213 36.8271 28.685C36.8271 28.685 36.9515 28.685 37.0049 28.685C37.1293 28.5399 37.236 28.4585 37.4102 28.3771C37.4814 28.3771 37.6022 28.5045 37.7303 28.4231C37.7125 28.3594 37.6591 28.2319 37.7125 28.2319L38.0858 28.2001C38.3134 27.924 37.7658 28.0231 38.2423 27.9912C38.4201 27.8461 38.5979 27.701 38.8432 27.6196C39.1774 27.2515 39.7784 27.0072 39.9206 26.3984C39.9206 26.1896 39.9028 25.9807 39.9561 25.8498C39.5152 25.464 39.1454 25.0781 38.7543 24.756C38.2067 24.5153 37.7125 24.2746 37.2147 24.0977C36.6671 24.1295 36.1373 24.1614 35.5897 24.1932C35.2163 24.08 34.9177 23.9525 34.6154 23.903C34.3665 23.9171 34.1212 23.9348 33.9434 23.949C34.2456 24.0623 34.5621 24.1755 34.8608 24.3667C34.4554 24.3985 34.0323 24.4162 33.6589 24.4304C33.1647 24.3348 32.7415 24.2215 32.3149 24.1083C31.5362 24.1578 30.8108 24.1897 30.1032 24.2392C29.6089 24.2711 29.1325 24.3667 28.6524 24.4622C28.2293 24.5578 27.8773 24.6392 27.5217 24.7383C27.1519 24.8197 26.7963 24.979 26.5154 25.1418C26.0888 25.1595 25.719 25.1879 25.3669 25.2056C25.118 25.287 24.8905 25.3648 24.6416 25.4463C24.0584 25.6232 23.5108 25.8639 22.981 26.0869C22.8033 26.1683 22.6824 26.2497 22.5757 26.3949C22.2734 26.54 21.9925 26.6993 21.6903 26.8444C21.3881 27.0072 21.1072 27.1665 20.8049 27.3116C20.7338 27.3116 20.7516 27.4568 20.7516 27.4568C20.6805 27.4568 20.6805 27.3258 20.6805 27.3258C20.3605 27.1347 20.4494 27.4709 20.4494 27.6798C20.2716 27.7435 20.0973 27.8249 19.9195 27.9063C19.8484 27.8426 19.7951 27.7789 19.7951 27.8567C19.5675 27.9346 19.8662 27.9842 19.6884 28.0656C19.5675 28.0656 19.4395 28.0019 19.3897 28.147C19.3186 28.147 19.3364 28.2921 19.3364 28.3558C19.2653 28.3558 19.212 28.2249 19.212 28.2921C19.0342 28.3063 18.8599 28.6638 18.7533 28.7275C18.6821 28.7275 18.6822 28.6001 18.6822 28.6001C18.5044 28.5363 18.5044 28.8089 18.5044 28.8903C18.3301 28.954 18.2235 29.0354 18.099 29.1806C17.9212 29.3257 17.7434 29.4708 17.587 29.6159C16.7727 30.3557 17.6937 29.4071 17.0572 30.2601C16.5452 30.8406 15.8376 31.3539 15.7664 32.1892C15.3966 32.2069 15.7131 32.2529 15.4678 32.4795C15.3611 32.752 15.2722 33.1732 15.3433 33.5095C15.45 34.6528 16.5807 35.474 17.395 36.1182C17.5372 36.3766 17.6439 36.0368 17.6581 36.4403C17.8359 36.504 18.0279 36.5536 18.2768 36.6173C18.4546 36.7306 18.6466 36.858 18.8955 37.0527C18.9666 37.2473 19.1444 37.0385 19.2653 37.2296C19.2653 37.2296 19.212 37.3748 19.2653 37.4385C19.2653 37.4385 19.3897 37.4208 19.4609 37.4208C19.6386 37.4845 19.8342 37.5341 20.0796 37.6615C20.1329 37.7889 20.2573 37.7889 20.4529 37.8385C20.4529 37.8385 20.5596 37.7747 20.6307 37.8385C20.6307 37.8385 20.5774 37.9659 20.6307 38.0296L21.0005 38.0119C21.3738 38.1252 21.7259 38.2384 22.1668 38.4154C22.1668 38.4933 22.309 38.7517 22.3623 38.8189C22.6077 38.9464 22.8921 38.511 22.9277 39.0596C25.0327 38.9322 27.2053 38.8012 29.3814 38.6738C29.3636 38.3977 29.3458 38.1252 29.3992 37.8526C29.8223 37.8349 30.2312 37.8031 30.7077 37.7712C32.8802 37.6438 35.1097 37.5128 37.3533 37.3854C37.6378 37.2261 37.9365 37.1447 38.2387 37.0633C38.4876 36.9819 38.7152 36.9677 38.9641 36.95C39.0708 36.5961 39.3872 36.9182 39.565 36.773C39.7961 36.4828 39.2486 36.5961 39.725 36.5642C39.9206 36.4828 40.0984 36.4014 40.2726 36.3235C40.7491 36.2279 41.2291 36.1324 41.7056 36.0333C41.9545 36.0191 42.182 36.0014 42.4843 35.9872C42.591 35.651 42.9074 35.9695 43.0852 35.8244C43.0852 35.7465 43.0141 35.6156 43.0852 35.6156C43.135 35.4705 43.5083 35.6651 43.615 35.5837C43.615 35.52 43.5439 35.389 43.615 35.3749C43.6683 35.2439 44.0381 35.4244 44.1626 35.343C44.1448 35.2793 44.0915 35.1519 44.1448 35.1519L44.5182 35.12C44.8702 34.9749 45.2258 34.8121 45.5778 34.6528C45.8231 34.6351 46.0542 34.6209 46.3031 34.6033C46.4809 34.4581 46.6552 34.313 46.8863 34.1714C46.993 33.8175 47.1352 34.1537 47.2916 34.0086C47.2916 33.9272 47.2383 33.7998 47.2916 33.7998L47.6472 33.7856C47.8748 33.4953 47.345 33.5909 47.8214 33.5591C47.9957 33.4139 48.2268 33.3361 48.4757 33.2547C48.2979 33.3998 48.1912 33.6086 48.0704 33.8175C48.0348 34.0263 47.9815 34.2351 47.9281 34.444C47.7539 34.5254 47.6294 34.6705 47.5228 34.8121C47.5405 35.2156 47.3272 34.7484 47.3628 35.2298C47.6045 35.1484 47.9068 35.1307 48.2055 35.1165Z" fill="white"/>
<path fill-rule="evenodd" clip-rule="evenodd" d="M42.5303 40.6348C42.0005 40.7303 42.0894 41.3391 41.8228 41.0666L41.9437 40.794C42.125 40.7162 42.2992 40.6348 42.5303 40.6348Z" fill="white"/>
<path fill-rule="evenodd" clip-rule="evenodd" d="M48.9841 37.4493C49.1619 37.3041 49.0375 37.2404 49.3397 37.2227C49.5175 37.0776 49.7451 36.9325 49.994 36.8369C49.7486 36.9325 49.5175 37.0139 49.2721 37.0953C49.1619 37.159 49.0375 37.3041 48.9841 37.4493Z" fill="white"/>
<path fill-rule="evenodd" clip-rule="evenodd" d="M29.7154 35.3076C30.1386 35.2935 30.5475 35.2581 30.9706 35.2439C31.2017 35.0846 31.4471 35.0032 31.6782 34.9218C31.8524 34.8404 32.048 34.7625 32.2791 34.7448C32.2791 34.6174 32.2791 34.5537 32.2613 34.49C32.0302 34.49 31.7849 34.5077 31.6071 34.5856C31.4471 34.8758 31.6071 34.3944 31.376 34.667C30.5795 34.7165 29.8186 34.7625 29.0967 34.8121C29.1145 35.2156 29.1501 34.8793 28.919 35.0209C28.8656 35.0209 28.7945 35.1023 28.8656 35.1661C28.9367 35.2298 29.2887 35.0068 29.4132 35.1342C29.4132 35.1342 29.3599 35.2616 29.4132 35.3289C29.4843 35.3891 29.6088 35.3253 29.7154 35.3076Z" fill="white"/>
<path fill-rule="evenodd" clip-rule="evenodd" d="M52.8206 32.6529C52.8206 32.5892 52.8029 32.5255 52.874 32.5078C53.0518 32.3626 53.226 32.2848 53.4571 32.2034C53.5816 32.0582 53.6882 31.9131 53.8625 31.8352C54.0403 31.768 54.218 31.6901 54.3923 31.6087C54.6198 31.3185 54.9221 31.0317 55.203 30.8052C55.3808 30.6601 55.5586 30.515 55.7363 30.3734C55.9106 30.2283 56.0884 30.0831 56.2661 29.9238C56.3693 29.715 56.5471 29.5062 56.7071 29.2973C56.7782 29.2796 57.0769 29.2018 57.1835 29.2018C57.4324 28.9788 57.1657 28.7841 57.5391 28.7699C57.82 28.2708 58.0867 27.708 58.4387 27.3541C58.7729 26.855 59.0041 26.5647 58.9685 25.9524C58.3498 26.678 57.7667 27.4673 57.2013 28.2354C56.8991 28.331 56.6182 28.4124 56.3159 28.4938C55.9106 28.8655 55.5586 29.2973 55.2208 29.715C54.9896 29.9415 54.7621 30.1504 54.5132 30.3769C54.4065 30.522 54.2998 30.6672 54.1754 30.8088C53.9976 30.8902 53.8234 30.9539 53.6456 31.0353C53.4144 31.2618 53.1869 31.4707 52.9558 31.6937C52.4615 31.7255 53.0055 31.6299 52.778 31.9025C52.7033 31.9202 52.5824 31.8529 52.6002 31.9202C52.5291 31.9202 52.6002 32.0653 52.6002 32.129C52.4793 32.1927 52.3513 32.0653 52.3015 32.2104L52.1948 32.483L52.5646 32.4688C52.6251 32.4618 52.6962 32.5255 52.8206 32.6529Z" fill="white"/>
<path fill-rule="evenodd" clip-rule="evenodd" d="M50.3282 32.398C50.3638 32.1255 50.4882 31.9804 50.8047 32.1574C50.9647 31.9485 51.1425 31.722 51.3701 31.5131C52.5364 30.3557 53.6849 29.1947 54.8334 28.0372C55.3489 27.3152 55.8574 26.6709 56.373 26.0267C56.6219 26.1542 56.373 26.0267 56.4975 25.8816C56.4975 25.8179 56.5508 25.8179 56.6183 25.8179C56.6006 25.7542 56.5472 25.6091 56.6006 25.6091C56.6006 25.5453 56.7215 25.6091 56.7784 25.5914C56.8317 25.3188 56.885 25.0463 56.9917 24.8374C57.045 24.5649 57.2726 24.3383 57.3793 24.0658C57.3615 23.8569 57.3615 23.6658 57.4148 23.5207C57.3971 23.3118 57.5215 23.2481 57.5748 23.0995C57.7171 22.2641 57.5571 22.7632 57.5393 22.1508C57.5215 21.8783 57.5748 21.7332 57.5571 21.5208C57.2548 21.3438 57.4859 21.2659 57.4859 21.1208C57.4148 20.8624 57.1481 20.604 56.9739 20.7492C56.7784 21.6518 56.5828 22.5331 56.4441 23.4357C56.2841 23.8534 56.1774 24.3348 56.0921 24.8197C55.3489 25.8816 54.6058 26.9577 53.9338 28.0833C53.7026 28.3062 53.4751 28.5186 53.2439 28.7416C53.0662 28.9505 52.8919 29.1593 52.7319 29.4495C52.3266 29.8177 51.9212 30.253 51.5123 30.6884C51.3345 30.8972 51.1781 31.1061 51.0003 31.3326C50.5771 31.3468 51.0181 31.5238 50.6483 31.5556C50.4705 31.7645 50.314 31.9733 50.1362 32.1998C50.2038 32.2671 50.2571 32.3343 50.3282 32.398Z" fill="white"/>
<path fill-rule="evenodd" clip-rule="evenodd" d="M12.0186 27.9736C12.4097 27.3294 12.8151 26.7666 13.256 26.1897C13.256 26.126 13.256 26.0623 13.256 25.995C13.4302 25.8499 13.6115 25.687 13.768 25.5455C13.768 25.5455 13.8391 25.5455 13.8924 25.5455C13.8924 25.4818 13.9458 25.3366 13.9458 25.4003C13.8925 25.4003 13.7858 25.7543 13.6649 25.7543C13.5404 25.7685 13.4871 25.641 13.4871 25.7083C13.416 25.7083 13.4871 25.8357 13.4871 25.9171C13.256 25.9985 13.0284 26.1401 12.8506 26.2852C12.5484 26.6392 12.2675 27.0109 11.9866 27.3613C12.0008 27.5737 12.0008 27.7648 12.0186 27.9736Z" fill="white"/>
<path fill-rule="evenodd" clip-rule="evenodd" d="M57.3614 19.7688C57.2228 19.5104 57.0983 19.2378 57.0272 18.9653C56.9561 18.7741 56.885 18.5653 56.8672 18.4343C57.1872 18.6927 57.5748 19.1423 57.5926 19.6909C57.4859 19.6909 57.4148 19.705 57.3614 19.7688Z" fill="white"/>
<path fill-rule="evenodd" clip-rule="evenodd" d="M0.970947 23.5208C0.970947 23.2482 1.02428 23.1668 1.0065 22.958C1.41186 22.6677 1.89188 22.4447 2.2439 22.0731C2.41813 21.9917 2.59592 21.9103 2.77371 21.8324C2.88038 21.4926 3.12573 21.751 3.10795 21.4147C3.29996 21.3333 3.47774 21.2554 3.65553 21.174C3.7622 21.0289 3.88665 20.8838 3.99333 20.7386C4.17111 20.6608 4.3489 20.5935 4.52313 20.5156C4.70092 20.2254 4.92849 20.0166 5.15961 19.7936C5.26628 19.6484 5.45829 19.567 5.63608 19.4856C5.81387 19.4042 5.99165 19.3405 6.16588 19.2591C6.27256 19.114 6.39701 18.9688 6.50368 18.8272C6.68147 18.6821 6.8557 18.537 7.08682 18.4556C7.31794 18.1653 7.61663 17.8751 7.90109 17.6521C8.07887 17.507 8.2531 17.3618 8.43089 17.2167C8.60868 17.0539 8.78291 16.9123 8.9607 16.7672C9.1207 16.6221 9.29494 16.4769 9.47272 16.3318C9.65051 16.1867 9.8283 16.0416 10.0025 15.8964C10.1803 15.7336 10.3545 15.5885 10.5146 15.4469C10.6923 15.3018 10.8666 15.1567 11.0444 15.0115C11.1688 14.8664 11.2755 14.785 11.4497 14.7036C11.6275 14.6222 11.8053 14.5585 11.9973 14.477C12.104 14.2682 12.2106 14.0417 12.3849 13.9001C12.8471 13.5284 13.3769 13.1603 13.9067 12.8559C14.0312 12.7108 14.1343 12.6471 14.3121 12.5657C14.4899 12.4842 14.6819 12.4028 14.8597 12.325C15.0872 12.1161 15.3184 11.8931 15.5495 11.6807C15.7273 11.5993 15.9015 11.5215 16.0793 11.4401C16.3104 11.2171 16.538 11.0047 16.7691 10.7817C16.9469 10.6366 17.1922 10.5552 17.4234 10.4737C17.6011 10.2472 17.7789 10.1056 17.9532 9.96049C18.1807 9.75166 18.4119 9.52866 18.643 9.30212C19.0483 8.88445 19.4572 8.44907 19.9159 8.08095C20.0404 7.93583 20.1471 7.85442 20.3248 7.77301C20.6946 7.75885 20.2537 7.58187 20.6769 7.54647C20.8546 7.27392 21.0147 6.98367 21.2422 6.77483C21.42 6.61555 21.5978 6.47043 21.8431 6.3253C21.9498 6.18018 22.0743 6.10231 22.2485 6.03505C22.4263 5.95364 22.6005 5.87223 22.7783 5.79436C22.885 5.64924 23.0094 5.50765 23.1161 5.35899C23.2939 5.21386 23.5392 5.13245 23.7704 5.05458C23.8948 4.90945 23.9979 4.76433 24.1757 4.68292C24.3535 4.60151 24.5313 4.52364 24.7055 4.44222C24.6877 3.91128 24.83 4.44222 25.0611 4.21569C25.0611 4.15198 24.99 4.02455 25.0611 4.02455L25.4167 3.99269C25.4167 3.92898 25.3456 3.79801 25.4167 3.79801L25.7687 3.76616C25.7687 3.70244 25.6976 3.57148 25.7687 3.57148L26.1243 3.53962C26.3554 3.26707 25.8078 3.36264 26.302 3.33078C26.4798 3.24937 26.6541 3.16796 26.8319 3.08655C26.9385 2.75029 27.0096 3.00514 27.1874 2.86355C27.3474 2.591 27.063 2.66887 27.0452 2.60516C26.9919 2.54145 27.0452 2.46004 27.0452 2.39632C27.2052 2.04236 27.4328 1.76627 27.6639 1.47956C27.8417 1.33444 28.0159 1.18931 28.247 1.03003C28.4782 0.821192 28.7057 0.594656 28.9368 0.385819C29.1324 0.304407 29.3066 0.290249 29.5378 0.272551C29.7298 0.258392 30.032 0.322105 30.1387 0.0955698C30.6685 0.0637132 31.2161 0.0318566 31.7459 0C31.9948 0.0637132 32.2401 0.113268 32.5424 0.226536C32.6135 0.435373 32.7379 0.290249 32.9833 0.339804C33.1611 0.339804 33.0544 0.548641 33.2855 0.598196L33.6553 0.584037C33.6553 0.584037 33.6553 0.711464 33.6553 0.792875C33.8509 0.83889 34.0962 0.888445 34.3451 1.01587C34.4162 1.21055 34.4696 1.21055 34.7149 1.19285C34.8927 1.25657 35.0847 1.30612 35.2625 1.36983C35.3336 1.43355 35.387 1.5008 35.4581 1.56097C35.6359 1.62469 35.8314 1.67424 36.0057 1.73795C36.0768 1.93263 36.0768 1.99635 36.3221 1.99635C36.4999 2.0459 36.6955 2.10961 36.8697 2.15917C37.0119 2.43172 37.0439 2.15917 37.2395 2.35031C37.2395 2.35031 37.1862 2.47773 37.2573 2.54499C37.2573 2.6087 37.5026 2.6087 37.556 2.59454C37.6769 2.72551 37.8049 2.85293 37.9258 2.98036C38.1213 3.04407 38.2956 3.10779 38.4911 3.15734C38.9676 3.12549 38.42 3.23875 38.6511 2.9485C38.6511 2.88479 38.7756 2.93081 38.8467 2.93081C38.8289 2.86709 38.7756 2.73967 38.8289 2.72197L39.1987 2.70427C39.2698 2.91311 39.3232 3.10779 39.3943 3.29893C39.9774 4.02455 40.5606 4.81035 41.197 5.58198C41.2148 5.79082 41.3393 5.92179 41.1081 6.13062C40.9126 6.08107 40.7348 6.01736 40.5606 5.97134C39.7107 6.01736 38.8609 6.06691 38.0858 6.11647L38.1035 6.51644L38.4556 6.50228C38.6334 6.48813 38.5267 6.69342 38.772 6.76068C38.9463 6.74652 39.0707 6.60139 39.1952 6.87394C38.8254 6.76068 38.4733 6.71466 38.1711 6.64741C37.5524 6.69696 37.0226 6.72882 36.475 6.76068C36.2972 7.03323 36.1194 6.84209 35.9452 6.98721C35.7674 7.06862 35.8919 7.13234 35.9452 7.25976C36.0163 7.4686 36.0874 7.4686 36.315 7.45444C36.5106 7.504 36.6884 7.56771 36.8804 7.61372C37.3568 7.59603 36.8093 7.55001 37.0582 7.80486C37.0582 7.80486 37.1826 7.74115 37.2537 7.80486C37.428 7.79071 37.3071 7.72699 37.5524 7.64558C37.7302 7.56417 37.9044 7.4863 38.0822 7.40489C39.0352 7.35533 40.0628 7.29162 41.0868 7.22791C41.5099 7.00137 41.9189 6.77837 42.3953 6.61555C42.7651 6.58369 42.3242 6.40671 42.7509 6.38902C42.9287 6.24389 43.1563 6.14832 43.4052 6.06691C43.6363 5.9855 43.8816 5.90409 44.1128 5.82622C44.3617 5.7448 44.5892 5.66693 44.8381 5.58552C45.0124 5.50765 45.1937 5.48995 45.3679 5.47225C45.7199 5.39084 46.0933 5.29527 46.4453 5.28111C47.8961 5.1997 49.3468 5.10413 50.8473 5.02272C51.1673 5.06874 51.466 5.11829 51.7683 5.23156C51.9603 5.29527 52.2092 5.34483 52.4581 5.47225C52.6359 5.52181 52.8812 5.58552 53.1301 5.63508C53.3079 5.7625 53.5035 5.89347 53.6955 6.0032C53.7488 6.0032 54.1186 6.11647 54.1897 6.26159C54.1897 6.26159 54.1186 6.39256 54.1897 6.45627C54.1897 6.45627 54.3142 6.39256 54.3675 6.45627C54.3675 6.45627 54.3142 6.5837 54.3853 6.64741C54.3853 6.64741 54.4884 6.5837 54.5631 6.64741C54.5631 6.64741 54.5097 6.77483 54.5809 6.83855C54.8262 7.09694 54.7409 6.50228 54.7586 7.03323C55.0253 7.29162 55.3418 7.54647 55.6582 7.86858C56.1347 7.83672 55.5871 7.80486 55.836 8.06326C56.0316 8.25794 56.3658 7.6916 56.4014 8.24024C56.9312 8.20838 57.4788 8.24024 58.0264 8.27209C58.2219 8.60836 58.4886 8.93046 58.734 9.25257C58.9117 9.17116 59.086 9.10744 59.2815 9.02603C59.5802 9.00834 59.7402 8.84905 59.9536 9.25257C59.7047 9.39769 59.4771 9.55698 59.2993 9.76581C59.3171 9.82953 59.3171 9.91094 59.4415 10.0384C59.6904 10.2968 59.6016 9.6844 59.6336 10.233C60.1136 10.1375 60.6434 10.0242 61.191 9.99235C61.4897 9.97819 61.7919 9.89678 61.9839 10.3003C61.7528 10.3817 61.5074 10.4596 61.3474 10.6047C61.3474 10.6684 61.3474 10.7321 61.4185 10.8135C61.5963 10.8596 61.8417 10.9091 62.0906 11.0401C62.2648 11.0259 62.4426 11.0896 62.4426 10.8135C62.6737 10.7958 62.9191 10.7817 63.168 10.764C63.2924 10.8914 63.4133 11.0224 63.5378 11.1498C63.7867 11.1356 64.0853 11.1179 64.3876 11.1817C64.5796 11.2312 64.4587 11.3763 64.7574 11.3586C64.5974 11.5675 64.4765 11.7763 64.3662 11.9852C64.192 11.9356 64.0676 11.8719 63.9431 11.8896C63.6409 12.0347 63.6587 12.2435 63.6053 12.5161C63.232 12.4665 62.88 12.4205 62.5102 12.371C62.2613 12.3214 62.087 12.3391 61.9092 12.3391C61.767 12.0807 61.6639 12.2259 61.4683 12.2259C61.2905 12.0984 61.1661 11.9675 61.0452 11.9214C60.8532 11.8577 60.6754 11.8082 60.4798 11.7445C60.1989 11.9037 60.3056 11.6807 60.1776 11.6312L59.8078 11.6454C59.5589 11.5179 59.8576 11.3728 59.5056 11.3905C59.31 11.3409 59.1358 11.2772 58.9402 11.2277C58.7091 11.2277 58.5846 11.3091 58.5135 11.1144C58.5668 10.9056 58.6735 10.7604 58.798 10.6153C58.7268 10.4065 58.6557 10.2118 58.5846 10.0207C58.4068 10.1658 58.2326 10.3109 58.0513 10.4525C57.6992 10.4029 57.3259 10.4206 57.0272 10.4383C57.045 10.7109 56.9205 10.5835 56.8494 10.4525C56.3018 10.4206 55.7542 10.3888 55.2067 10.3392C54.9578 10.2897 54.7302 10.2437 54.4813 10.1799C54.2359 10.0667 53.987 10.003 53.7915 9.95341C53.5426 9.82599 53.3115 9.77643 53.1194 9.71272C52.8172 9.66317 52.5719 9.68086 52.3407 9.69502C51.9709 9.58175 51.6011 9.47203 51.2278 9.42247C50.9255 9.37292 50.6269 9.3269 50.3246 9.34106C50.0793 9.42247 49.8482 9.50388 49.6704 9.58175C49.6704 9.58175 49.6704 9.58175 49.5495 9.45433C49.3006 9.66317 49.073 9.88616 48.8419 10.1127C48.6641 10.1764 48.4863 10.3392 48.3796 10.4808C48.1343 10.4808 47.9032 10.495 47.7076 10.5127C47.4765 10.5941 47.2276 10.672 47.0533 10.7534C46.8756 10.8348 46.7013 10.9127 46.5235 10.9941C46.2249 11.0118 46.1004 10.8808 46.1146 11.2206C45.8835 11.4436 45.6382 11.656 45.4782 11.9462C45.3004 12.1551 45.1937 12.4276 45.0906 12.7179C45.0906 12.5727 45.0195 12.3143 44.9483 12.4453C44.895 12.4595 44.9661 12.5904 44.9661 12.6541C44.9128 12.6541 44.8417 12.6541 44.8417 12.7356C44.7883 12.7356 44.8595 12.863 44.8595 12.9267C44.7883 12.9444 44.7386 12.9444 44.6817 12.9444C44.5394 12.7497 44.4185 12.5409 44.2941 12.3497C44.1696 12.286 44.0487 12.3674 43.9776 12.3037C43.7323 12.0453 44.2799 12.0772 43.7998 12.109C43.6078 12.1905 43.43 12.2719 43.2523 12.3497C43.1456 12.4949 43.0211 12.64 42.918 12.7674C42.7402 12.8488 42.5624 12.9302 42.3882 13.0081C42.1038 13.3621 41.8051 13.7337 41.5206 14.0877C41.5917 14.3602 41.734 14.6823 41.8726 15.0186C41.6237 15.0363 41.3962 15.0505 41.1473 15.1319C41.0939 15.1319 41.0228 15.1319 40.9695 15.1496C40.8486 15.1496 40.7739 14.9407 40.7739 14.9407C40.525 14.9584 40.2974 14.9726 40.0485 14.9868C39.9774 14.8593 39.9241 14.7956 39.9241 14.7284C39.5507 14.7461 39.2521 14.7602 38.9534 14.7779L38.7756 15.0045C38.548 15.0859 38.4769 14.877 38.4947 15.2947C38.5658 15.4221 38.6902 15.5531 38.8111 15.7442C38.7578 15.7442 38.6867 15.7619 38.6334 15.8256C38.068 15.5212 37.8369 15.5354 37.3604 15.9071C37.3071 15.8433 37.2395 15.8433 37.2395 15.8433C37.0084 15.7761 36.7595 15.7301 36.5141 15.6805C36.3186 15.6168 36.1408 15.631 35.963 15.6487C35.6643 15.5177 35.4154 15.408 35.1701 15.3443C34.6225 15.3761 35.5754 14.9089 34.9567 14.9584C34.7789 14.7638 34.5834 14.6363 34.4589 14.5054C34.2633 14.4417 34.0891 14.3921 33.9113 14.3284C33.6091 14.3461 33.7158 14.201 33.538 14.1514C33.2926 14.1691 33.1148 14.1691 32.9193 14.1833C32.9904 14.1833 33.0402 14.1833 33.1646 14.0381C33.3246 13.7479 32.8979 13.7019 32.8979 13.7019C32.8446 13.6346 32.8268 13.5709 32.8268 13.5709C32.7024 13.5072 32.5281 13.5886 32.5281 13.5214C32.4748 13.4576 32.5281 13.3125 32.5281 13.3125L32.1583 13.3444C31.9806 13.2807 31.7886 13.2311 31.6108 13.1674C31.5396 13.04 31.4152 12.909 31.2907 12.909C31.113 12.9267 31.1841 13.0541 30.9885 13.0046C30.7432 12.8771 31.0418 12.7143 30.672 12.7462C30.6009 12.5373 30.5476 12.3427 30.4765 12.1338C30.3876 11.7303 30.3698 11.3303 30.352 10.9905C30.6329 10.4277 30.9707 9.92864 31.3085 9.42955C31.3619 9.157 31.4152 8.88445 31.4508 8.59066C31.6285 8.38182 31.6819 8.04556 31.4152 7.78717C31.2196 7.59603 31.0454 7.59603 30.921 7.54647C30.6898 7.56417 30.4267 7.30578 30.4267 7.09694C30.1245 7.1111 29.8969 7.1288 29.648 7.14649C29.4738 7.29162 29.296 7.43674 29.136 7.57833C28.8906 7.65974 28.6595 7.74115 28.4106 7.81902C28.6062 7.94645 28.7804 8.07742 28.976 8.26855C29.1537 8.25086 29.3458 8.31811 29.5947 8.36412C29.4702 8.57296 29.3671 8.7818 29.2569 9.00834C28.9048 9.15346 28.5493 9.31274 28.1795 9.47556C28.0017 9.49326 27.8239 9.49326 27.703 9.44371C27.6319 9.38 27.4577 9.25257 27.6319 9.17116C27.6852 9.08975 28.1084 9.28443 27.9839 8.94462C27.9128 8.8172 27.543 8.83135 27.4897 8.89507C27.3652 8.91277 27.4541 9.18532 27.4541 9.24903C27.1554 9.3269 26.8532 9.40831 26.6221 9.57114C26.6221 9.84369 26.8674 9.82953 26.8887 10.1021L26.7821 10.3746C26.711 10.3746 26.7821 10.5056 26.7821 10.5835C26.7287 10.5835 26.6043 10.5198 26.6043 10.5835C26.4798 10.6012 26.5509 10.7923 26.4265 10.81C26.302 10.7463 26.3554 10.5375 26.2309 10.6189C26.2167 10.633 26.2167 10.6967 26.2167 10.7604C26.11 10.8419 25.8647 10.856 25.7402 10.856C25.5625 11.0011 25.3847 11.164 25.2282 11.3091C25.1038 11.4542 24.9971 11.5993 24.8762 11.7268C24.4531 11.8223 24.0441 11.9179 23.6921 12.0807C23.6388 12.2896 23.5855 12.4984 23.6032 12.7568C23.4788 12.7745 23.3046 12.9833 23.2512 12.9975C23.1801 12.9975 23.109 12.8524 23.1268 12.9338C22.9312 12.9338 23.0734 13.27 22.8956 13.2877C22.5258 13.3019 22.949 13.0789 22.6503 13.3019C22.4725 13.3833 22.3658 13.5107 22.2414 13.6559C22.1881 13.5921 22.1169 13.5284 22.0458 13.4612C21.9391 13.6063 21.8325 13.7514 21.7116 13.8966C21.5338 13.978 21.356 14.0558 21.1818 14.1372C20.7053 14.1549 21.2351 14.0558 21.004 14.3461C20.8973 14.4275 20.7551 14.2965 20.7053 14.2965C20.5275 14.3142 20.4742 14.5054 20.4208 14.5868C19.9977 14.6823 19.6457 14.8275 19.2901 14.9868C19.2901 14.9868 19.2901 14.9868 19.1657 15.0045C18.9879 15.1496 18.8137 15.2947 18.6359 15.4398C18.3336 15.5991 18.0527 15.7442 17.7505 15.9071C17.4518 16.0522 17.1673 16.2115 16.8651 16.3566C16.5664 16.4522 16.2642 16.5336 16.0331 16.6787C15.7308 16.7743 15.5033 16.9194 15.2544 17.0822C14.9699 17.2273 14.6712 17.3866 14.3725 17.5317C13.6649 17.7901 13.0107 18.0945 12.3564 18.4025C12.0542 18.5653 11.7733 18.7104 11.4711 18.8697C10.9412 19.0325 10.4648 19.2732 9.98475 19.4962C9.38383 19.6732 8.85402 19.9139 8.32422 20.1404C8.02554 20.2997 7.7233 20.4449 7.49573 20.6714C7.33572 21.0253 7.19705 20.5581 7.01926 20.7032C6.96593 20.7032 6.96593 20.767 6.96593 20.8307C6.78814 20.9935 6.53924 20.8625 6.4859 21.1386C6.30811 21.1563 6.13388 21.2342 6.00943 21.2979C5.72497 21.3935 5.47963 21.5386 5.2485 21.6837C5.05294 21.5704 4.9996 21.6342 4.89293 21.7793C4.71514 21.8607 4.59425 22.0023 4.48758 22.1509C4.23867 22.1509 4.06444 22.2324 3.88665 22.3102C3.7622 22.3279 3.63775 22.2642 3.58797 22.4058C3.53464 22.4058 3.58797 22.5332 3.60575 22.6005C3.4813 22.6819 3.35685 22.5545 3.28929 22.5545C3.05817 22.5686 3.23595 22.6359 3.12928 22.7633C3.00483 22.7775 2.63503 22.6677 2.5817 22.7952C2.35057 23.0819 2.89816 22.9863 2.40391 23.0182C1.92389 23.181 1.44742 23.3438 0.970947 23.5208Z" fill="white"/>
<path fill-rule="evenodd" clip-rule="evenodd" d="M25.9146 10.7143C25.9146 10.6506 25.9146 10.5232 25.9146 10.5232C25.8434 10.4595 25.2959 10.5551 25.5981 10.2648C25.6514 10.1197 26.1457 10.233 26.199 10.3604C26.0923 10.4418 25.9679 10.5869 25.9146 10.7143Z" fill="white"/>
<path fill-rule="evenodd" clip-rule="evenodd" d="M35.4438 5.17858C35.4438 5.03345 35.4971 4.90603 35.426 4.90603C35.1807 4.71135 34.8962 5.13256 34.8784 4.72905C35.106 4.52021 35.3371 4.35739 35.586 4.21226C35.6216 3.93971 35.746 3.92201 35.9914 4.05298C36.0091 4.32553 36.0803 4.58392 36.1692 4.92018C35.9202 5.01929 35.6891 5.10071 35.4438 5.17858Z" fill="white"/>
<path fill-rule="evenodd" clip-rule="evenodd" d="M37.5452 4.84214C37.4207 4.64746 37.5274 4.56959 37.5274 4.37491C37.7052 4.2935 37.883 4.21563 38.0608 4.13422C38.3061 4.12006 38.2919 4.05281 38.3772 4.39261C38.3772 4.39261 38.4306 4.45632 38.4306 4.52004C38.3772 4.60145 38.1461 4.67932 38.1461 4.81029C37.9008 4.82444 37.723 4.84214 37.5452 4.84214Z" fill="white"/>
</g>
<defs>
<clipPath id="clip0_136_1066">
<rect width="63.7971" height="62" fill="white" transform="translate(0.970947)"/>
</clipPath>
</defs>
</svg>
