<svg width="70" height="70" viewBox="0 0 70 70" fill="none" xmlns="http://www.w3.org/2000/svg">
<path d="M15.899 44.3154C14.3442 43.6152 13.3874 42.7741 13.5822 42.2861C13.7674 41.825 15.1119 41.9138 16.6069 42.396" stroke="#A2ABC3" stroke-width="1.5" stroke-miterlimit="10" stroke-linecap="round" stroke-linejoin="round"/>
<path d="M16.144 46.3891C14.487 46.4932 13.1869 46.2116 13.1271 45.6985C13.0615 45.1255 14.5738 44.4813 16.5048 44.2594C17.1336 44.188 17.7278 44.1688 18.2467 44.1958" stroke="#A2ABC3" stroke-width="1.5" stroke-miterlimit="10" stroke-linecap="round" stroke-linejoin="round"/>
<path d="M20.1739 45.2085C20.0794 45.8085 19.1476 46.8463 17.8282 47.7645C16.2329 48.8756 14.6723 49.3907 14.3424 48.9181C14.0126 48.4435 15.0388 47.1607 16.6341 46.0496C17.5813 45.3899 18.5168 44.9404 19.1881 44.7822" stroke="#A2ABC3" stroke-width="1.5" stroke-miterlimit="10" stroke-linecap="round" stroke-linejoin="round"/>
<path d="M18.6615 41.5262C19.9096 43.0174 20.5635 44.5259 20.1199 44.8962C19.6781 45.2666 18.3066 44.36 17.0585 42.8688C15.8104 41.3777 15.1565 39.8692 15.6002 39.4988C16.0438 39.1285 17.4134 40.0351 18.6615 41.5262Z" stroke="#A2ABC3" stroke-width="1.5" stroke-miterlimit="10" stroke-linecap="round" stroke-linejoin="round"/>
<path d="M20.2297 40.6848C19.815 39.0316 19.163 37.9379 18.6479 38.0459C18.1599 38.1462 18.0114 39.4232 18.2236 40.98" stroke="#A2ABC3" stroke-width="1.5" stroke-miterlimit="10" stroke-linecap="round" stroke-linejoin="round"/>
<path d="M22.2377 41.285C22.6312 39.6723 22.5811 38.3413 22.0873 38.1947C21.5336 38.0288 20.6347 39.4042 20.0772 41.2676C19.8959 41.8734 19.7744 42.4559 19.7107 42.971" stroke="#A2ABC3" stroke-width="1.5" stroke-miterlimit="10" stroke-linecap="round" stroke-linejoin="round"/>
<path d="M20.3686 45.0464C20.9762 45.058 22.1607 44.323 23.2969 43.1849C24.6703 41.8095 25.4516 40.3628 25.0426 39.9557C24.6337 39.5487 23.1888 40.3319 21.8154 41.7092C20.9994 42.5252 20.4824 43.264 20.2085 43.8987" stroke="#A2ABC3" stroke-width="1.5" stroke-miterlimit="10" stroke-linecap="round" stroke-linejoin="round"/>
<path d="M27.0913 48.8193C27.0913 48.8193 23.0481 49.1936 22.5369 53.64L22.695 53.5937C27.126 52.7758 27.0913 48.8193 27.0913 48.8193Z" stroke="#A2ABC3" stroke-width="1.5" stroke-miterlimit="10" stroke-linecap="round" stroke-linejoin="round"/>
<path d="M16.4199 51.0976C16.4199 51.0976 20.2992 49.8978 22.4713 53.8118L22.3073 53.8291C17.8995 54.7686 16.4199 51.0976 16.4199 51.0976Z" stroke="#A2ABC3" stroke-width="1.5" stroke-miterlimit="10" stroke-linecap="round" stroke-linejoin="round"/>
<path d="M20.2779 45.0386C20.2142 45.1659 22.531 45.4823 22.531 51.1613C22.531 56.8403 22.531 57.7605 22.531 57.7605" stroke="#A2ABC3" stroke-width="1.5" stroke-miterlimit="10" stroke-linecap="round" stroke-linejoin="round"/>
<path d="M18.7231 58.327C18.4021 58.1147 18.1602 57.8505 18.3058 57.4357C18.449 57.0259 18.7971 56.9716 19.1847 56.9741C21.2388 56.9815 23.2929 56.979 25.3469 56.979C25.5099 56.979 25.6728 56.979 25.8876 56.979C26.2036 53.0017 26.5171 49.0466 26.8381 45.0076C26.6974 45.1187 26.6085 45.178 26.5344 45.2521C25.9271 45.8545 25.3296 46.4643 24.7198 47.0617C23.9471 47.8196 22.9768 47.8196 22.2066 47.0617C21.5746 46.442 20.9499 45.8174 20.3278 45.1854C19.5476 44.3929 19.5501 43.4301 20.3352 42.6425C22.6534 40.3169 24.9815 38.0011 27.2899 35.6681C27.4676 35.4878 27.596 35.1916 27.6207 34.9373C27.8207 32.8956 27.9244 30.839 28.1935 28.8072C28.3243 27.8172 28.749 26.8667 29.0428 25.8866C28.7811 25.6422 28.4478 25.3459 28.1318 25.0324C25.5617 22.4697 22.9966 19.9021 20.4315 17.337C19.5155 16.4211 19.5106 15.5126 20.4191 14.6016C21.0117 14.0066 21.6017 13.4091 22.2016 12.8215C22.9744 12.0636 23.9496 12.0562 24.7124 12.8191C27.4627 15.5619 30.208 18.3073 32.9484 21.06C33.1657 21.2773 33.3188 21.5587 33.5286 21.8476C36.1135 20.7267 38.7428 20.7169 41.2931 21.8278C41.6881 21.3834 42.0337 20.9539 42.4189 20.5663C44.9568 18.016 47.5046 15.4731 50.05 12.9302C50.9561 12.0241 51.8745 12.0266 52.7855 12.9326C53.3805 13.5252 53.9804 14.1127 54.5655 14.7151C55.3185 15.4879 55.3135 16.4631 54.5482 17.2309C51.8152 19.9688 49.0798 22.7043 46.3394 25.4348C46.1616 25.6125 45.9493 25.7582 45.8333 25.8545C46.1419 26.9235 46.4998 27.953 46.722 29.0121C46.8924 29.8268 46.9072 30.6786 46.9664 31.5155C46.9985 31.9673 46.7368 32.2759 46.3492 32.308C45.9567 32.3401 45.6703 32.0389 45.6185 31.5673C45.5049 30.5403 45.4777 29.4935 45.2333 28.4986C45.0259 27.6567 44.5791 26.8716 44.2063 26.0742C44.1372 25.9261 43.9347 25.8249 43.7743 25.736C43.1447 25.3903 42.6806 25.5681 42.2016 26.1038C41.4165 26.9877 40.5426 27.795 39.7007 28.627C39.5254 28.7998 39.4982 28.9405 39.5377 29.2047C39.6143 29.6935 39.6019 30.207 39.5328 30.6983C39.5007 30.9403 39.5131 31.0761 39.6809 31.239C40.6635 32.2092 41.6412 33.182 42.604 34.167C42.8015 34.3695 42.9743 34.404 43.2336 34.3176C43.673 34.1695 44.1248 34.0633 44.5717 33.935C45.2062 33.7498 45.774 33.893 46.2307 34.3472C49.0378 37.1395 51.8374 39.9367 54.6272 42.7437C55.3012 43.4227 55.2963 44.3929 54.6322 45.0891C53.9705 45.7853 53.2891 46.4618 52.5978 47.1259C51.8794 47.8172 50.9067 47.7974 50.1833 47.0938C49.497 46.4248 48.8181 45.7458 48.1367 45.0718C48.1293 45.0644 48.1095 45.0718 48.0379 45.0768C48.349 49.0244 48.6625 52.9721 48.9785 56.9815C49.1563 56.9815 49.3143 56.9815 49.4748 56.9815C51.5437 56.9815 53.6125 56.9864 55.6814 56.979C56.069 56.9765 56.4171 57.0308 56.5603 57.4407C56.706 57.8554 56.4616 58.1171 56.1431 58.3319C43.6755 58.327 31.198 58.327 18.7231 58.327ZM28.0873 46.326C28.1762 46.3457 28.2182 46.363 28.2601 46.363C30.2698 46.3655 32.2769 46.3729 34.2865 46.3532C34.4371 46.3507 34.6272 46.2026 34.7309 46.0692C36.1209 44.2769 38.765 44.2645 40.1204 46.0668C40.2981 46.3062 40.4759 46.3704 40.7524 46.3704C42.6114 46.3606 44.4705 46.3655 46.3295 46.3655C46.4751 46.3655 46.6208 46.3532 46.7936 46.3458C46.7418 45.7285 46.6307 45.1459 46.6628 44.5707C46.7097 43.7189 46.3418 43.1338 45.7271 42.6079C45.4777 42.3956 45.2555 42.3018 44.9371 42.3018C40.1994 42.3092 35.4617 42.3388 30.7265 42.2821C29.7809 42.2697 29.0798 42.4919 28.5416 43.2449C28.4428 43.3856 28.3145 43.5412 28.2996 43.6992C28.2108 44.5633 28.1564 45.4323 28.0873 46.326ZM44.0359 40.939C43.3891 40.2922 42.8312 39.7071 42.2362 39.159C42.0708 39.0084 41.8041 38.8924 41.5819 38.8899C39.7402 38.8677 37.896 38.88 36.0542 38.8751C35.8765 38.8751 35.6419 38.8998 35.5358 38.801C35.3481 38.6257 35.1506 38.3788 35.121 38.1394C35.0815 37.816 35.3333 37.5962 35.6691 37.5394C35.7999 37.5172 35.9382 37.5271 36.074 37.5271C37.7083 37.5271 39.3402 37.532 40.9746 37.5172C41.1104 37.5172 41.3326 37.4086 41.3671 37.3024C41.5498 36.7642 41.7054 36.2162 41.8189 35.6607C41.8535 35.4977 41.777 35.2484 41.6585 35.1274C40.6882 34.1275 39.7007 33.1449 38.7008 32.1722C38.5971 32.071 38.3601 32.0191 38.2169 32.0586C37.696 32.2092 37.18 32.2487 36.6764 32.0414C36.432 31.9426 36.3011 32.0167 36.1382 32.1821C35.4889 32.8462 34.8248 33.498 34.1705 34.1571C33.7804 34.5497 33.1855 34.8929 33.0669 35.357C32.9435 35.8384 33.2743 36.4408 33.4225 36.984C33.62 37.6974 33.4718 38.3097 32.9386 38.8331C32.3386 39.4207 31.7511 40.0181 31.1585 40.6131C31.0721 40.6995 30.9981 40.8008 30.887 40.9316C35.279 40.939 39.6019 40.939 44.0359 40.939ZM32.1856 22.3092C32.109 22.1957 32.0449 22.0599 31.9461 21.9611C29.2378 19.2479 26.5246 16.5371 23.8187 13.8214C23.562 13.5622 23.3595 13.5573 23.1028 13.8214C22.5522 14.3942 21.9819 14.9472 21.4215 15.5076C20.9993 15.9298 20.9968 15.994 21.4116 16.4087C24.0582 19.0578 26.7072 21.7044 29.3563 24.351C29.4501 24.4448 29.5785 24.625 29.6526 24.6077C30.3315 24.4472 31.003 24.2497 31.677 24.0646C31.8449 23.4943 32.0103 22.919 32.1856 22.3092ZM42.6954 22.3167C42.7744 22.5932 42.8781 22.8178 42.9003 23.0524C42.9793 23.9115 43.4163 24.3929 44.2902 24.4719C44.4655 24.4868 44.6383 24.6028 44.8087 24.6003C45.0087 24.5978 45.2728 24.5806 45.3987 24.4571C48.1342 21.7488 50.8499 19.0208 53.5755 16.3026C53.8199 16.0582 53.8125 15.8557 53.5681 15.6187C52.9583 15.0213 52.3534 14.4164 51.7584 13.8066C51.519 13.5622 51.3215 13.5597 51.077 13.8066C48.3589 16.5322 45.6357 19.2528 42.9151 21.976C42.8163 22.0747 42.7596 22.213 42.6954 22.3167ZM32.1658 37.5987C32.1485 37.4901 32.1411 37.4456 32.1337 37.4012C31.8844 35.8458 31.8029 35.757 30.2945 35.3274C30.2229 35.3076 30.1439 35.2632 30.0772 35.2755C29.8624 35.3175 29.5884 35.315 29.4526 35.4483C26.7344 38.1394 24.036 40.8477 21.3277 43.5461C21.0462 43.8251 21.0734 44.0349 21.345 44.2991C21.9399 44.8719 22.5201 45.457 23.0954 46.0495C23.3447 46.3087 23.5496 46.326 23.8113 46.0618C26.5221 43.3437 29.2378 40.6304 31.951 37.9147C32.0498 37.816 32.1115 37.6802 32.1658 37.5987ZM45.0951 35.1965C44.9939 35.2163 44.9494 35.2262 44.9074 35.236C43.2533 35.5619 43.2533 35.5619 42.7966 37.2012C42.7892 37.2308 42.7645 37.2605 42.7694 37.2852C42.8213 37.4999 42.8089 37.7814 42.9423 37.9172C45.6407 40.6403 48.3564 43.3461 51.0622 46.0618C51.3239 46.3235 51.5288 46.3112 51.7782 46.052C52.3608 45.4496 52.9558 44.857 53.5557 44.2719C53.8199 44.0152 53.8051 43.8078 53.5508 43.551C50.8351 40.8452 48.1268 38.132 45.4136 35.4237C45.3148 35.3249 45.1815 35.2582 45.0951 35.1965ZM39.4513 56.9543C39.4612 56.8259 39.476 56.7247 39.476 56.621C39.476 53.8337 39.4785 51.0439 39.4736 48.2566C39.4736 48.0641 39.4538 47.8666 39.4168 47.6764C39.2514 46.8074 38.4687 46.131 37.5898 46.0841C36.3332 46.0174 35.4074 46.9012 35.4025 48.2221C35.3901 51.0266 35.3975 53.8288 35.4 56.6334C35.4 56.7346 35.4197 56.8358 35.4321 56.9568C36.7652 56.9543 38.0811 56.9543 39.4513 56.9543ZM29.023 33.8387C29.6353 33.9103 30.1463 33.9498 30.6475 34.0362C31.0154 34.1004 31.3659 34.2534 31.7313 34.3226C31.877 34.3497 32.0942 34.3102 32.193 34.2115C33.2126 33.2165 34.2224 32.2117 35.2124 31.1896C35.3111 31.0884 35.3062 30.8613 35.3086 30.6934C35.3185 30.1947 35.2543 29.6861 35.3309 29.1973C35.3728 28.9331 35.3407 28.7924 35.1655 28.6196C34.3236 27.7876 33.4496 26.9803 32.6645 26.0964C32.1856 25.5582 31.719 25.3903 31.0919 25.7335C30.9314 25.8224 30.729 25.9236 30.6598 26.0742C30.2895 26.8716 29.7859 27.6543 29.6402 28.4961C29.3316 30.291 29.2106 32.1179 29.023 33.8387ZM34.0248 51.1674C31.8893 51.1674 29.813 51.1674 27.7022 51.1674C27.5491 53.1103 27.3985 55.0261 27.2479 56.9518C29.5489 56.9518 31.7758 56.9518 34.0273 56.9518C34.0249 55.0187 34.0248 53.1079 34.0248 51.1674ZM47.633 56.9543C47.4775 54.9891 47.3244 53.0832 47.1738 51.1748C45.0358 51.1748 42.9497 51.1748 40.861 51.1748C40.861 53.1227 40.861 55.0311 40.861 56.9543C43.12 56.9543 45.3469 56.9543 47.633 56.9543ZM37.4294 22.3512C36.0271 22.3784 34.7038 22.6969 33.4842 23.4029C33.0003 23.6819 32.8991 24.4448 33.2867 24.8299C34.2298 25.773 35.1753 26.7112 36.1085 27.6617C36.2962 27.8542 36.4468 27.8765 36.7233 27.832C37.1948 27.7555 37.6985 27.7629 38.17 27.8369C38.4268 27.8765 38.5724 27.8616 38.7477 27.6814C39.6834 26.7309 40.629 25.7928 41.5721 24.8497C41.9918 24.43 41.8757 23.6597 41.3425 23.3634C40.1253 22.6894 38.8168 22.3734 37.4294 22.3512ZM34.0397 49.7626C34.0397 49.0664 34.0397 48.4048 34.0397 47.748C32.0029 47.748 30.0031 47.748 27.9762 47.748C27.9194 48.4294 27.8676 49.0812 27.8108 49.7626C29.892 49.7626 31.9387 49.7626 34.0397 49.7626ZM40.8388 49.7577C42.9274 49.7577 44.984 49.7577 47.0677 49.7577C47.0059 49.059 46.9492 48.3973 46.8924 47.748C44.8284 47.748 42.8312 47.748 40.8413 47.748C40.8388 48.4344 40.8388 49.0861 40.8388 49.7577ZM38.3379 29.9404C38.3379 29.454 37.9503 29.0566 37.4615 29.0442C36.9553 29.0319 36.5381 29.4343 36.5381 29.9379C36.5381 30.4218 36.9282 30.8242 37.4146 30.8366C37.9157 30.8514 38.3354 30.4416 38.3379 29.9404Z" fill="#A2ABC3"/>
</svg>
