<svg width="70" height="70" viewBox="0 0 70 70" fill="none" xmlns="http://www.w3.org/2000/svg">
<path d="M56.2517 46.9861C56.0719 47.7062 55.8539 48.4046 55.3446 48.9791C54.3693 50.0794 53.1544 50.5009 51.7193 50.2436C51.4207 50.1899 51.2782 50.2612 51.116 50.4916C49.4381 52.8771 47.1766 54.4041 44.3169 54.9909C43.5554 55.1469 42.763 55.2234 41.9851 55.2244C33.7654 55.2399 25.5458 55.2358 17.3261 55.2316C15.5284 55.2306 14.2473 54.1241 14.0407 52.4122C13.8444 50.7881 15.1586 49.163 16.792 49.0586C17.5162 49.0121 18.2466 49.0504 19.0669 49.0504C17.7621 46.1307 17.6195 43.2234 18.725 40.2625C18.3117 39.9969 17.8716 39.7686 17.4955 39.4607C15.8177 38.0929 14.9922 36.3479 15.3456 34.1649C15.5336 33.0005 16.0605 31.9436 16.6835 30.9518C18.7219 27.7026 21.6663 25.8088 25.4455 25.1983C25.7596 25.1476 25.9249 25.0495 26.0014 24.6941C26.6264 21.7796 27.7071 19.05 29.4273 16.5984C30.0461 15.7161 30.76 14.9185 31.7146 14.3751C33.0897 13.592 34.4804 14.061 35.0258 15.5405C35.2221 16.0736 35.2779 16.6594 35.3854 17.2224C35.4174 17.3929 35.4091 17.5706 35.4195 17.7503C36.1478 17.4621 36.8276 17.1336 37.5426 16.9321C38.0581 16.7864 38.6325 16.7131 39.1615 16.7761C40.363 16.9187 41.0501 17.772 41.0429 18.9839C41.0367 19.9985 40.6833 20.9211 40.2246 21.8044C39.0231 24.1176 37.3411 26.0465 35.3978 27.7553C34.78 28.2987 34.0971 28.7657 33.4596 29.2874C33.347 29.3794 33.2323 29.5829 33.255 29.711C33.4451 30.7906 33.2747 31.8155 32.848 32.8104C32.7901 32.9458 32.7529 33.0904 32.6899 33.2815C32.8831 33.2815 33.0288 33.2815 33.1755 33.2815C36.2274 33.2836 39.2793 33.2423 42.3301 33.2981C47.5795 33.3952 51.9414 37.1393 52.8806 42.2978C52.9446 42.6511 53.0748 42.803 53.4447 42.9052C54.9221 43.3164 55.8178 44.3165 56.1753 45.8042C56.1969 45.8962 56.2269 45.9861 56.2538 46.077C56.2517 46.3818 56.2517 46.6845 56.2517 46.9861ZM35.5827 49.0276C35.5827 48.8355 35.5806 48.6888 35.5827 48.541C35.6209 46.1534 36.6406 44.3206 38.6863 43.0747C39.9519 42.304 41.3549 42.2058 42.7858 42.2585C43.3788 42.2802 43.7476 42.5994 43.7672 43.1005C43.7869 43.5974 43.3881 43.9766 42.7971 44.0004C42.3994 44.0169 41.9995 43.9993 41.6018 44.0107C39.6894 44.0665 37.9858 45.3548 37.5271 47.2155C37.3432 47.9614 37.369 48.7652 37.3442 49.5442C37.3143 50.4802 37.0425 50.7705 36.1013 50.7716C34.905 50.7726 33.7096 50.7612 32.5133 50.7778C31.6702 50.7891 31.102 51.4328 31.166 52.2603C31.2229 52.9928 31.8107 53.4908 32.6548 53.4918C35.7893 53.497 38.9228 53.5032 42.0574 53.4846C42.6866 53.4805 43.3302 53.4391 43.9398 53.2955C47.25 52.5165 49.588 50.6052 50.744 47.3446C51.4424 45.3755 51.5447 43.3908 50.8742 41.4061C49.5539 37.4978 46.1176 35.043 41.9954 35.0255C40.4281 35.0193 38.8609 35.0244 37.2946 35.0244C35.3286 35.0244 33.3635 35.0275 31.3975 35.0224C30.5679 35.0203 30.1815 34.4056 30.5276 33.6555C30.6257 33.4437 30.7404 33.2402 30.8468 33.0326C31.4398 31.8682 31.8541 30.6884 31.3603 29.3608C31.2022 28.9351 31.3665 28.5549 31.7828 28.308C32.0308 28.1613 32.2653 27.9919 32.4998 27.8235C35.0424 25.9938 37.1841 23.7973 38.6697 21.012C39.0055 20.3828 39.2793 19.7216 39.2855 18.9818C39.2886 18.6326 39.1243 18.4456 38.7885 18.488C38.397 18.5366 37.9961 18.5965 37.6273 18.7308C36.0538 19.3042 34.7314 20.2888 33.4823 21.3746C31.8334 22.8076 30.4005 24.4306 29.2837 26.3182C29.0564 26.7015 28.7289 26.8378 28.2825 26.8234C27.5986 26.8027 26.9043 26.7728 26.2276 26.8585C21.937 27.404 18.9471 29.647 17.2827 33.6783C16.4376 35.7228 17.7032 38.0515 19.6403 38.6725C20.9679 39.0981 20.9256 39.6302 20.4823 40.6458C19.5484 42.7823 19.4564 44.9891 20.2189 47.1948C20.472 47.9273 20.8729 48.6113 21.2314 49.3035C21.5124 49.8438 21.4886 50.3159 21.064 50.5804C20.8677 50.7023 20.6012 50.7592 20.3656 50.7633C19.2798 50.7829 18.1939 50.7571 17.1081 50.7788C16.1101 50.7995 15.4819 51.7851 15.888 52.6736C16.1679 53.2862 16.6856 53.496 17.3323 53.496C21.3326 53.4918 25.3329 53.4939 29.3332 53.4929C29.4407 53.4929 29.5492 53.4836 29.6897 53.4774C29.6515 53.341 29.6236 53.2242 29.5853 53.1106C29.0987 51.6797 29.7062 50.1434 31.0286 49.4078C31.6981 49.0359 32.4172 49.0194 33.1486 49.0245C33.9411 49.0318 34.7355 49.0276 35.5827 49.0276ZM27.6968 24.9534C27.7432 24.9958 27.7908 25.0381 27.8373 25.0805C27.9654 24.9596 28.1234 24.8573 28.2175 24.7147C29.4149 22.8851 30.8757 21.2889 32.5411 19.8838C33.7034 18.9033 33.7344 18.923 33.6414 17.3805C33.6166 16.9631 33.5195 16.5385 33.3852 16.1417C33.2365 15.7027 33.0226 15.6293 32.6321 15.8731C32.287 16.088 31.944 16.3349 31.6723 16.6335C29.513 19.0097 28.4768 21.9222 27.6968 24.9534ZM53.1864 44.6533C52.8992 45.9664 52.6161 47.2579 52.334 48.5451C53.1998 48.7032 54.1627 48.0606 54.4292 47.0771C54.7113 46.0377 54.1565 44.988 53.1864 44.6533Z" fill="#A2ABC3"/>
<path d="M50.0033 43.8628C50.0033 44.0136 50.0157 44.1655 50.0012 44.3143C49.9568 44.7761 49.6448 45.0829 49.2068 45.1067C48.7542 45.1315 48.4061 44.8825 48.3234 44.4207C48.2242 43.869 48.2108 43.2997 48.0786 42.7573C47.4298 40.0949 45.0794 38.196 42.3405 38.0803C42.138 38.072 41.9242 38.0483 41.7372 37.976C41.388 37.8417 41.1886 37.4315 41.2526 37.0637C41.327 36.6391 41.6617 36.3498 42.1277 36.3426C43.1856 36.3271 44.2002 36.5471 45.1723 36.9542C47.9742 38.1289 49.8556 40.8285 50.0033 43.8628Z" fill="#A2ABC3"/>
<path d="M23.5062 31.925C23.5093 32.4932 23.0331 32.9747 22.4648 32.9778C21.8935 32.9809 21.4131 32.5087 21.409 31.9405C21.4048 31.3702 21.879 30.8918 22.4493 30.8877C23.0207 30.8846 23.5021 31.3568 23.5062 31.925Z" fill="#A2ABC3"/>
</svg>
