<svg width="70" height="70" viewBox="0 0 70 70" fill="none" xmlns="http://www.w3.org/2000/svg">
<path d="M34.957 19.1635C34.957 20.0819 34.2038 20.827 33.2754 20.827C32.3469 20.827 31.5938 20.0819 31.5938 19.1635C31.5938 18.2451 32.3469 17.5 33.2754 17.5C34.2038 17.5 34.957 18.2451 34.957 19.1635Z" stroke="#A2ABC3" stroke-width="1.8" stroke-miterlimit="10" stroke-linejoin="round"/>
<path d="M39.3007 19.1635C39.3007 20.0819 38.5476 20.827 37.6191 20.827C36.6907 20.827 35.9375 20.0819 35.9375 19.1635C35.9375 18.2451 36.6907 17.5 37.6191 17.5C38.5493 17.5 39.3007 18.2451 39.3007 19.1635Z" stroke="#A2ABC3" stroke-width="1.8" stroke-miterlimit="10" stroke-linejoin="round"/>
<path d="M35.9393 52.9617C35.9393 54.9325 35.672 54.7763 35.344 54.7763C35.016 54.7763 34.7488 54.9325 34.7488 52.9617V40.2341C34.7488 38.2616 35.0143 38.4195 35.344 38.4195C35.672 38.4195 35.9393 38.2616 35.9393 40.2341V52.9617Z" stroke="#A2ABC3" stroke-width="1.8" stroke-miterlimit="10" stroke-linejoin="round"/>
<path d="M35.3439 31.6492C34.4554 31.6492 33.7109 31.0449 33.5009 30.2295C33.4627 30.3788 33.4402 30.5316 33.4402 30.693V35.9255C33.4402 36.9641 34.2923 37.807 35.3439 37.807C36.3956 37.807 37.2477 36.9641 37.2477 35.9255V30.693C37.2477 30.5333 37.2251 30.3788 37.1869 30.2295C36.977 31.0449 36.2325 31.6492 35.3439 31.6492Z" stroke="#A2ABC3" stroke-width="1.8" stroke-miterlimit="10" stroke-linejoin="round"/>
<path d="M37.246 28.7633C37.246 29.8036 36.3939 30.6448 35.3422 30.6448C34.2923 30.6448 33.4385 29.8019 33.4385 28.7633V22.0441C33.4385 21.0055 34.2906 20.1626 35.3422 20.1626C36.3939 20.1626 37.246 21.0055 37.246 22.0441V28.7633Z" stroke="#A2ABC3" stroke-width="1.8" stroke-miterlimit="10" stroke-linejoin="round"/>
<path d="M38.2578 23.9309C38.2578 23.9327 38.2578 27.0468 38.2578 27.0468C38.2578 27.0468 44.8975 28.7772 52.4118 27.0468C54.3225 26.6073 56.0596 26.2571 57.8489 25.3901C58.9265 24.8683 61.2121 23.9515 61.134 22.3704C61.1079 21.8486 60.7036 21.1602 60.3392 20.8237C58.3001 18.9353 54.9021 20.7602 52.7485 21.4211C50.2235 22.1953 47.6741 22.7584 45.0762 23.179C44.4793 23.2769 38.2578 24.0133 38.2578 23.9309Z" stroke="#A2ABC3" stroke-width="1.8" stroke-miterlimit="10" stroke-linejoin="round"/>
<path d="M32.3903 23.9309C32.3903 23.9327 32.3903 27.0468 32.3903 27.0468C32.3903 27.0468 25.7819 28.7772 18.3057 27.0468C16.4055 26.6073 14.677 26.2571 12.8965 25.3901C11.824 24.8683 9.54887 23.9515 9.62696 22.3704C9.65299 21.8486 10.0556 21.1602 10.4166 20.8237C12.447 18.9353 15.8258 20.7602 17.9691 21.4211C20.4819 22.1953 23.0191 22.7584 25.6031 23.179C26.2001 23.2769 32.3903 24.0133 32.3903 23.9309Z" stroke="#A2ABC3" stroke-width="1.8" stroke-miterlimit="10" stroke-linejoin="round"/>
<path d="M32.3904 28.521C32.3904 28.7081 29.0011 29.0377 28.845 29.0532C25.5216 29.3965 22.174 29.3691 18.8438 29.1373C17.3166 29.0309 15.9786 28.8901 14.4567 28.7201C13.1412 28.5794 12.1312 28.4695 10.9564 29.2077C10.3281 29.6025 9.92379 30.5604 10.0088 31.2815C10.1494 32.4849 11.4301 33.2677 12.395 33.6952C13.615 34.2342 14.691 34.5896 16.0185 34.7046C17.7835 34.8556 19.5223 34.8179 21.282 34.6222C22.9237 34.4402 24.529 34.0677 26.103 33.563C27.1477 33.2265 28.1751 32.8334 29.1816 32.3956C29.5582 32.2325 32.3904 31.1561 32.3904 30.8265C32.3904 30.8231 32.3904 28.521 32.3904 28.521Z" stroke="#A2ABC3" stroke-width="1.8" stroke-miterlimit="10" stroke-linejoin="round"/>
<path d="M38.2578 28.521C38.2578 28.7081 41.6644 29.0377 41.8189 29.0532C45.1596 29.3965 48.5245 29.3691 51.8704 29.1373C53.4045 29.0309 54.7512 28.8901 56.2801 28.7201C57.6025 28.5794 58.6177 28.4695 59.7977 29.2077C60.4294 29.6025 60.8338 30.5604 60.7505 31.2815C60.6082 32.4849 59.3222 33.2677 58.3521 33.6952C57.1269 34.2342 56.0441 34.5896 54.7095 34.7046C52.9359 34.8556 51.1866 34.8179 49.42 34.6222C47.7696 34.4402 46.1557 34.0677 44.5747 33.563C43.5231 33.2265 42.4922 32.8334 41.4805 32.3956C41.1022 32.2325 38.2561 31.1561 38.2561 30.8265C38.2578 30.8231 38.2578 28.521 38.2578 28.521Z" stroke="#A2ABC3" stroke-width="1.8" stroke-miterlimit="10" stroke-linejoin="round"/>
</svg>
