<svg width="70" height="70" viewBox="0 0 70 70" fill="none" xmlns="http://www.w3.org/2000/svg">
<path d="M37.1953 33.0728V31.0825C37.1953 30.4085 36.9286 29.9003 36.5266 29.5616C36.1258 29.2239 35.5931 29.0568 35.0625 29.0574C34.5318 29.058 33.9992 29.2263 33.5984 29.5643C33.1964 29.9032 32.9297 30.4108 32.9297 31.0825V31.0825V31.0826V31.0828V31.083V31.0832V31.0835V31.0838V31.0842V31.0846V31.0851V31.0856V31.0861V31.0867V31.0873V31.088V31.0888V31.0895V31.0903V31.0912V31.0921V31.093V31.094V31.095V31.0961V31.0972V31.0984V31.0996V31.1008V31.1021V31.1034V31.1048V31.1062V31.1076V31.1091V31.1106V31.1122V31.1138V31.1154V31.1171V31.1188V31.1206V31.1224V31.1242V31.1261V31.128V31.13V31.132V31.134V31.1361V31.1382V31.1403V31.1425V31.1447V31.147V31.1493V31.1516V31.154V31.1564V31.1588V31.1613V31.1638V31.1663V31.1689V31.1715V31.1742V31.1768V31.1796V31.1823V31.1851V31.1879V31.1908V31.1937V31.1966V31.1995V31.2025V31.2055V31.2086V31.2117V31.2148V31.2179V31.2211V31.2243V31.2276V31.2308V31.2341V31.2375V31.2409V31.2443V31.2477V31.2511V31.2546V31.2582V31.2617V31.2653V31.2689V31.2725V31.2762V31.2799V31.2836V31.2874V31.2911V31.295V31.2988V31.3027V31.3066V31.3105V31.3144V31.3184V31.3224V31.3264V31.3305V31.3346V31.3387V31.3428V31.347V31.3511V31.3554V31.3596V31.3638V31.3681V31.3724V31.3768V31.3811V31.3855V31.3899V31.3943V31.3988V31.4033V31.4078V31.4123V31.4168V31.4214V31.426V31.4306V31.4353V31.4399V31.4446V31.4493V31.454V31.4588V31.4635V31.4683V31.4731V31.4779V31.4828V31.4877V31.4925V31.4974V31.5024V31.5073V31.5123V31.5173V31.5223V31.5273V31.5323V31.5374V31.5425V31.5476V31.5527V31.5578V31.5629V31.5681V31.5733V31.5785V31.5837V31.5889V31.5942V31.5994V31.6047V31.61V31.6153V31.6207V31.626V31.6314V31.6367V31.6421V31.6475V31.6529V31.6584V31.6638V31.6693V31.6747V31.6802V31.6857V31.6912V31.6967V31.7023V31.7078V31.7134V31.719V31.7245V31.7301V31.7357V31.7414V31.747V31.7526V31.7583V31.7639V31.7696V31.7753V31.781V31.7867V31.7924V31.7981V31.8039V31.8096V31.8154V31.8211V31.8269V31.8327V31.8385V31.8442V31.85V31.8559V31.8617V31.8675V31.8733V31.8792V31.885V31.8909V31.8967V31.9026V31.9085V31.9143V31.9202V31.9261V31.932V31.9379V31.9438V31.9497V31.9556V31.9615V31.9675V31.9734V31.9793V31.9852V31.9912V31.9971V32.0031V32.009V32.015V32.0209V32.0269V32.0328V32.0388V32.0447V32.0507V32.0567V32.0626V32.0686V32.0746V32.0805V32.0865V32.0925V32.0985V32.1044V32.1104V32.1164V32.1223V32.1283V32.1343V32.1402V32.1462V32.1522V32.1581V32.1641V32.1701V32.176V32.182V32.1879V32.1939V32.1998V32.2058V32.2117V32.2176V32.2236V32.2295V32.2354V32.2414V32.2473V32.2532V32.2591V32.265V32.2709V32.2768V32.2827V32.2886V32.2945V32.3003V32.3062V32.3121V32.3179V32.3238V32.3296V32.3354V32.3413V32.3471V32.3529V32.3587V32.3645V32.3703V32.3761V32.3818V32.3876V32.3934V32.3991V32.4048V32.4106V32.4163V32.422V32.4277V32.4334V32.4391V32.4447V32.4504V32.456V32.4617V32.4673V32.4729V32.4785V32.4841V32.4897V32.4952V32.5008V32.5063V32.5118V32.5174V32.5229V32.5284V32.5338V32.5393V32.5447V32.5502V32.5556V32.561V32.5664V32.5718V32.5771V32.5825V32.5878V32.5931V32.5984V32.6037V32.609V32.6142V32.6195V32.6247V32.6299V32.6351V32.6403V32.6454V32.6506V32.6557V32.6608V32.6659V32.6709V32.676V32.681V32.686V32.691V32.696V32.7009V32.7059V32.7108V32.7157V32.7205V32.7254V32.7302V32.735V32.7398V32.7446V32.7494V32.7541V32.7588V32.7635V32.7682V32.7728V32.7774V32.782V32.7866V32.7912V32.7957V32.8002V32.8047V32.8091V32.8136V32.818V32.8224V32.8268V32.8311V32.8354V32.8397V32.844V32.8482V32.8525V32.8566V32.8608V32.865V32.8691V32.8732V32.8772V32.8813V32.8853V32.8893V32.8932V32.8972V32.9011V32.9049V32.9088V32.9126V32.9164V32.9202V32.9239V32.9276V32.9313V32.9349V32.9386V32.9421V32.9457V32.9492V32.9527V32.9562V32.9597V32.9631V32.9665V32.9698V32.9731V32.9764V32.9797V32.9829V32.9861V32.9892V32.9924V32.9955V32.9985V33.0016V33.0046V33.0075V33.0105V33.0134V33.0162V33.0191V33.0219V33.0246V33.0274V33.0301V33.0327V33.0353V33.0379V33.0405V33.043V33.0455V33.048V33.0504V33.0527V33.0551V33.0574V33.0597V33.0619V33.0641V33.0663V33.0684V33.0705V33.0725V33.0728H30.9002C29.7238 33.0728 28.7674 34.0115 28.7674 35.1663C28.7674 36.3212 29.7254 37.2598 30.9002 37.2598H32.9297V39.2502C32.9297 39.9253 33.1962 40.433 33.5981 40.7707C33.999 41.1075 34.5317 41.2729 35.0627 41.2713C35.5929 41.2697 36.1255 41.1006 36.5263 40.763C36.9283 40.4245 37.1953 39.9184 37.1953 39.2502V39.2501V39.25V39.2499V39.2497V39.2494V39.2492V39.2488V39.2485V39.248V39.2476V39.2471V39.2465V39.2459V39.2453V39.2446V39.2439V39.2431V39.2423V39.2414V39.2405V39.2396V39.2386V39.2376V39.2365V39.2354V39.2343V39.2331V39.2318V39.2305V39.2292V39.2279V39.2265V39.225V39.2235V39.222V39.2204V39.2188V39.2172V39.2155V39.2138V39.212V39.2102V39.2084V39.2065V39.2046V39.2026V39.2007V39.1986V39.1966V39.1945V39.1923V39.1901V39.1879V39.1857V39.1834V39.181V39.1787V39.1763V39.1738V39.1714V39.1689V39.1663V39.1637V39.1611V39.1585V39.1558V39.1531V39.1503V39.1475V39.1447V39.1419V39.139V39.1361V39.1331V39.1301V39.1271V39.1241V39.121V39.1179V39.1147V39.1115V39.1083V39.1051V39.1018V39.0985V39.0951V39.0918V39.0884V39.085V39.0815V39.078V39.0745V39.0709V39.0674V39.0637V39.0601V39.0564V39.0527V39.049V39.0453V39.0415V39.0377V39.0338V39.03V39.0261V39.0222V39.0182V39.0142V39.0102V39.0062V39.0022V38.9981V38.994V38.9898V38.9857V38.9815V38.9773V38.973V38.9688V38.9645V38.9602V38.9559V38.9515V38.9471V38.9427V38.9383V38.9338V38.9294V38.9249V38.9203V38.9158V38.9112V38.9066V38.902V38.8974V38.8927V38.888V38.8833V38.8786V38.8739V38.8691V38.8643V38.8595V38.8547V38.8498V38.845V38.8401V38.8352V38.8303V38.8253V38.8204V38.8154V38.8104V38.8053V38.8003V38.7952V38.7902V38.7851V38.78V38.7748V38.7697V38.7645V38.7593V38.7541V38.7489V38.7437V38.7385V38.7332V38.7279V38.7226V38.7173V38.712V38.7066V38.7013V38.6959V38.6905V38.6851V38.6797V38.6743V38.6688V38.6634V38.6579V38.6524V38.6469V38.6414V38.6359V38.6304V38.6248V38.6193V38.6137V38.6081V38.6025V38.5969V38.5913V38.5856V38.58V38.5743V38.5687V38.563V38.5573V38.5516V38.5459V38.5402V38.5345V38.5288V38.523V38.5173V38.5115V38.5057V38.5V38.4942V38.4884V38.4826V38.4768V38.471V38.4651V38.4593V38.4535V38.4476V38.4418V38.4359V38.4301V38.4242V38.4183V38.4124V38.4065V38.4006V38.3947V38.3888V38.3829V38.377V38.3711V38.3652V38.3593V38.3533V38.3474V38.3415V38.3355V38.3296V38.3236V38.3177V38.3117V38.3058V38.2998V38.2938V38.2879V38.2819V38.276V38.27V38.264V38.2581V38.2521V38.2461V38.2402V38.2342V38.2282V38.2222V38.2163V38.2103V38.2043V38.1984V38.1924V38.1864V38.1805V38.1745V38.1685V38.1626V38.1566V38.1507V38.1447V38.1388V38.1328V38.1269V38.1209V38.115V38.109V38.1031V38.0972V38.0913V38.0853V38.0794V38.0735V38.0676V38.0617V38.0558V38.0499V38.044V38.0382V38.0323V38.0264V38.0206V38.0147V38.0089V38.003V37.9972V37.9914V37.9855V37.9797V37.9739V37.9681V37.9623V37.9566V37.9508V37.945V37.9393V37.9335V37.9278V37.9221V37.9164V37.9106V37.9049V37.8993V37.8936V37.8879V37.8823V37.8766V37.871V37.8654V37.8597V37.8541V37.8486V37.843V37.8374V37.8319V37.8263V37.8208V37.8153V37.8098V37.8043V37.7988V37.7933V37.7879V37.7825V37.777V37.7716V37.7662V37.7609V37.7555V37.7502V37.7448V37.7395V37.7342V37.7289V37.7236V37.7184V37.7132V37.7079V37.7027V37.6975V37.6924V37.6872V37.6821V37.677V37.6719V37.6668V37.6617V37.6567V37.6516V37.6466V37.6416V37.6367V37.6317V37.6268V37.6219V37.617V37.6121V37.6072V37.6024V37.5976V37.5928V37.588V37.5833V37.5785V37.5738V37.5691V37.5645V37.5598V37.5552V37.5506V37.546V37.5415V37.5369V37.5324V37.5279V37.5235V37.519V37.5146V37.5102V37.5059V37.5015V37.4972V37.4929V37.4886V37.4844V37.4802V37.476V37.4718V37.4677V37.4636V37.4595V37.4554V37.4514V37.4473V37.4434V37.4394V37.4355V37.4316V37.4277V37.4238V37.42V37.4162V37.4125V37.4087V37.405V37.4013V37.3977V37.3941V37.3905V37.3869V37.3834V37.3799V37.3764V37.373V37.3696V37.3662V37.3628V37.3595V37.3562V37.353V37.3497V37.3465V37.3434V37.3403V37.3372V37.3341V37.3311V37.3281V37.3251V37.3222V37.3193V37.3164V37.3136V37.3108V37.308V37.3053V37.3026V37.2999V37.2973V37.2947V37.2921V37.2896V37.2871V37.2847V37.2823V37.2799V37.2775V37.2752V37.273V37.2707V37.2685V37.2664V37.2643V37.2622V37.2601V37.2598H39.2201C40.3948 37.2598 41.3528 36.3212 41.3528 35.1663C41.3528 34.0115 40.3948 33.0728 39.2201 33.0728H37.1953ZM30.4018 35.1679C30.4018 34.8992 30.6253 34.6799 30.9002 34.6799H33.7461C34.1978 34.6799 34.5642 34.3201 34.5642 33.8764V31.0841C34.5642 30.8152 34.7862 30.596 35.0625 30.596C35.3388 30.596 35.5609 30.8152 35.5609 31.0841V33.8764C35.5609 34.3218 35.9289 34.6799 36.3789 34.6799H39.2201C39.4964 34.6799 39.7184 34.8991 39.7184 35.1679C39.7184 35.4367 39.4964 35.6559 39.2201 35.6559H36.3789C35.9272 35.6559 35.5609 36.0157 35.5609 36.4594V39.2517C35.5609 39.5142 35.3324 39.7397 35.0625 39.7397C34.7862 39.7397 34.5642 39.5205 34.5642 39.2517V36.4594C34.5642 36.014 34.1961 35.6559 33.7461 35.6559H30.9002C30.6238 35.6559 30.4018 35.4367 30.4018 35.1679Z" fill="#A2ABC3" stroke="#A2ABC3" stroke-width="0.1"/>
<path d="M47.9721 49.0374L47.972 49.0375C46.9972 49.7003 45.1189 50.2677 42.7244 50.6689C40.3324 51.0698 37.4331 51.3036 34.4228 51.3036C31.5349 51.3036 28.7533 51.091 26.4206 50.7202C24.0861 50.3492 22.2066 49.8205 21.1191 49.1914C20.7316 48.9654 20.2315 49.0925 20.0009 49.4746C19.7697 49.8577 19.9003 50.3496 20.2897 50.5741C21.5202 51.2859 23.5232 51.8691 25.9807 52.2746C28.4395 52.6804 31.358 52.9091 34.4228 52.9091C37.6792 52.9091 40.7273 52.6592 43.2464 52.2158C45.7635 51.7727 47.7585 51.1353 48.9037 50.3567L48.9038 50.3566C49.2727 50.1036 49.3674 49.6034 49.1087 49.2387C48.8521 48.8746 48.3436 48.7866 47.9721 49.0374Z" fill="#A2ABC3" stroke="#A2ABC3" stroke-width="0.1"/>
<path d="M21.305 45.7801C21.2209 45.3446 20.7915 45.0625 20.3489 45.1443L20.3487 45.1443C18.5069 45.4922 16.0385 46.0747 14.0293 46.9613C13.0249 47.4046 12.1323 47.9252 11.49 48.5328C10.8474 49.1407 10.4521 49.8392 10.4521 50.6365C10.4521 51.7291 11.2168 52.6859 12.5169 53.5046C13.8185 54.3242 15.6681 55.0133 17.8653 55.568C22.2605 56.6775 28.0595 57.2527 33.6804 57.2527C39.3005 57.2527 45.0991 56.6775 49.4941 55.568C51.6912 55.0133 53.5408 54.3242 54.8423 53.5046C56.1424 52.6859 56.9071 51.7291 56.9071 50.6365C56.9071 49.239 55.7162 48.145 54.0608 47.2973C52.4012 46.4474 50.2537 45.834 48.2978 45.4058L48.2976 45.4057C47.8598 45.3121 47.4222 45.581 47.3229 46.0145L47.3228 46.0147C47.2252 46.4484 47.5029 46.8757 47.9429 46.9727L47.9429 46.9728C50.6604 47.5668 52.4978 48.2513 53.6544 48.9061C54.2328 49.2335 54.6391 49.5524 54.9002 49.8473C55.1617 50.1426 55.2743 50.4098 55.2743 50.6349C55.2743 50.8823 55.1537 51.148 54.9069 51.4257C54.6603 51.7032 54.2911 51.9886 53.8029 52.2738C52.8267 52.8441 51.383 53.4093 49.5178 53.9093C45.7881 54.909 40.3816 55.6457 33.6804 55.6457C26.9784 55.6457 21.5719 54.909 17.8424 53.9093C15.9774 53.4093 14.5338 52.8441 13.5577 52.2738C13.0696 51.9886 12.7004 51.7032 12.4538 51.4257C12.2071 51.148 12.0865 50.8823 12.0865 50.6349C12.0865 50.3631 12.2424 50.0521 12.5807 49.7179C12.9183 49.3845 13.432 49.0334 14.134 48.6822C15.5378 47.9798 17.6858 47.2809 20.6575 46.7198L20.6575 46.7198C21.0992 46.6361 21.3906 46.2156 21.305 45.7801ZM21.305 45.7801C21.305 45.7801 21.305 45.7801 21.3049 45.78L21.2559 45.7897L21.305 45.7802C21.305 45.7802 21.305 45.7802 21.305 45.7801Z" fill="#A2ABC3" stroke="#A2ABC3" stroke-width="0.1"/>
<path d="M57.6837 18.2848L57.6838 18.2848C57.948 18.2292 58.2041 18.3153 58.3892 18.4769C58.5776 18.6402 58.6947 18.8865 58.6723 19.145L58.6722 19.1458L58.6708 19.1598C58.6506 19.3573 58.4987 20.8444 58.1657 22.6016C57.8235 24.408 57.2883 26.5086 56.5037 27.7845L56.5037 27.7846C55.3113 29.7111 53.3501 30.9152 51.3785 30.9152C50.7306 30.9152 50.1008 30.7762 49.5343 30.5096C48.9404 31.6621 48.4172 32.8368 47.9588 33.9652C48.8259 35.694 49.298 37.5296 48.9472 39.4274L48.9472 39.4274C48.4029 42.3636 46.0246 44.9686 41.7077 47.3853C40.113 48.6619 37.9904 49.3806 35.0257 49.3806C31.0153 49.3806 27.9846 48.3258 25.9571 46.2223C23.9298 44.1192 22.9135 40.976 22.9135 36.8163C22.9135 31.9622 25.672 26.2904 28.4821 21.7697C31.2937 17.2467 34.1636 13.8659 34.3976 13.5913M57.6837 18.2848L34.4356 13.6237M57.6837 18.2848C57.2746 18.3723 55.2743 18.8232 53.1737 19.5801C52.1234 19.9586 51.0467 20.4141 50.1307 20.9397C49.2159 21.4646 48.456 22.0624 48.0458 22.7279L48.0458 22.7279C46.6014 25.0725 46.7186 27.8636 48.1931 29.5184M57.6837 18.2848L48.1931 29.5184M34.3976 13.5913L34.4356 13.6237M34.3976 13.5913C34.3976 13.5913 34.3976 13.5913 34.3975 13.5913L34.4356 13.6237M34.3976 13.5913C34.5586 13.4021 34.8082 13.3069 35.0516 13.3104C35.2952 13.314 35.5392 13.4166 35.6856 13.6314M34.4356 13.6237C34.7355 13.2714 35.3736 13.2619 35.6446 13.6599M35.6856 13.6314C35.6855 13.6312 35.6854 13.6311 35.6854 13.631L35.6446 13.6599M35.6856 13.6314C35.6881 13.6349 35.6952 13.6446 35.7067 13.6603C35.8251 13.8221 36.4089 14.6198 37.2572 15.8782M35.6856 13.6314C35.6857 13.6315 35.6858 13.6316 35.6859 13.6318L35.6446 13.6599M35.6446 13.6599L37.2572 15.8782M37.2572 15.8782C37.2572 15.8782 37.2572 15.8782 37.2572 15.8782L37.2159 15.9063L37.2573 15.8784C37.2573 15.8783 37.2573 15.8783 37.2572 15.8782ZM37.2572 15.8782C37.4031 16.0926 37.429 16.3112 37.3731 16.5046C37.3175 16.6964 37.1825 16.8592 37.0134 16.9676C36.8442 17.076 36.6376 17.1321 36.4355 17.1065C36.2322 17.0808 36.0364 16.9727 35.8918 16.7587L35.8917 16.7586C35.5369 16.2327 35.2314 15.7879 34.9862 15.4403M37.2572 15.8782L35.9332 16.7307C35.5743 16.1987 35.2657 15.7495 35.0188 15.3998C35.0081 15.4131 34.9972 15.4266 34.9862 15.4403M34.9862 15.4403C33.7916 16.9266 31.2044 20.2931 28.9046 24.2611C26.5765 28.2778 24.5479 32.9024 24.5479 36.8148C24.5479 40.5635 25.3832 43.3006 27.1049 45.1009C28.8261 46.9007 31.4423 47.7735 35.0257 47.7735C37.7701 47.7735 39.6319 47.1045 41.0036 45.8633C42.3767 44.6207 43.2647 42.7992 44.0496 40.4801M34.9862 15.4403C34.9761 15.426 34.9661 15.4118 34.9562 15.3978C32.5625 18.3746 24.4979 28.9976 24.4979 36.8148C24.4979 44.3249 27.8442 47.8235 35.0257 47.8235C40.5316 47.8235 42.5262 45.1382 44.0975 40.4943M44.0496 40.4801L38.404 19.7322C37.8973 19.4239 37.1004 19.4191 37.0652 20.2073C37.0591 20.3583 37.0519 20.5108 37.0447 20.6645C37.0367 20.8357 37.0286 21.0085 37.0219 21.1826M44.0496 40.4801C44.0498 40.4795 44.05 40.4789 44.0502 40.4783L44.0975 40.4943M44.0496 40.4801C44.0494 40.4807 44.0492 40.4813 44.0491 40.482L44.0975 40.4943M44.0975 40.4943C44.1969 40.1042 44.9088 37.3449 46.2156 34.0209M46.2156 34.0209C45.6576 33.0393 44.9569 32.0749 44.221 31.1421C43.5957 31.4551 42.9624 31.6124 42.3306 31.6124C40.9437 31.6124 39.6001 30.8369 38.5499 29.4211M46.2156 34.0209L46.1691 34.0026C46.1661 34.01 46.1632 34.0174 46.1603 34.0249C46.1643 34.0318 46.1682 34.0387 46.1721 34.0456L46.2156 34.0209ZM38.5499 29.4211C38.3847 29.1993 38.2244 28.9696 38.0833 28.7289M38.5499 29.4211L38.5098 29.4509C38.5098 29.4509 38.5097 29.4509 38.5097 29.4509M38.5499 29.4211L38.5097 29.4509M38.0833 28.7289C36.7397 26.4825 36.8872 23.6697 37.0219 21.1826M38.0833 28.7289L38.0402 28.7542C38.0402 28.7542 38.0402 28.7543 38.0403 28.7544M38.0833 28.7289L38.0404 28.7546C38.0403 28.7545 38.0403 28.7544 38.0403 28.7544M37.0219 21.1826L36.9719 21.1799C36.9719 21.18 36.9719 21.1802 36.9719 21.1803M37.0219 21.1826L36.9719 21.1807C36.9719 21.1805 36.9719 21.1804 36.9719 21.1803M36.9719 21.1803C36.9786 21.0073 36.9868 20.8335 36.9948 20.6616C37.002 20.5074 37.0092 20.3547 37.0152 20.2053L37.0152 20.205C37.0244 19.9995 37.0836 19.8409 37.1795 19.7253C37.2754 19.6097 37.4047 19.5411 37.547 19.5097C37.8297 19.4475 38.1687 19.5305 38.43 19.6895L38.43 19.6895C38.9076 19.9813 39.4195 20.2256 39.9373 20.4676C39.9825 20.4887 40.0278 20.5098 40.0731 20.5309C40.5456 20.7513 41.0208 20.9729 41.4734 21.2288M36.9719 21.1803C36.8374 23.6638 36.6876 26.4927 38.0403 28.7544M41.4734 21.2288L44.2069 31.2049C43.5871 31.509 42.9586 31.6624 42.3306 31.6624C40.9238 31.6624 39.5666 30.8757 38.5097 29.4509M41.4734 21.2288C41.4734 21.2287 41.4733 21.2287 41.4733 21.2287L41.4488 21.2723L41.4734 21.2288ZM41.4734 21.2288C42.509 21.8123 43.5509 22.4337 44.3759 23.305C44.909 23.8677 45.4154 24.7078 45.7516 25.6486C46.0879 26.5895 46.2554 27.6351 46.1063 28.609L46.1062 28.6095C46.008 29.2171 45.7935 29.7507 45.4629 30.1911M41.4734 21.2288L45.3995 30.1919M38.0403 28.7544C38.1826 28.9972 38.3441 29.2284 38.5097 29.4509M45.4629 30.1911C45.4548 30.181 45.4466 30.1708 45.4385 30.1607L45.3995 30.1919M45.4629 30.1911C45.455 30.2016 45.4471 30.212 45.4391 30.2224L45.3995 30.1919M45.4629 30.1911C45.976 30.8333 46.4717 31.4974 46.925 32.1885M45.3995 30.1919C45.9274 30.8512 46.4369 31.5331 46.9012 32.2434C46.9091 32.2251 46.9171 32.2068 46.925 32.1885M46.925 32.1885C47.3101 31.3037 47.7295 30.409 48.1931 29.5184M46.925 32.1885C46.936 32.2052 46.9469 32.2219 46.9578 32.2386C47.3505 31.3346 47.7789 30.4204 48.2535 29.5107M48.1931 29.5184C48.1985 29.5081 48.2038 29.4979 48.2091 29.4876L48.2535 29.5107M48.1931 29.5184C48.2009 29.5271 48.2086 29.5357 48.2164 29.5443L48.2535 29.5107M48.1931 29.5184L48.2535 29.5107M44.4826 28.3646L44.4826 28.3641C44.5852 27.7033 44.4588 26.9231 44.2049 26.2009C43.951 25.4789 43.5718 24.821 43.1747 24.4043L43.1746 24.4042C42.3219 23.5067 41.0344 22.8057 39.8911 22.1849L39.8906 22.1847L39.8905 22.1846L39.8871 22.1829L39.8736 22.1761L39.8239 22.1511C39.782 22.13 39.7241 22.101 39.6606 22.0694C39.5334 22.0061 39.3838 21.9326 39.2924 21.8904C39.1447 21.8243 39.0067 21.7609 38.8773 21.7013L38.8424 21.6853C38.7508 21.6431 38.6635 21.603 38.5801 21.5651C38.5263 22.651 38.4803 23.7905 38.5754 24.8792C38.6727 25.9924 38.9172 27.0486 39.449 27.9371L39.4494 27.9378C39.5636 28.1355 39.6924 28.3258 39.8262 28.5055C40.3585 29.2192 41.2177 30.057 42.3274 30.057C42.5896 30.057 42.8614 30.0119 43.1354 29.9104C42.9168 29.6401 42.6916 29.3752 42.4675 29.1155L42.4674 29.1153C42.116 28.7045 41.7791 28.3016 41.4536 27.9098L41.4532 27.9093C41.1729 27.5622 41.2242 27.0601 41.578 26.7784L41.5784 26.7781C41.9312 26.5038 42.4414 26.5536 42.7283 26.9005C43.0473 27.2858 43.379 27.6836 43.7218 28.086C43.7219 28.086 43.7219 28.0861 43.7219 28.0861L43.6839 28.1185L44.4826 28.3646ZM44.4826 28.3646C44.4573 28.5396 44.414 28.6975 44.3577 28.8375L44.4826 28.3646ZM47.3369 39.137L47.3369 39.1369C47.5235 38.1398 47.4206 37.1472 47.1124 36.1692C46.1776 38.7499 45.6759 40.711 45.6319 40.8827C45.6307 40.8873 45.6299 40.8906 45.6294 40.8926C45.6245 40.916 45.6182 40.9345 45.6127 40.9504C45.6119 40.9526 45.6112 40.9548 45.6104 40.9569C45.6104 40.957 45.6104 40.9571 45.6104 40.9572L45.563 40.9411C45.2637 41.8356 44.9382 42.6758 44.5685 43.451L47.3369 39.137ZM47.3369 39.137C47.0682 40.5824 46.1748 41.9994 44.6644 43.3651L47.3369 39.137ZM55.1022 26.9487L55.1021 26.9487C54.2191 28.3895 52.7537 29.3097 51.3752 29.3097C50.9846 29.3097 50.622 29.2339 50.2911 29.084C51.4496 27.0521 52.8124 25.2039 54.3645 23.978L54.3646 23.9778C54.7184 23.6962 54.7697 23.1941 54.4894 22.847L54.489 22.8466C54.2021 22.4997 53.6919 22.4499 53.3391 22.7241L53.3388 22.7244C51.7002 24.0215 50.2745 25.8949 49.0621 27.9452C48.4145 26.7794 48.5107 25.0632 49.4424 23.5544L49.4425 23.5543C49.6481 23.2192 50.0416 22.8797 50.5667 22.5469C51.0908 22.2149 51.7413 21.8925 52.4554 21.5901C53.8595 20.9954 55.505 20.4797 56.9085 20.1199C56.7909 20.998 56.5917 22.2778 56.3004 23.5441C56.0005 24.8476 55.6042 26.1311 55.1022 26.9487Z" fill="#A2ABC3" stroke="#A2ABC3" stroke-width="0.1"/>
</svg>
