<svg width="70" height="70" viewBox="0 0 70 70" fill="none" xmlns="http://www.w3.org/2000/svg">
<path d="M56.2099 37.0889H42.0965C41.6267 37.0889 41.2459 36.708 41.2459 36.2382C41.2459 35.7684 41.6267 35.3876 42.0965 35.3876H56.2099C56.9178 35.3876 57.4923 34.8164 57.4923 34.1125C57.4923 33.4087 56.9178 32.8375 56.2099 32.8375H16.0189C15.311 32.8375 14.7365 33.4087 14.7365 34.1125C14.7365 34.8164 15.311 35.3876 16.0189 35.3876H21.5822C22.052 35.3876 22.4328 35.7684 22.4328 36.2382C22.4328 36.708 22.052 37.0889 21.5822 37.0889H16.0189C14.3683 37.0889 13.0254 35.7537 13.0254 34.1125C13.0254 32.4714 14.3683 31.1362 16.0189 31.1362H56.2099C57.8605 31.1362 59.2034 32.4714 59.2034 34.1125C59.2034 35.7537 57.8605 37.0889 56.2099 37.0889Z" fill="#A2ABC3"/>
<path d="M25.8326 36.2773V36.0969C25.8326 35.6486 25.4691 35.2852 25.0208 35.2852C24.5725 35.2852 24.2091 35.6486 24.2091 36.0969V36.2773C24.2091 36.7256 24.5725 37.089 25.0208 37.089C25.4691 37.089 25.8326 36.7256 25.8326 36.2773Z" fill="#A2ABC3"/>
<path d="M17.3799 47.1905C15.9737 47.1905 14.8292 46.0414 14.8292 44.6294C14.8292 43.5851 15.4519 42.6544 16.4159 42.2601L35.1233 34.5751C35.4328 34.449 35.7583 34.3833 36.0891 34.3833C37.4953 34.3833 38.6398 35.5324 38.6398 36.9444C38.6398 37.9887 38.0171 38.9194 37.0531 39.3137L18.3457 46.9987C18.0362 47.1248 17.7107 47.1905 17.3799 47.1905ZM36.0891 36.0901C35.9812 36.0901 35.8733 36.1114 35.7689 36.154L17.0597 43.8408C16.7378 43.9723 16.5291 44.2813 16.5291 44.6294C16.5291 45.2084 17.1411 45.6471 17.7001 45.4198L36.4092 37.7347C36.7312 37.6033 36.9399 37.2943 36.9399 36.9462C36.9399 36.472 36.5578 36.0901 36.0891 36.0901Z" fill="#A2ABC3"/>
<path d="M18.0637 41.9177L17.3853 36.9043C17.3221 36.4373 16.8923 36.11 16.4254 36.1732C15.9584 36.2364 15.6311 36.6662 15.6942 37.1331L16.3726 42.1465C16.4358 42.6135 16.8656 42.9408 17.3326 42.8776C17.7996 42.8144 18.1269 42.3846 18.0637 41.9177Z" fill="#A2ABC3"/>
<path d="M50.8957 56.5705H21.3385C19.6445 56.5705 18.1962 55.3019 17.9681 53.6204L17.1075 47.246C17.0447 46.7808 17.3707 46.3527 17.8359 46.2896C18.3014 46.2265 18.7299 46.5529 18.7928 47.0184L19.6533 53.3919C19.7665 54.2335 20.4915 54.866 21.3385 54.866H50.8957C51.7392 54.866 52.4624 54.2352 52.5809 53.3954L54.8777 36.8487C54.9423 36.3837 55.3715 36.0592 55.8364 36.1238C56.3012 36.1884 56.6257 36.6175 56.5612 37.0823L54.2643 53.6293C54.0309 55.309 52.5826 56.5705 50.8957 56.5705Z" fill="#A2ABC3"/>
<path d="M52.6314 24.3635C51.8706 24.9419 50.7616 24.5836 50.4629 23.6758C50.2525 23.0362 49.6032 22.6374 48.9394 22.7497L48.491 22.8255C48.0705 22.8966 47.6627 22.6436 47.5397 22.2352C47.3769 21.6996 47.2981 21.2119 47.2981 20.7401C47.2981 17.9185 49.5635 15.6235 52.3488 15.6235C55.1342 15.6235 57.3995 17.9185 57.3995 20.7401V21.6404C57.3995 22.5333 56.5003 23.1459 55.6694 22.8189C55.2577 22.6569 54.7913 22.7215 54.4392 22.9892L52.6314 24.3635ZM50.3964 20.7753C50.8789 20.6939 51.3485 20.9771 51.5015 21.4419C51.7142 22.0877 52.4995 22.3319 53.0409 21.9206L54.5115 20.8035C54.6547 20.6948 54.8441 20.6684 55.0115 20.734L55.4644 20.9114C55.585 20.9586 55.7154 20.8697 55.7154 20.7401C55.7154 18.8584 54.2063 17.3297 52.3488 17.3297C50.4913 17.3297 48.9823 18.8584 48.9823 20.7401C48.9823 20.8869 49.1196 20.9907 49.2643 20.9663L50.3964 20.7753Z" fill="#A2ABC3"/>
<path d="M56.8807 31.4084C56.7516 31.8583 56.2597 32.0819 55.8225 31.9149C55.3962 31.7521 55.1822 31.2783 55.3046 30.8387C55.5869 29.8246 55.7298 28.7498 55.7298 27.6346V23.1327C55.7298 22.6716 56.1036 22.2979 56.5647 22.2979C57.0258 22.2979 57.3995 22.6716 57.3995 23.1327V27.6328C57.3981 28.9462 57.2243 30.2111 56.8807 31.4084Z" fill="#A2ABC3"/>
<path d="M33.7489 31.1899C33.7009 31.6584 33.2822 31.9993 32.8137 31.9512C32.3453 31.9032 32.0044 31.4846 32.0524 31.0161L32.7012 24.6789C32.9317 22.4968 34.7451 20.8545 36.922 20.8545C37.2428 20.8545 37.5761 20.8989 37.9431 20.9894L41.359 21.8452C43.2611 22.3193 44.5924 24.0184 44.5924 25.975C44.5924 26.7584 44.3994 27.6123 44.052 28.4071C43.8633 28.8388 43.3341 28.9684 42.9304 28.7255C42.5275 28.4831 42.4039 27.961 42.5739 27.5226C42.7758 27.0023 42.8888 26.459 42.8888 25.975C42.8888 24.8032 42.0911 23.7858 40.9495 23.5017L37.5353 22.646C37.3031 22.5891 37.1081 22.5625 36.9238 22.5625C35.6208 22.5625 34.536 23.5479 34.3977 24.8564L33.7489 31.1899Z" fill="#A2ABC3"/>
<path d="M36.3195 25.0971L34.6227 24.5682C34.1728 24.4279 33.6944 24.6789 33.5542 25.1288C33.414 25.5787 33.665 26.057 34.1148 26.1973L35.8117 26.7262C36.2616 26.8664 36.7399 26.6154 36.8802 26.1656C37.0204 25.7157 36.7694 25.2373 36.3195 25.0971Z" fill="#A2ABC3"/>
<path d="M43.5603 22.5596C43.4317 23.0101 42.9816 23.2992 42.5239 23.1992C42.0618 23.0983 41.7681 22.6397 41.8957 22.1842C42.0569 21.6085 42.2482 21.0447 42.4693 20.4935C43.0428 19.0638 42.102 17.7362 41.0329 18.8453C40.66 19.232 40.0254 19.1859 39.7151 18.7474C39.0417 17.7975 38.072 18.7682 38.4041 19.8843C38.5051 20.224 38.5854 20.5631 38.6383 20.8957C38.7122 21.361 38.3275 21.7448 37.8563 21.7448C37.3852 21.7448 37.002 21.36 36.9036 20.8992C36.5673 19.3242 35.4489 17.3401 34.6159 16.2484C34.1952 15.6967 34.6031 14.9019 35.297 14.9019C36.6043 14.9019 37.9084 15.2691 39.0172 15.9088C39.9228 16.4313 41.083 16.4521 42.0563 16.0703C42.5732 15.8676 43.1585 15.7413 43.8246 15.7413C44.4986 15.7413 45.1708 15.8567 45.8253 16.0858C46.367 16.2757 46.5674 16.9448 46.2119 17.3956C44.9861 18.9541 44.0948 20.6875 43.5603 22.5596Z" fill="#A2ABC3"/>
<path d="M14.6999 26.8071C12.3436 26.8071 10.5 24.9394 10.5 22.5551C10.5 20.2116 12.4936 18.3031 14.941 18.3031H15.109C15.9914 18.3031 16.8293 17.8026 17.3527 16.9642C18.1709 15.6536 19.4285 14.9019 20.8058 14.9019C22.2699 14.9019 23.6108 15.7786 24.3944 17.1942C24.6248 17.6104 24.3855 18.1091 23.9373 18.2685C23.4927 18.4266 23.014 18.1863 22.7554 17.7915C22.2703 17.0511 21.5584 16.6034 20.8058 16.6034C20.0377 16.6034 19.3106 17.0597 18.814 17.8574C17.9762 19.2016 16.5917 20.0046 15.109 20.0046H14.941C13.6316 20.0046 12.2167 20.981 12.2167 22.5551C12.2167 23.7048 12.8836 24.631 13.8622 24.9683C14.3065 25.1214 14.6981 25.4865 14.6981 25.9564V26.8053C14.6981 26.8063 14.6989 26.8071 14.6999 26.8071Z" fill="#A2ABC3"/>
<path d="M13.5935 29.5013C13.3972 29.7047 13.0712 29.7045 12.8751 29.5008C12.5023 29.1153 12.3038 28.6079 12.3038 28.0396C12.3038 27.3583 12.5903 26.763 13.1098 26.365C13.6138 25.978 14.3923 25.2379 14.6803 24.2C14.8029 23.7583 15.1641 23.3799 15.6225 23.3799C16.081 23.3799 16.4603 23.7544 16.3831 24.2063C16.0809 25.9746 14.8632 27.1624 14.0969 27.7509C14.0037 27.8226 13.964 27.9105 13.964 28.0396C13.964 28.1758 14.0037 28.235 14.0486 28.2816C14.2499 28.4907 14.2497 28.8217 14.0481 29.0305L13.5935 29.5013Z" fill="#A2ABC3"/>
<path d="M25.8737 22.3934C25.4147 22.4869 25.0311 22.0983 25.0311 21.6298C25.0311 21.1614 25.4214 20.7955 25.8636 20.641C26.8545 20.2948 27.5676 19.3487 27.5676 18.239C27.5676 16.8372 26.4295 15.6963 25.0311 15.6963C24.5281 15.6963 24.0486 15.8423 23.6417 16.1102C23.2499 16.3681 22.721 16.4535 22.3504 16.166C21.9819 15.88 21.9093 15.3415 22.2607 15.0348C23.0223 14.3699 23.9964 14 25.0311 14C27.3618 14 29.2598 15.9008 29.2598 18.239C29.2598 20.2878 27.8025 22.0008 25.8737 22.3934Z" fill="#A2ABC3"/>
<path d="M26.8122 31.0074C26.8122 31.4772 26.4314 31.858 25.9616 31.858C25.4918 31.858 25.111 31.4772 25.111 31.0074V28.0096C25.111 27.3054 25.6818 26.7345 26.386 26.7345C28.0272 26.7345 29.3623 25.3932 29.3623 23.7446C29.3623 22.8266 28.9487 21.9803 28.2627 21.4219C27.898 21.125 27.6823 20.6345 27.8636 20.2006C28.0456 19.7652 28.5526 19.5543 28.9472 19.813C30.2539 20.6697 31.0636 22.136 31.0636 23.7464C31.0636 25.6189 29.9674 27.2395 28.3856 27.9931C27.5474 28.3925 26.8122 29.1352 26.8122 30.0636V31.0074Z" fill="#A2ABC3"/>
<path d="M23.0526 30.9677L22.6191 27.0644C22.567 26.5961 22.1452 26.2586 21.6769 26.3106C21.2085 26.3626 20.871 26.7844 20.9231 27.2528L21.3566 31.156C21.4086 31.6244 21.8305 31.9619 22.2988 31.9099C22.7671 31.8578 23.1046 31.436 23.0526 30.9677Z" fill="#A2ABC3"/>
<path d="M20.7405 27.6232C20.2716 27.7181 19.8799 27.3213 19.8799 26.8429C19.8799 26.3645 20.2784 25.9907 20.7303 25.8336C21.4791 25.5733 22.0733 24.9791 22.3336 24.2303C22.4907 23.7784 22.8645 23.3799 23.3429 23.3799C23.8213 23.3799 24.2181 23.7716 24.1232 24.2405C23.7796 25.939 22.439 27.2796 20.7405 27.6232Z" fill="#A2ABC3"/>
<path d="M31.3238 23.1165C30.8955 23.3262 30.3564 23.2357 30.088 22.8415C29.8282 22.4597 29.9188 21.9355 30.324 21.714C31.3335 21.1621 32.4803 20.8545 33.5707 20.8545C34.0121 20.8545 34.5027 20.9168 34.9552 21.024C35.4083 21.1314 35.6114 21.6261 35.4344 22.0567C35.2533 22.4972 34.7407 22.7074 34.271 22.6288C34.033 22.5889 33.7896 22.5663 33.5707 22.5663C32.835 22.5676 32.0388 22.7663 31.3238 23.1165Z" fill="#A2ABC3"/>
<path d="M41.327 31.4754C41.0653 31.8661 40.5656 32.062 40.1368 31.8688C39.7085 31.6756 39.5136 31.1683 39.7587 30.7675C40.7988 29.0669 42.4733 27.9852 44.0987 26.9362C45.9884 25.7175 47.6517 24.6426 48.0372 22.7827C48.1326 22.3224 48.5022 21.937 48.9723 21.937C49.4424 21.937 49.831 22.3205 49.7673 22.7863C49.3895 25.5479 47.1729 26.9799 45.0225 28.3694C43.5677 29.3063 42.1811 30.2003 41.327 31.4754Z" fill="#A2ABC3"/>
</svg>
