<svg width="70" height="70" viewBox="0 0 70 70" fill="none" xmlns="http://www.w3.org/2000/svg">
<path d="M19.25 32.0491H32.4509M32.4509 32.0491C33.1938 31.6388 33.7061 30.8905 33.7061 30.0216C33.7061 28.7181 32.6046 27.6802 31.2214 27.6802C31.1701 27.6802 31.1445 27.6802 31.1189 27.6802C31.1189 27.6078 31.1445 27.5112 31.1445 27.4388C31.1445 25.9181 29.8381 24.6871 28.2243 24.6871C27.5071 24.6871 26.8411 24.9526 26.3544 25.3388C25.8933 24.3491 24.843 23.625 23.6135 23.625C23.3061 23.625 22.9987 23.6733 22.7169 23.7457M32.4509 32.0491L40.5712 32.0612L48.6914 32.0733C51.7653 32.0733 54.25 34.4147 54.25 37.3112V51.625" stroke="#A2ABC3" stroke-width="1.8" stroke-linecap="round" stroke-linejoin="round"/>
<path d="M39.4484 31.8865C40.4817 31.8865 41.2935 31.0294 41.2935 30.0533C41.2935 29.0533 40.4571 28.1248 39.4484 28.1248C39.2024 28.1248 38.9564 28.1724 38.735 28.2677C38.4644 27.3392 37.6033 26.6487 36.5946 26.5535C36.447 26.5297 36.324 26.5297 36.1764 26.5535C35.2907 26.6249 34.5527 27.1249 34.1591 27.8153" stroke="#A2ABC3" stroke-width="1.8" stroke-linecap="round" stroke-linejoin="round"/>
<path d="M37.7263 51.5066V37.1429C37.7263 34.2363 35.4458 31.8867 32.6246 31.8867H32.1074H24.3491" stroke="#A2ABC3" stroke-width="1.8" stroke-linecap="round" stroke-linejoin="round"/>
<path d="M40.4016 39.9131V43.4803" stroke="#A2ABC3" stroke-width="1.8" stroke-linecap="round" stroke-linejoin="round"/>
<path d="M28 38.5V42" stroke="#A2ABC3" stroke-width="1.8" stroke-linecap="round" stroke-linejoin="round"/>
<path d="M51.9952 39.021V43.48" stroke="#A2ABC3" stroke-width="1.8" stroke-linecap="round" stroke-linejoin="round"/>
<path d="M48.125 41.6968V47.9395" stroke="#A2ABC3" stroke-width="1.8" stroke-linecap="round" stroke-linejoin="round"/>
<path d="M43.0771 45.2637V47.9391" stroke="#A2ABC3" stroke-width="1.8" stroke-linecap="round" stroke-linejoin="round"/>
<path d="M32.375 43.75V46.375" stroke="#A2ABC3" stroke-width="1.8" stroke-linecap="round" stroke-linejoin="round"/>
<path d="M43.0771 37.2373V41.6964" stroke="#A2ABC3" stroke-width="1.8" stroke-linecap="round" stroke-linejoin="round"/>
<path d="M32.375 35.875L32.375 40.25" stroke="#A2ABC3" stroke-width="1.8" stroke-linecap="round" stroke-linejoin="round"/>
<path d="M16.9954 55.3271C16.4024 56.774 14.9793 57.794 13.3427 57.794" stroke="#A2ABC3" stroke-width="1.8" stroke-linecap="round" stroke-linejoin="round"/>
<path d="M23.9689 55.9675C23.2573 57.0586 22.0477 57.7702 20.6482 57.7702C19.0116 57.7702 17.6121 56.7739 17.0192 55.3745" stroke="#A2ABC3" stroke-width="1.8" stroke-linecap="round" stroke-linejoin="round"/>
<path d="M38.3426 55.3271C37.7496 56.774 36.3265 57.794 34.6898 57.794C33.0532 57.794 31.6538 56.7977 31.0608 55.3983" stroke="#A2ABC3" stroke-width="1.8" stroke-linecap="round" stroke-linejoin="round"/>
<path d="M45.6958 55.3271C45.1028 56.774 43.6796 57.794 42.043 57.794C40.4064 57.794 39.0069 56.7977 38.4139 55.3983" stroke="#A2ABC3" stroke-width="1.8" stroke-linecap="round" stroke-linejoin="round"/>
<path d="M53.0724 55.3271C52.4794 56.774 51.0562 57.794 49.4196 57.794C47.7829 57.794 46.3835 56.7977 45.7905 55.3983" stroke="#A2ABC3" stroke-width="1.8" stroke-linecap="round" stroke-linejoin="round"/>
<path d="M60.5914 55.3271C59.9984 56.774 58.5753 57.794 56.9386 57.794C55.302 57.794 53.9026 56.7977 53.3096 55.3983" stroke="#A2ABC3" stroke-width="1.8" stroke-linecap="round" stroke-linejoin="round"/>
<path d="M30.9897 55.3271C30.3968 56.774 28.9736 57.794 27.337 57.794C25.9138 57.794 24.6804 57.0587 23.9926 55.9201" stroke="#A2ABC3" stroke-width="1.8" stroke-linecap="round" stroke-linejoin="round"/>
<path d="M13.0817 50.6304C12.4887 52.0772 11.0656 53.0972 9.42896 53.0972" stroke="#A2ABC3" stroke-width="1.8" stroke-linecap="round" stroke-linejoin="round"/>
<path d="M20.0552 51.2707C19.3436 52.3618 18.134 53.0734 16.7345 53.0734C15.0979 53.0734 13.6985 52.0772 13.1055 50.6777" stroke="#A2ABC3" stroke-width="1.8" stroke-linecap="round" stroke-linejoin="round"/>
<path d="M34.429 50.6304C33.8361 52.0772 32.4129 53.0972 30.7763 53.0972C29.1396 53.0972 27.7402 52.101 27.1472 50.7015" stroke="#A2ABC3" stroke-width="1.8" stroke-linecap="round" stroke-linejoin="round"/>
<path d="M41.8059 50.6304C41.2129 52.0772 39.7897 53.0972 38.1531 53.0972C36.5165 53.0972 35.117 52.101 34.524 50.7015" stroke="#A2ABC3" stroke-width="1.8" stroke-linecap="round" stroke-linejoin="round"/>
<path d="M49.1588 50.6304C48.5658 52.0772 47.1426 53.0972 45.506 53.0972C43.8694 53.0972 42.4699 52.101 41.877 50.7015" stroke="#A2ABC3" stroke-width="1.8" stroke-linecap="round" stroke-linejoin="round"/>
<path d="M56.6303 50.6304C56.0374 52.0772 54.6142 53.0972 52.9776 53.0972C51.3409 53.0972 49.9415 52.101 49.3485 50.7015" stroke="#A2ABC3" stroke-width="1.8" stroke-linecap="round" stroke-linejoin="round"/>
<path d="M27.076 50.6304C26.4831 52.0772 25.0599 53.0972 23.4233 53.0972C22.0001 53.0972 20.7667 52.3619 20.0789 51.2234" stroke="#A2ABC3" stroke-width="1.8" stroke-linecap="round" stroke-linejoin="round"/>
<path d="M61.25 41.4834L62.0565 40.25" stroke="#A2ABC3" stroke-width="1.8" stroke-linecap="round" stroke-linejoin="round"/>
<path d="M57.75 46.4145L59.6001 43.6631" stroke="#A2ABC3" stroke-width="1.8" stroke-linecap="round" stroke-linejoin="round"/>
<path d="M59.0782 47.7429L63.9407 43.7817" stroke="#A2ABC3" stroke-width="1.8" stroke-linecap="round" stroke-linejoin="round"/>
<path d="M15.75 32.375C15.731 40.7914 14.9511 49.4369 14.875 52.5" stroke="#A2ABC3" stroke-width="1.8" stroke-linecap="round" stroke-linejoin="round"/>
<path d="M15.4916 24.2783C15.539 26.1759 15.5627 29.1645 15.5627 32.5089" stroke="#A2ABC3" stroke-width="1.8" stroke-linecap="round" stroke-linejoin="round"/>
<path d="M19.25 25.375C18.375 35.875 20.5454 47.1814 21 52.5" stroke="#A2ABC3" stroke-width="1.8" stroke-linecap="round" stroke-linejoin="round"/>
<path d="M12.0522 25.0137C12.1708 28.5241 12.9299 31.7974 15.4678 32.5327" stroke="#A2ABC3" stroke-width="1.8" stroke-linecap="round" stroke-linejoin="round"/>
<path d="M7 17.7555C7 18.5383 7.30835 19.2261 7.80646 19.748C7.33207 20.1275 7 20.7205 7 21.3846C7 21.9776 7.23719 22.4994 7.6167 22.8789C7.99621 23.2584 8.51803 23.4956 9.11102 23.4956C9.65656 23.4956 10.1309 23.2821 10.5105 22.9501C10.7951 24.2546 11.9573 25.2034 13.333 25.2034C14.7562 25.2034 15.9422 24.1597 16.1794 22.8077C16.4166 24.1835 17.6025 25.2034 19.0257 25.2034C19.9507 25.2034 20.7809 24.7527 21.3027 24.0649C21.7771 24.4207 22.3701 24.6341 23.0105 24.6341C24.5997 24.6341 25.9043 23.3296 25.9043 21.7404C25.9043 21.2186 25.762 20.7442 25.501 20.3172C26.2363 19.8903 26.7344 19.1075 26.7344 18.1825C26.7344 16.8305 25.6196 15.7157 24.2676 15.7157C24.2202 15.7157 24.1965 15.7157 24.149 15.7157C24.149 15.6208 24.1728 15.5496 24.1728 15.4548C24.1728 13.8656 22.8682 12.561 21.279 12.561C20.5674 12.561 19.927 12.8219 19.4052 13.2489C19.0731 12.3713 18.2904 11.7071 17.3416 11.4937" stroke="#A2ABC3" stroke-width="1.8" stroke-linecap="round" stroke-linejoin="round"/>
<path d="M19.2865 14.0316C19.2865 12.561 18.1006 11.375 16.63 11.375C15.6338 11.375 14.7562 11.9443 14.3055 12.7507C13.8074 12.2289 13.1195 11.8968 12.3368 11.8968C10.8662 11.8968 9.68024 13.0828 9.68024 14.5534C8.20965 14.5534 7.02368 15.7393 7.02368 17.2099C7.02368 18.6805 8.20965 19.8665 9.68024 19.8665" stroke="#A2ABC3" stroke-width="1.8" stroke-linecap="round" stroke-linejoin="round"/>
</svg>
