<svg width="70" height="70" viewBox="0 0 70 70" fill="none" xmlns="http://www.w3.org/2000/svg">
<path d="M27.125 35C30.4388 30.0417 38.2386 20.125 45.5 20.125C52.7614 20.125 60.4066 30.0417 63 35" stroke="#A2ABC3" stroke-width="1.8" stroke-linecap="round" stroke-linejoin="round"/>
<path d="M38.5 42C40.7631 37.9167 46.9512 30.1875 51.1875 30.1875C54.8262 30.1875 61.2289 37.9167 63 42" stroke="#A2ABC3" stroke-width="1.8" stroke-linecap="round" stroke-linejoin="round"/>
<path d="M7 39.375C8.45482 36.75 11.8791 31.5 15.0671 31.5C18.255 31.5 21.1739 36.3125 22.3125 38.9375" stroke="#A2ABC3" stroke-width="1.8" stroke-linecap="round" stroke-linejoin="round"/>
<path d="M16.625 46.375C18.0798 43.75 21.5041 38.5 24.6921 38.5C27.88 38.5 31.2364 43.75 32.375 46.375" stroke="#A2ABC3" stroke-width="1.8" stroke-linecap="round" stroke-linejoin="round"/>
<path d="M37.625 50.75C39.0798 48.125 42.5041 42.875 45.6921 42.875C48.88 42.875 52.2364 48.125 53.375 50.75" stroke="#A2ABC3" stroke-width="1.8" stroke-linecap="round" stroke-linejoin="round"/>
<path d="M20.125 35L41.125 36.75" stroke="#A2ABC3" stroke-width="1.8" stroke-linecap="round" stroke-linejoin="round"/>
<path d="M28 40.25L40.25 39.375" stroke="#A2ABC3" stroke-width="1.8" stroke-linecap="round" stroke-linejoin="round"/>
<path d="M10.5 42L20.125 41.125" stroke="#A2ABC3" stroke-width="1.8" stroke-linecap="round" stroke-linejoin="round"/>
<path d="M10 51H65.125" stroke="#A2ABC3" stroke-width="2" stroke-linecap="round"/>
</svg>
