<svg width="70" height="70" viewBox="0 0 70 70" fill="none" xmlns="http://www.w3.org/2000/svg">
<path d="M55.9096 55.1567C55.7753 55.1555 55.6409 55.1543 55.5066 55.1543L54.8468 55.1555H52.8842V45.9963L53.3621 45.8203C53.4774 45.7775 53.5891 45.7371 53.6997 45.6955C55.4733 45.026 56.7108 43.3269 56.7786 41.4684C56.8047 40.7312 56.5075 40.4125 55.7491 40.3697C54.004 40.2698 52.6785 39.4589 51.8107 37.9619C51.5968 37.5921 51.5504 37.1676 51.5421 36.9465C51.5231 36.4411 51.5266 35.931 51.529 35.4376C51.5302 35.2081 51.5326 34.9786 51.5314 34.7491C51.5302 34.2461 51.3043 33.7087 50.6695 33.7039C50.1441 33.7039 49.8148 34.0975 49.8124 34.7313C49.8112 35.0131 49.8112 35.2961 49.8124 35.5755V36.4233H42.1853V35.9477C42.1853 35.4923 42.1865 35.0392 42.1865 34.5886C42.1889 33.2711 42.1901 32.0274 42.1758 30.7551C42.1687 30.0916 42.561 29.8705 42.9034 29.7504C44.7673 29.1023 46.0809 27.2772 46.0987 25.3128C46.1035 24.7231 45.7825 24.3806 45.1953 24.3473C43.0341 24.2261 41.5458 23.1381 40.7731 21.1143C40.5449 20.5174 40.3356 20.37 39.7056 20.3664C39.5332 20.3652 39.362 20.3652 39.1897 20.3652L37.8773 20.3664V19.8908C37.8773 19.8646 37.8761 19.8444 37.8761 19.829C37.8749 19.7802 37.8725 19.7136 37.8915 19.6328C38.3908 17.5841 37.7691 16.2131 35.8742 15.1881C35.5996 15.0395 35.4427 14.7101 35.4296 14.4628C35.4165 14.2036 35.4177 13.9468 35.4201 13.6971C35.4213 13.4973 35.4225 13.3083 35.4165 13.118C35.4011 12.6234 35.0326 12.25 34.5571 12.25C34.084 12.2512 33.7166 12.6269 33.7024 13.1239C33.6917 13.4771 33.6833 13.8873 33.7047 14.2845C33.7309 14.7529 33.5359 15.0645 33.0913 15.2666C31.5459 15.9681 30.7221 17.6768 31.1311 19.3296C31.1537 19.4223 31.3831 20.3652 31.3831 20.3652H30.778L29.9055 20.364C29.7343 20.364 29.5667 20.364 29.399 20.3664C28.807 20.3712 28.5633 20.54 28.3565 21.0882C27.5826 23.1345 26.0848 24.232 23.9046 24.3485C23.3399 24.3783 23.0107 24.7266 23.0225 25.2796C23.0499 26.5435 23.5076 27.6517 24.3813 28.5732C24.9507 29.1713 25.6663 29.6005 26.571 29.8847L26.9038 29.9894V36.4221H19.4004V35.9465C19.4004 35.7978 19.4004 35.654 19.4016 35.5113C19.4028 35.2057 19.404 34.918 19.3992 34.629C19.3897 34.0904 19.0414 33.7099 18.5516 33.7027H18.5385C18.0404 33.7027 17.6886 34.0868 17.6826 34.6373C17.6791 34.9239 17.6803 35.2093 17.6814 35.4958C17.6826 35.9156 17.685 36.3508 17.6731 36.7812C17.6648 37.0975 17.5923 37.409 17.4687 37.6575C16.6234 39.3626 15.2148 40.277 13.2807 40.3733C12.6637 40.4042 12.3308 40.7478 12.3439 41.3412C12.3677 42.3911 12.7124 43.3471 13.3662 44.1818C13.9999 44.9915 14.8272 45.5397 15.8935 45.8584L16.2335 45.9594V55.1555H15.758C15.531 55.1555 15.3051 55.1591 15.0816 55.1626C14.8558 55.1662 14.6311 55.1698 14.4076 55.1698C14.0736 55.1698 13.7966 55.1626 13.5386 55.146C13.4827 55.1424 13.4281 55.14 13.3746 55.14C12.823 55.14 12.4818 55.3291 12.25 55.7702V56.2566C12.3986 56.5229 12.6019 56.7274 12.8693 56.876H56.2139C56.2365 56.8606 56.2626 56.8463 56.2912 56.8321C56.7298 56.6097 56.9462 56.2328 56.8558 55.8487C56.7524 55.4076 56.416 55.1614 55.9096 55.1567ZM34.5547 16.6518H34.5868C35.0659 16.6614 35.5342 16.8718 35.8718 17.2321C36.2083 17.59 36.389 18.0656 36.3676 18.5389C36.3248 19.5091 35.5283 20.2677 34.5523 20.2677C34.5369 20.2677 34.5202 20.2677 34.5048 20.2665C33.5157 20.2416 32.73 19.414 32.7525 18.4235C32.7739 17.464 33.5989 16.6518 34.5547 16.6518ZM25.0601 26.5934L24.7581 26.0596L25.3501 25.9002C26.9276 25.4746 28.1425 24.6636 29.0638 23.4211C29.0912 23.3842 29.1197 23.3485 29.1482 23.3117C29.1958 23.251 29.2552 23.1761 29.2683 23.1393C29.6071 22.1892 30.3548 22.0668 30.9694 22.0668C30.9967 22.0668 31.0253 22.0668 31.0538 22.0679C32.321 22.0893 33.5823 22.0929 34.6486 22.0929C35.0516 22.0929 36.6647 22.0905 37.0689 22.0905C37.5837 22.0905 38.0984 22.0917 38.6143 22.0941C38.839 22.0953 39.3133 22.1904 39.5023 22.5412C40.4224 24.2534 41.8168 25.3533 43.7664 25.9038L44.3263 26.0619L44.06 26.5792C43.5845 27.5043 42.8451 28.0702 41.8608 28.2617C41.61 28.3104 41.3651 28.3104 41.1499 28.3104C40.2025 28.3104 39.2562 28.3104 38.31 28.3104H34.393C32.2556 28.3104 30.1171 28.3116 27.9713 28.3152C26.6661 28.314 25.7139 27.7516 25.0601 26.5934ZM35.4225 34.7515C35.4201 34.1011 35.1015 33.7087 34.5713 33.7039H34.5606C34.0269 33.7039 33.7059 34.1023 33.7047 34.7693C33.7035 35.0273 33.7047 35.2866 33.7047 35.5541V36.4269H28.6822V30.0595H40.4521V36.4328H35.4249V35.585C35.4225 35.3092 35.4237 35.0297 35.4225 34.7515ZM36.3759 54.1638C36.3735 54.3267 36.3723 54.492 36.3723 54.6632V55.1389H32.7739V54.6632C32.7739 54.4896 32.7692 54.316 32.7644 54.1436C32.7525 53.7346 32.7407 53.3125 32.7918 52.888C32.8916 52.0557 33.6691 51.4041 34.5618 51.4041C34.6011 51.4041 34.6391 51.4053 34.6783 51.4076C35.5937 51.4671 36.32 52.1876 36.3676 53.083C36.3842 53.4421 36.3806 53.7929 36.3759 54.1638ZM51.132 55.1305H48.7188V53.8618C48.7188 53.2435 48.7176 52.6312 48.72 52.0188C48.7212 51.6347 48.5999 51.385 48.3253 51.2079C48.1755 51.1116 48.0174 51.0628 47.8545 51.0628C47.4658 51.0628 47.0379 51.3708 47.0093 51.9415C46.9856 52.429 46.9903 52.932 46.9951 53.4195C46.9974 53.6454 46.9998 53.8725 46.9998 54.0984V55.1282H43.4752V53.5598C43.4752 53.404 43.4752 53.2495 43.4763 53.0937C43.4775 52.7524 43.4787 52.3993 43.4728 52.0557C43.4621 51.454 43.1268 51.0652 42.6097 51.0652C42.0998 51.0699 41.7657 51.4659 41.7574 52.0747C41.7515 52.5551 41.7526 53.0461 41.7538 53.5206C41.7538 53.7334 41.755 53.9474 41.755 54.1603V55.1329H38.0936V54.6573C38.0936 54.4944 38.0948 54.3327 38.0948 54.1722C38.096 53.8226 38.0984 53.492 38.0924 53.1567C38.0592 51.429 36.7396 49.9201 35.0885 49.7216C34.9268 49.7025 34.7639 49.6918 34.6046 49.6918C32.9083 49.6918 31.5257 50.7501 31.1644 52.3256C31.0538 52.806 31.0336 53.3279 31.011 53.8797C31.0003 54.1496 30.9896 54.429 30.967 54.7156L30.9337 55.1543H27.3247V53.8904C27.3247 53.2542 27.3235 52.6264 27.3259 51.9998C27.327 51.6787 27.2284 51.4481 27.0132 51.2733C26.8373 51.1294 26.6566 51.0569 26.4783 51.0569C26.3689 51.0569 26.2524 51.0842 26.1347 51.1365C25.7912 51.2911 25.62 51.5396 25.6117 51.8975C25.5986 52.4326 25.601 52.9795 25.6033 53.5099C25.6045 53.7405 25.6057 53.97 25.6057 54.2007V55.1317H22.0751V53.4314C22.0751 53.2768 22.0763 53.1222 22.0763 52.9688C22.0787 52.6276 22.0799 52.2744 22.0715 51.932C22.0585 51.4374 21.6911 51.064 21.2156 51.064C20.7473 51.0652 20.3716 51.4481 20.3609 51.9356C20.349 52.4552 20.3514 52.9879 20.355 53.5015C20.3562 53.7322 20.3573 53.9629 20.3573 54.1936V55.1293H18.0155V46.0427H51.1355V55.1305H51.132ZM51.9914 44.2936L51.85 44.2924H37.9581C31.0657 44.2924 24.1733 44.2924 17.2796 44.2948C16.1479 44.2948 15.2481 43.8489 14.6049 42.969C14.5348 42.8739 14.4872 42.774 14.4528 42.7014C14.3981 42.5885 14.3981 42.485 14.3981 42.4351C14.3981 42.4292 14.3981 42.422 14.3981 42.4149L14.3755 42.0534L14.826 41.8988C14.9128 41.8691 15.0008 41.8382 15.0899 41.8097C16.7518 41.2782 18.0167 40.2461 18.8476 38.7443C19.0663 38.3495 19.3635 38.1724 19.8105 38.1724H19.8117C26.5389 38.1771 33.2649 38.1783 39.9909 38.1783H49.3393C49.5438 38.1783 49.9705 38.1783 50.2333 38.6658C51.1117 40.2889 52.4693 41.3697 54.2691 41.8762C54.3761 41.906 54.451 41.9607 54.5009 41.9963C54.514 42.0059 54.5306 42.0177 54.5508 42.0308L54.93 42.2758L54.7042 42.667C54.1348 43.6527 53.2777 44.1985 52.1543 44.2888C52.1008 44.2924 52.0461 44.2936 51.9914 44.2936Z" fill="#A2ABC3" stroke="#A2ABC3" stroke-width="0.2"/>
</svg>
