<svg width="70" height="70" viewBox="0 0 70 70" fill="none" xmlns="http://www.w3.org/2000/svg">
<path d="M62.7792 31.893C61.978 33.2028 60.7014 33.8889 59.3542 34.4655C58.2037 34.9576 56.9868 35.1336 55.7379 35.1197C54.7081 35.1087 53.6782 35.117 52.5957 35.117C52.5957 41.1907 52.5957 47.2243 52.5957 53.3286C52.805 53.3286 53.0032 53.3286 53.2 53.3286C55.0075 53.3286 56.8149 53.3272 58.6223 53.33C58.8427 53.33 59.0673 53.3313 59.2835 53.3729C59.7756 53.4672 60.1179 53.8941 60.1345 54.3945C60.1512 54.9004 59.8476 55.3411 59.3583 55.4687C59.1296 55.5283 58.8857 55.5504 58.6487 55.5504C42.512 55.5546 26.3768 55.5546 10.2401 55.5504C10.0211 55.5504 9.79659 55.5297 9.58453 55.4784C9.05227 55.3495 8.74318 54.9212 8.76397 54.3848C8.78476 53.8608 9.14514 53.4242 9.67739 53.3674C10.1514 53.3161 10.6338 53.33 11.1134 53.33C12.8252 53.3258 14.537 53.3286 16.3014 53.3286C16.3014 47.2493 16.3014 41.2171 16.3014 35.117C15.2605 35.117 14.232 35.1073 13.2049 35.1197C12.0143 35.1336 10.8569 34.9645 9.73699 34.5473C8.54636 34.1038 7.49294 33.4426 6.57952 32.5597C6.04173 32.0385 5.97935 31.4259 6.40211 30.938C6.8304 30.4431 7.51096 30.4113 8.06816 30.931C9.19643 31.9831 10.509 32.6165 12.0309 32.8549C12.4287 32.9173 12.6561 32.823 12.8778 32.4668C15.7318 27.9052 18.6065 23.3575 21.4618 18.7974C21.617 18.5506 21.7002 18.2221 21.7113 17.9283C21.7431 17.0634 21.7168 16.1957 21.7251 15.328C21.7334 14.5186 22.1631 14.0113 22.8284 14.0029C23.4882 13.9946 23.9331 14.5089 23.9415 15.31C23.9484 16.046 23.9428 16.7834 23.9428 17.5652C30.9439 17.5652 37.9172 17.5652 44.9571 17.5652C44.9571 16.7515 44.9349 15.9462 44.9626 15.1409C44.9917 14.2857 45.7665 13.7701 46.5011 14.1014C46.996 14.3245 47.172 14.757 47.1734 15.2754C47.1748 16.1791 47.1581 17.0828 47.1845 17.9865C47.1928 18.2457 47.2704 18.534 47.4076 18.753C50.2837 23.3437 53.1751 27.9247 56.0526 32.5139C56.2328 32.8022 56.4157 32.9159 56.7608 32.8674C58.2245 32.6595 59.5219 32.1023 60.6224 31.1085C61.5289 30.2907 62.0931 30.3517 62.7806 31.3372C62.7792 31.5243 62.7792 31.7086 62.7792 31.893ZM44.684 53.2953C44.684 47.2201 44.684 41.1991 44.684 35.1627C43.7969 35.1627 42.9459 35.1627 42.0532 35.1627C42.0532 35.5009 42.0685 35.7948 42.0505 36.0872C42.0033 36.8399 41.5252 37.3361 40.8959 37.3084C40.2652 37.2806 39.8633 36.8121 39.8369 36.0609C39.8258 35.7573 39.8355 35.4524 39.8355 35.1502C38.358 35.1502 36.9816 35.1502 35.5262 35.1502C35.5262 35.5619 35.5664 35.95 35.5165 36.3256C35.4348 36.9383 34.9302 37.3444 34.3744 37.3084C33.8047 37.2723 33.3751 36.8274 33.339 36.2092C33.3196 35.8655 33.3349 35.5203 33.3349 35.1489C31.8892 35.1489 30.5156 35.1489 29.0616 35.1489C29.0616 35.4787 29.0727 35.7878 29.0588 36.0942C29.0269 36.8315 28.5945 37.307 27.968 37.3125C27.3567 37.3181 26.8979 36.8357 26.8467 36.1122C26.8245 35.8045 26.8425 35.494 26.8425 35.1627C25.9277 35.1627 25.0753 35.1627 24.2104 35.1627C24.2104 41.2254 24.2104 47.2451 24.2104 53.2842C25.0961 53.2842 25.9471 53.2842 26.8383 53.2842C26.8383 53.0181 26.8383 52.7977 26.8383 52.5787C26.8383 49.388 26.837 46.1986 26.8383 43.0079C26.8383 41.8048 27.2167 41.4319 28.4309 41.4305C32.4325 41.4291 36.4341 41.4291 40.4357 41.4305C41.6901 41.4305 42.0519 41.7895 42.0519 43.0398C42.0532 46.2305 42.0519 49.4198 42.0519 52.6106C42.0519 52.8282 42.0519 53.0444 42.0519 53.2967C42.9542 53.2953 43.7928 53.2953 44.684 53.2953ZM53.6616 32.8757C52.5347 31.0877 51.473 29.387 50.3835 27.7043C50.2934 27.5657 50.019 27.4839 49.8305 27.4839C39.5763 27.4728 29.3222 27.4756 19.068 27.4686C18.7562 27.4686 18.5704 27.5587 18.4041 27.8304C17.4352 29.398 16.4456 30.9532 15.4656 32.5125C15.4019 32.6137 15.3603 32.7288 15.2896 32.8757C28.0803 32.8757 40.8155 32.8757 53.6616 32.8757ZM48.8422 25.2287C47.732 23.4601 46.6813 21.7719 45.6002 20.1017C45.5018 19.9492 45.2149 19.8411 45.0153 19.8411C37.9726 19.8272 30.9286 19.8328 23.886 19.8217C23.5409 19.8217 23.3607 19.9478 23.1916 20.225C22.5679 21.2479 21.9219 22.2556 21.2844 23.2702C20.8866 23.9037 20.4887 24.5371 20.0563 25.2274C29.6784 25.2287 39.216 25.2287 48.8422 25.2287ZM29.1448 43.6801C29.1046 43.7647 29.0907 43.7813 29.0907 43.7966C29.0824 46.8556 29.0768 49.9133 29.0616 52.9723C29.0602 53.3383 29.2764 53.3313 29.5315 53.33C30.6736 53.3258 31.8171 53.33 32.9592 53.3258C33.0798 53.3258 33.199 53.2884 33.3418 53.2648C33.3418 51.6847 33.3307 50.1378 33.3459 48.591C33.3529 47.873 33.8241 47.3893 34.4534 47.392C35.0827 47.3948 35.5415 47.8785 35.5526 48.5993C35.5692 49.6499 35.5567 50.7006 35.5567 51.7512C35.5567 52.2599 35.5567 52.77 35.5567 53.33C36.8388 53.33 38.0517 53.3078 39.2631 53.341C39.7371 53.3535 39.8452 53.1913 39.8425 52.745C39.8244 49.9064 39.8341 47.0691 39.8314 44.2304C39.8314 44.053 39.8106 43.8756 39.7995 43.6815C36.211 43.6801 32.6806 43.6801 29.1448 43.6801ZM21.9067 53.2953C21.9067 47.2104 21.9067 41.1797 21.9067 35.1613C20.7812 35.1613 19.7042 35.1613 18.6162 35.1613C18.6162 41.2226 18.6162 47.2409 18.6162 53.2953C19.7236 53.2953 20.802 53.2953 21.9067 53.2953ZM50.2768 35.1641C49.1513 35.1641 48.0619 35.1641 46.971 35.1641C46.971 41.2282 46.971 47.2479 46.971 53.2801C48.091 53.2801 49.179 53.2801 50.2768 53.2801C50.2768 47.2132 50.2768 41.1977 50.2768 35.1641Z" fill="#A2ABC3"/>
<path d="M42.2459 29.0601C43.1302 29.0601 44.0145 29.056 44.8988 29.0629C45.1178 29.0643 45.3424 29.0809 45.5558 29.1266C46.0423 29.2334 46.3875 29.6714 46.3944 30.1607C46.4027 30.6638 46.0396 31.1392 45.5323 31.2279C45.2259 31.282 44.9099 31.2834 44.5967 31.2848C42.8641 31.2889 41.1329 31.2917 39.4003 31.2834C38.6684 31.2792 38.2415 31.0048 38.1001 30.4905C37.8853 29.7129 38.3968 29.0906 39.3157 29.067C40.2915 29.0407 41.2687 29.0601 42.2459 29.0601Z" fill="#A2ABC3"/>
<path d="M49.9733 30.2187C49.9691 30.8535 49.5159 31.3206 48.9115 31.3137C48.3211 31.3067 47.8484 30.8091 47.8526 30.2006C47.8567 29.5727 48.3141 29.1126 48.9295 29.1167C49.5505 29.1209 49.9774 29.5714 49.9733 30.2187Z" fill="#A2ABC3"/>
</svg>
