<svg width="70" height="70" viewBox="0 0 70 70" fill="none" xmlns="http://www.w3.org/2000/svg">
<path d="M9.07584 56.8237C8.13176 55.6395 7.6186 54.4125 7.59557 53.0112C7.52649 49.0868 11.163 46.1904 14.9574 47.169C15.3933 47.2809 15.566 47.1789 15.7584 46.8055C16.2075 45.9305 16.7239 45.0901 17.1762 44.2167C17.3456 43.8878 17.4147 43.5078 17.5677 43.0276C16.5693 43.0276 15.7173 43.0292 14.8637 43.0259C14.6597 43.0243 14.4443 43.0424 14.2535 42.9881C13.765 42.8466 13.4805 42.5045 13.5167 41.9881C13.5528 41.447 13.8818 41.0868 14.4196 41.0736C15.7732 41.0407 17.1285 41.0391 18.4821 41.0736C19.0512 41.0868 19.3654 41.4667 19.4065 42.0358C19.4279 42.3384 19.4098 42.646 19.4098 42.9881C22.043 42.9881 24.6351 42.9881 27.2601 42.9881C27.2601 42.3647 27.2601 41.7562 27.2601 41.0555C26.969 41.0555 26.6697 41.0654 26.3736 41.0539C25.742 41.0259 25.3309 40.6345 25.3276 40.0753C25.3243 39.5144 25.7355 39.1048 26.3654 39.0917C27.2059 39.0736 28.048 39.0851 28.8884 39.0868C29.7075 39.0884 30.1121 39.3302 30.2256 39.8845C30.3342 40.4108 30.0381 40.8022 29.372 41.0868C28.8062 43.2496 29.7503 45.0506 30.6401 46.8532C30.7092 46.993 31.0825 47.072 31.2914 47.0391C34.201 46.5851 37.0497 48.3631 37.8687 51.1904C38.3983 53.0161 38.1023 54.7201 37.0299 56.2891C36.9296 56.4372 36.8243 56.5819 36.6812 56.7858C37.9872 56.7858 39.224 56.7858 40.5168 56.7858C40.4214 56.6362 40.3457 56.5046 40.2585 56.3796C37.9756 53.1723 39.2257 48.8648 42.8605 47.3598C43.1023 47.2595 43.3441 47.0013 43.451 46.7562C44.0826 45.2973 45.0859 44.2052 46.5382 43.5621C46.905 43.4009 47.0036 43.2134 46.9987 42.8351C46.9773 41.2759 46.9905 39.7183 46.9905 38.0999C42.0645 37.5506 38.2783 35.2183 35.8605 30.8696C34.2223 27.9239 33.7783 24.7495 34.4871 21.4567C35.9427 14.7001 42.0546 10.0768 48.8573 10.5307C55.7488 10.9896 61.206 16.3794 61.7225 23.3285C62.0021 27.1015 60.8656 30.465 58.3869 33.3318C55.9247 36.1805 52.7668 37.7167 48.9987 38.0752C48.9987 39.7151 48.9987 41.3269 48.9987 42.9799C49.5201 43.0588 50.0546 43.1378 50.5826 43.2184C52.5349 40.0078 55.6155 39.6789 57.7044 40.3746C60.4017 41.271 61.8425 43.6032 61.729 46.9355C64.1649 47.0753 66.0613 48.1394 67.1074 50.396C68.1534 52.6526 67.7636 54.7858 66.2241 56.7941C66.4643 56.8105 66.6419 56.8056 66.8113 56.8385C67.3409 56.9421 67.6616 57.2661 67.6616 57.8105C67.6616 58.3549 67.3393 58.6806 66.8097 58.7809C66.6304 58.8138 66.4412 58.7957 66.257 58.7957C46.8474 58.7957 27.4361 58.7957 8.0265 58.7957C7.8834 58.7957 7.73867 58.8023 7.59557 58.7924C7.01004 58.748 6.61366 58.3516 6.61037 57.8155C6.60708 57.2776 7.00182 56.873 7.58571 56.8303C7.81104 56.8138 8.03637 56.8253 8.26334 56.8253C8.48867 56.8237 8.714 56.8237 9.07584 56.8237ZM48.9609 28.7874C49.206 28.5588 49.3556 28.4272 49.4954 28.2874C50.2076 27.5768 50.9099 26.8581 51.632 26.1574C52.1204 25.6821 52.6928 25.6673 53.104 26.0818C53.5135 26.4946 53.4807 27.0538 53.0152 27.5571C52.9181 27.6624 52.8129 27.7611 52.7126 27.863C51.5662 29.0094 50.4165 30.1525 49.2783 31.3071C49.1435 31.4436 48.9806 31.6361 48.9773 31.8038C48.9527 33.215 48.9642 34.6262 48.9642 36.0407C54.4445 35.7315 59.9182 30.9305 59.7932 23.9765C59.6797 17.6738 54.3425 12.4633 48.0069 12.483C41.4938 12.5028 36.2273 17.6771 36.1648 24.164C36.099 31.0242 41.604 35.7479 46.9477 36.039C46.9625 35.9634 46.9888 35.8844 46.9888 35.8071C46.9921 32.8713 46.9971 29.9354 46.979 27.0012C46.9773 26.7923 46.8277 26.5439 46.6747 26.3828C45.951 25.6262 45.1977 24.8992 44.4642 24.1525C43.9494 23.6295 43.9049 23.0637 44.3244 22.6344C44.7454 22.2035 45.3244 22.2347 45.8425 22.7462C46.7487 23.6393 47.6665 24.5225 48.5283 25.4568C48.7652 25.715 48.9116 26.1311 48.9444 26.488C49.0069 27.2002 48.9609 27.9222 48.9609 28.7874ZM47.377 56.8697C47.3984 56.822 47.4181 56.7743 47.4395 56.725C47.2898 56.5671 47.1451 56.4043 46.9921 56.2513C46.2684 55.5243 45.53 54.8105 44.8244 54.0671C44.4296 53.651 44.428 53.1115 44.7832 52.7316C45.1336 52.3566 45.5579 52.2776 46.0086 52.5358C46.1829 52.6362 46.3277 52.7924 46.4724 52.9355C47.5185 53.9783 48.627 54.9684 49.5843 56.0885C50.2553 56.873 51.0004 56.9076 51.9181 56.7694C51.9181 56.5309 51.9181 56.3089 51.9181 56.0868C51.9181 53.7677 51.9149 51.4487 51.9198 49.1296C51.9214 48.4503 52.2339 48.0407 52.7734 47.9651C53.4066 47.8763 53.882 48.3565 53.8853 49.1181C53.8918 51.4569 53.8885 53.7973 53.8885 56.1362C53.8885 56.3533 53.8885 56.5704 53.8885 56.7431C54.9379 57.0178 55.6665 56.7217 56.3409 55.9618C57.3326 54.8434 58.4363 53.822 59.5037 52.771C59.9922 52.2891 60.5596 52.2677 60.9757 52.674C61.3919 53.0819 61.3804 53.6592 60.9067 54.1477C60.1632 54.9125 59.4001 55.6592 58.6484 56.4158C58.5448 56.5194 58.4642 56.6444 58.331 56.8122C59.6287 56.8122 60.8409 56.8681 62.0448 56.8007C64.5893 56.6592 66.2949 54.1 65.5087 51.674C64.8541 49.6559 62.8639 48.5819 60.7093 49.0835C59.9609 49.2579 59.3902 49.0046 59.3261 48.3977C59.2948 48.0934 59.4034 47.7546 59.5169 47.4585C60.3047 45.4026 59.331 43.1131 57.3113 42.3154C55.303 41.5226 53.0464 42.4848 52.2093 44.493C51.7603 45.5671 51.4954 45.6789 50.3803 45.2611C48.1862 44.4388 45.7701 45.6411 45.1813 47.9026C45.002 48.5917 44.6582 48.9223 43.974 49.0967C42.2224 49.544 41.0447 51.1855 41.0908 52.9914C41.1385 54.7924 42.4049 56.3895 44.1961 56.6954C45.2339 56.878 46.3145 56.8204 47.377 56.8697ZM14.4657 49.1098C12.6384 48.5523 10.6285 49.5638 9.87354 51.3582C9.08078 53.2414 9.85545 55.4026 11.6647 56.3599C13.4706 57.3155 15.6943 56.7382 16.8061 55.0243C17.8374 53.4371 17.5726 51.2102 16.1976 50.1016C16.0923 50.276 15.9821 50.4454 15.8834 50.6197C15.3834 51.5128 14.8917 52.4108 14.3867 53.3006C14.1088 53.7908 13.691 53.9931 13.1449 53.7957C12.5528 53.5802 12.3555 52.9437 12.6943 52.3171C13.2683 51.2562 13.8604 50.2052 14.4657 49.1098ZM26.219 53.8681C25.2322 53.8681 24.1236 53.8253 23.0216 53.8829C22.1845 53.9256 21.7075 53.623 21.3703 52.8434C20.5019 50.8319 19.5627 48.8516 18.6483 46.8598C18.5611 46.6707 18.4591 46.4881 18.3259 46.2282C17.9246 46.9503 17.5677 47.5917 17.2173 48.2184C19.8703 50.8664 20.1302 53.7184 18.0101 56.7858C21.2618 56.7858 24.469 56.7858 27.6055 56.7858C27.1647 55.8533 26.7207 54.9224 26.219 53.8681ZM31.6023 49.021C31.6927 49.2431 31.7585 49.4125 31.8309 49.5786C32.2503 50.5358 32.6911 51.4832 33.0875 52.4503C33.3917 53.1904 32.969 53.8171 32.1713 53.8648C31.9263 53.8796 31.6796 53.8681 31.4329 53.8681C30.4411 53.8681 29.4509 53.8681 28.4394 53.8681C28.9888 55.9651 31.0184 57.1789 33.0809 56.7184C35.1467 56.2562 36.4954 54.2151 36.0858 52.1723C35.6566 50.0457 33.7322 48.6657 31.6023 49.021ZM22.6006 50.7529C23.9049 48.7957 25.1401 46.9388 26.4065 45.0391C24.2141 45.0391 22.1351 45.0391 19.9821 45.0391C20.8571 46.9503 21.7042 48.799 22.6006 50.7529ZM28.099 46.0572C26.7881 48.0276 25.5266 49.9207 24.2272 51.8714C25.02 51.8714 25.691 51.8714 26.3835 51.8714C26.7075 50.3368 27.4526 49.0835 28.6927 48.1329C28.793 48.0555 28.8605 47.8072 28.8144 47.6871C28.6138 47.1592 28.3654 46.6509 28.099 46.0572ZM29.8062 49.8878C29.7289 49.8631 29.6516 49.8385 29.5759 49.8154C29.1647 50.4667 28.7536 51.1181 28.2799 51.8697C29.1812 51.8697 29.8851 51.8697 30.6812 51.8697C30.372 51.1707 30.0891 50.5292 29.8062 49.8878Z" fill="#A2ABC3"/>
<path d="M12.539 30.2049C10.6114 30.2049 8.68375 30.2081 6.75611 30.2032C4.64261 30.1983 3.0653 28.9154 2.6903 26.9104C2.3449 25.0683 3.39261 23.3265 5.29064 22.5288C5.46992 22.4532 5.66235 22.218 5.70183 22.0255C6.32683 19.0519 8.51434 16.9647 11.5505 16.4778C14.2627 16.0436 17.0835 17.4301 18.4815 19.9334C18.6887 20.3051 18.9601 20.3792 19.3022 20.4449C21.567 20.8841 23.2299 22.7854 23.317 25.0305C23.4075 27.3578 21.947 29.4006 19.7167 30.0058C19.2298 30.1374 18.7068 30.1884 18.2002 30.1933C16.3121 30.218 14.4256 30.2049 12.539 30.2049ZM12.5259 28.2328C14.4946 28.2328 16.465 28.2509 18.4338 28.2279C20.0736 28.2081 21.3549 26.8825 21.3499 25.2673C21.345 23.6522 20.0489 22.3249 18.4124 22.338C17.6904 22.3446 17.3022 22.0749 17.016 21.4137C16.2117 19.5551 14.7545 18.514 12.7364 18.3989C9.965 18.241 7.72157 20.3348 7.56697 23.1341C7.52585 23.8858 7.24295 24.2131 6.56696 24.292C5.3186 24.4384 4.54886 25.2624 4.61301 26.3825C4.67551 27.4861 5.5538 28.2328 6.80545 28.2345C8.71006 28.2361 10.618 28.2345 12.5259 28.2328Z" fill="#A2ABC3"/>
</svg>
