<svg width="70" height="70" viewBox="0 0 70 70" fill="none" xmlns="http://www.w3.org/2000/svg">
<path fill-rule="evenodd" clip-rule="evenodd" d="M12.2198 42.4526V47.6121C12.2198 48.5619 12.9871 49.3319 13.9276 49.3319H56.9474C57.8906 49.3319 58.6552 48.5499 58.6552 47.6121V42.4526H51.7759V26.9741H58.6552V21.8146C58.6552 20.8648 57.8879 20.0948 56.9474 20.0948H13.9276C12.9844 20.0948 12.2198 20.8768 12.2198 21.8146V26.9741H19.0991V42.4526H12.2198ZM36.2974 42.4054C40.167 41.9776 43.1767 38.697 43.1767 34.7134C43.1767 30.7298 40.167 27.4491 36.2974 27.0214V20.0948H34.5776V27.0214C30.708 27.4491 27.6983 30.7298 27.6983 34.7134C27.6983 38.697 30.708 41.9776 34.5776 42.4054V49.3319H36.2974V42.4054ZM36.2974 40.6718C39.2145 40.2545 41.4569 37.7458 41.4569 34.7134C41.4569 31.6809 39.2145 29.1722 36.2974 28.7549V40.6718ZM34.5776 28.7549C31.6605 29.1722 29.4181 31.6809 29.4181 34.7134C29.4181 37.7458 31.6605 40.2545 34.5776 40.6718V28.7549ZM13.9281 18.375C12.0348 18.375 10.5 19.9072 10.5 21.8102V47.6165C10.5 49.5137 12.0474 51.0517 13.9281 51.0517H56.9469C58.8402 51.0517 60.375 49.5195 60.375 47.6165V21.8102C60.375 19.913 58.8276 18.375 56.9469 18.375H13.9281ZM53.4957 28.694V40.7328H58.6552V28.694H53.4957ZM12.2198 28.694V40.7328H17.3793V28.694H12.2198Z" fill="#A2ABC3"/>
</svg>
