<svg width="70" height="70" viewBox="0 0 70 70" fill="none" xmlns="http://www.w3.org/2000/svg">
<path d="M40.5977 15.8506C41.3404 20.0463 44.5585 20.2932 44.5585 20.2932H25.249C25.249 20.2932 28.4671 20.0463 29.2098 15.8506H40.5977V15.8506Z" stroke="#A2ABC3" stroke-width="1.8" stroke-miterlimit="10" stroke-linecap="round" stroke-linejoin="round"/>
<path d="M42.7405 24.5C43.75 29.4584 48.125 29.75 48.125 29.75H21.875C21.875 29.75 26.25 29.4584 27.2595 24.5H42.7405Z" stroke="#A2ABC3" stroke-width="1.8" stroke-miterlimit="10" stroke-linecap="round" stroke-linejoin="round"/>
<path d="M44.8044 35C46.0835 41.6112 51.625 42 51.625 42H18.375C18.375 42 23.9165 41.6112 25.1956 35H44.8044Z" stroke="#A2ABC3" stroke-width="1.8" stroke-miterlimit="10" stroke-linecap="round" stroke-linejoin="round"/>
<path d="M29.3943 15.8505V15.0433L33.3746 13.3154H36.857L40.4135 15.0433V15.8505" stroke="#A2ABC3" stroke-width="1.8" stroke-miterlimit="10" stroke-linecap="round" stroke-linejoin="round"/>
<path d="M33.25 13.125V11.375H36.75V13.125" stroke="#A2ABC3" stroke-width="1.8" stroke-miterlimit="10" stroke-linecap="round" stroke-linejoin="round"/>
<path d="M30.2434 20.3638V24.3506" stroke="#A2ABC3" stroke-width="1.8" stroke-miterlimit="10" stroke-linecap="round" stroke-linejoin="round"/>
<path d="M39.5642 20.332V24.3505" stroke="#A2ABC3" stroke-width="1.8" stroke-miterlimit="10" stroke-linecap="round" stroke-linejoin="round"/>
<path d="M45.5 55.125V42" stroke="#A2ABC3" stroke-width="1.8" stroke-miterlimit="10" stroke-linecap="round" stroke-linejoin="round"/>
<path d="M24.5 42V55.125" stroke="#A2ABC3" stroke-width="1.8" stroke-miterlimit="10" stroke-linecap="round" stroke-linejoin="round"/>
<path d="M28.875 30.625V35" stroke="#A2ABC3" stroke-width="1.8" stroke-miterlimit="10" stroke-linecap="round" stroke-linejoin="round"/>
<path d="M41.125 30.625V35" stroke="#A2ABC3" stroke-width="1.8" stroke-miterlimit="10" stroke-linecap="round" stroke-linejoin="round"/>
<path d="M19.6467 58.083V55.125H50.1612V58.083" stroke="#A2ABC3" stroke-width="1.8" stroke-miterlimit="10" stroke-linecap="round" stroke-linejoin="round"/>
</svg>
