<svg width="70" height="70" viewBox="0 0 70 70" fill="none" xmlns="http://www.w3.org/2000/svg">
<path d="M11.375 43.9689C11.6531 43.5764 12.0323 43.4763 12.5049 43.4841C14.0082 43.5093 15.5134 43.4928 17.0167 43.4928C17.1859 43.4928 17.3551 43.4928 17.5573 43.4928C17.5573 41.879 17.5573 40.3059 17.5573 38.7145C15.9004 38.2024 14.9037 36.9607 14.119 35.5091C13.0922 33.6096 12.5905 31.545 12.3435 29.4201C11.9555 26.0729 12.1393 22.7645 13.1719 19.5339C13.593 18.2155 14.1638 16.964 15.0418 15.8788C15.8761 14.8498 16.867 14.0619 18.2672 14.0104C19.4068 13.9695 20.3276 14.4758 21.1114 15.2501C22.3822 16.5064 23.1339 18.0707 23.6104 19.7574C25.0242 24.768 24.961 29.7368 23.0298 34.6182C22.5777 35.7617 21.9457 36.8208 21.0044 37.6311C20.5396 38.0304 19.9523 38.286 19.4272 38.6192C19.3125 38.6921 19.1472 38.8165 19.1462 38.9195C19.1277 40.4196 19.1336 41.9208 19.1336 43.4559C24.3221 43.4559 29.4669 43.4559 34.6487 43.4559C34.6487 41.9062 34.6487 40.3652 34.6487 38.7834C31.7977 38.4181 29.5583 37.0569 28.0765 34.5608C27.0409 32.8149 26.6801 30.9115 27.0282 28.9119C27.7624 24.6961 31.2911 21.7317 35.4869 21.7618C39.6866 21.792 43.1842 24.7661 43.8629 28.9527C44.2557 31.3749 43.6645 33.5882 42.1535 35.5256C40.6531 37.4494 38.6413 38.49 36.222 38.7805C36.222 40.3506 36.222 41.88 36.222 43.451C41.3814 43.451 46.5243 43.451 51.7138 43.451C51.7274 43.3238 51.7547 43.1906 51.7547 43.0575C51.7576 41.743 51.7654 40.4274 51.7459 39.1128C51.744 38.9515 51.6302 38.6911 51.5067 38.6474C50.3088 38.2209 49.4754 37.3756 48.7919 36.3554C47.729 34.7688 47.1359 32.9927 46.7868 31.1359C46.041 27.165 46.1412 23.228 47.3955 19.3591C47.803 18.1018 48.364 16.9135 49.2071 15.8826C49.5027 15.5212 49.8333 15.1773 50.1979 14.8867C51.7294 13.6645 53.5108 13.7111 54.9946 14.9936C56.1527 15.9934 56.9073 17.2779 57.4032 18.6916C59.2186 23.8683 59.204 29.0557 57.3555 34.2256C57.1824 34.7085 56.9471 35.1739 56.6972 35.6238C55.9193 37.0248 54.9382 38.217 53.3144 38.7154C53.3144 40.2904 53.3144 41.8518 53.3144 43.4909C53.7685 43.4909 54.2157 43.4889 54.664 43.4918C55.261 43.4957 55.6033 43.761 55.616 44.2264C55.6296 44.7064 55.2698 45.0017 54.6553 45.0017C43.7034 45.0027 32.7516 45.0027 21.7998 45.0027C18.6658 45.0027 15.5329 44.9949 12.3989 45.0105C11.9205 45.0124 11.5792 44.8735 11.375 44.4372C11.375 44.2818 11.375 44.1253 11.375 43.9689ZM51.5534 37.1045C51.6215 37.0676 51.6885 37.0297 51.7566 36.9928C51.7566 36.8101 51.7566 36.6274 51.7566 36.4448C51.7566 34.2217 51.7547 31.9997 51.7576 29.7766C51.7586 29.0907 52.0153 28.7545 52.519 28.7526C53.0246 28.7506 53.291 29.0975 53.2949 29.765C53.2968 30.0545 53.2949 30.3431 53.2949 30.6326C53.3552 30.6725 53.4165 30.7123 53.4767 30.7521C53.5876 30.584 53.6761 30.3936 53.8142 30.2537C54.2245 29.8369 54.6728 29.8106 55.0053 30.1585C55.3097 30.4762 55.2708 30.9396 54.8954 31.3234C54.4462 31.782 53.9756 32.2202 53.5429 32.6934C53.4116 32.8372 53.3095 33.0655 53.3066 33.2569C53.2852 34.3995 53.2949 35.5422 53.2978 36.6848C53.2978 36.7975 53.326 36.9102 53.3532 37.1162C53.678 36.8626 53.9532 36.6848 54.1846 36.4603C55.0714 35.6034 55.6286 34.5336 56.0341 33.392C57.4226 29.4793 57.5131 25.4889 56.6447 21.4626C56.2733 19.738 55.6821 18.0882 54.5327 16.7056C53.2375 15.1481 51.8276 15.153 50.5207 16.6998C49.6242 17.7598 49.0933 19.0112 48.7043 20.3229C47.7427 23.5603 47.626 26.854 48.1637 30.1711C48.4836 32.1435 49.0301 34.0556 50.2261 35.7025C50.5985 36.2194 51.1061 36.6401 51.5534 37.1045ZM19.1306 30.7366C19.3844 30.4947 19.5264 30.3557 19.6713 30.2207C20.0758 29.8437 20.5095 29.8184 20.8342 30.1497C21.1551 30.4772 21.1279 30.9154 20.7428 31.3108C20.2955 31.7713 19.821 32.2066 19.3912 32.6817C19.2512 32.8372 19.1462 33.084 19.1413 33.2909C19.117 34.4015 19.1287 35.513 19.1316 36.6245C19.1316 36.7528 19.1588 36.882 19.1861 37.1162C19.5186 36.8567 19.7918 36.6789 20.0223 36.4564C20.9315 35.5752 21.4974 34.4753 21.9029 33.2997C23.2904 29.284 23.3682 25.2062 22.392 21.0963C22.0176 19.5194 21.4488 18.0124 20.3967 16.7406C19.0597 15.1238 17.5671 15.0995 16.3156 16.7862C15.6739 17.651 15.1342 18.6459 14.7822 19.6622C13.4073 23.6254 13.3703 27.6702 14.333 31.7296C14.7141 33.3385 15.3063 34.8708 16.408 36.1455C16.7133 36.4992 17.1071 36.7761 17.4601 37.088C17.5039 37.0588 17.5476 37.0287 17.5914 36.9996C17.5914 36.8344 17.5914 36.6692 17.5914 36.504C17.5914 34.2499 17.5904 31.9968 17.5923 29.7426C17.5933 29.1062 17.8549 28.7642 18.3401 28.7516C18.8486 28.738 19.1199 29.08 19.1297 29.7485C19.1336 30.0293 19.1306 30.3091 19.1306 30.7366ZM36.2026 37.1851C39.1897 37.018 42.5278 34.2227 42.4316 30.1196C42.3382 26.1117 38.9612 23.0473 34.9074 23.3038C31.0033 23.5506 28.0823 27.096 28.4887 31.0951C28.8077 34.2334 32.1458 37.5165 34.6857 37.1463C34.6857 36.9821 34.6857 36.813 34.6857 36.643C34.6857 34.9679 34.6857 33.2919 34.6857 31.6169C34.6857 30.6686 34.8908 30.3071 35.4324 30.2994C35.9818 30.2906 36.2016 30.6608 36.2016 31.5955C36.2016 31.7898 36.2016 31.9841 36.2016 32.1794C36.2599 32.2154 36.3183 32.2503 36.3766 32.2863C36.4933 32.124 36.5915 31.9423 36.7315 31.8024C37.137 31.3973 37.5999 31.371 37.9246 31.7111C38.2455 32.0473 38.2134 32.467 37.8177 32.8731C37.3587 33.3444 36.8842 33.8001 36.4282 34.2742C36.327 34.3791 36.2162 34.5307 36.2133 34.6638C36.1928 35.4897 36.2026 36.3175 36.2026 37.1851Z" fill="#A2ABC3"/>
<path d="M11.375 55.6184C11.6356 55.2376 11.9895 55.0899 12.4534 55.1239C12.8744 55.1559 13.2993 55.119 13.7213 55.1384C14.1667 55.1589 14.4671 55.4737 14.4671 55.8837C14.4671 56.2908 14.1608 56.6231 13.7242 56.6396C13.1924 56.659 12.6488 56.7047 12.1305 56.6192C11.8563 56.5735 11.6249 56.2733 11.375 56.0877C11.375 55.9313 11.375 55.7748 11.375 55.6184Z" fill="#A2ABC3"/>
<path d="M29.9628 53.5481C28.9223 53.5626 27.913 53.2809 26.9795 52.7125C25.3693 51.7302 23.7775 51.7593 22.1478 52.7144C20.1924 53.86 18.1835 53.8677 16.2095 52.7582C15.4423 52.3268 14.6683 52.0158 13.7806 51.9867C13.2166 51.9682 12.9288 51.6583 12.955 51.1812C12.9793 50.7333 13.2944 50.4652 13.8282 50.4661C14.8366 50.4681 15.7866 50.7158 16.6423 51.2492C18.3118 52.2908 19.9405 52.2519 21.6383 51.259C23.5432 50.1445 25.5424 50.1202 27.4482 51.2327C29.18 52.2432 30.8019 52.249 32.5366 51.2463C34.4269 50.1533 36.4164 50.1504 38.3125 51.2356C40.0443 52.2277 41.6779 52.2364 43.4116 51.2415C45.3058 50.1552 47.2933 50.1513 49.1895 51.2376C50.9407 52.2403 52.6093 52.2724 54.3236 51.2055C55.1511 50.6906 56.0787 50.4671 57.054 50.4652C57.5869 50.4642 57.9029 50.7333 57.9291 51.1783C57.9573 51.6525 57.6685 51.9653 57.1055 51.9857C56.2353 52.0178 55.472 52.3112 54.7184 52.7358C52.7824 53.8269 50.7861 53.8697 48.855 52.7669C47.1203 51.7759 45.4877 51.7856 43.7539 52.7756C41.8578 53.859 39.8722 53.8493 37.9761 52.764C36.2423 51.772 34.5825 51.7399 32.8828 52.7931C32.0125 53.3353 31.0402 53.5539 29.9628 53.5481Z" fill="#A2ABC3"/>
<path d="M51.7498 49.6741C50.6987 49.6469 49.7001 49.4137 48.7948 48.8657C47.1359 47.864 45.5082 47.896 43.826 48.8608C41.8803 49.9762 39.8723 49.9724 37.9237 48.856C36.2249 47.8834 34.6089 47.9057 32.9111 48.889C30.9858 50.0034 28.9827 49.9889 27.0584 48.8628C25.3811 47.8815 23.7796 47.8717 22.0983 48.8589C20.1779 49.9869 18.1865 49.983 16.2427 48.8968C15.4317 48.444 14.6179 48.1117 13.6795 48.0981C13.2303 48.0913 12.9512 47.7688 12.9551 47.3412C12.959 46.9167 13.2478 46.6164 13.698 46.5989C14.7598 46.5572 15.7526 46.8166 16.6521 47.3743C18.3255 48.412 19.9542 48.3614 21.651 47.3752C23.5763 46.2569 25.5814 46.2598 27.5037 47.3791C29.185 48.3595 30.7855 48.375 32.4677 47.4034C34.4115 46.2802 36.4252 46.2715 38.37 47.3821C40.0736 48.3546 41.6887 48.3459 43.3865 47.3772C45.3186 46.2744 47.3216 46.2822 49.2479 47.3859C50.969 48.3721 52.6191 48.375 54.3004 47.3422C55.1599 46.8146 56.109 46.5727 57.1202 46.595C57.6142 46.6067 57.9176 46.8797 57.9322 47.3179C57.9477 47.7794 57.6492 48.0894 57.1358 48.103C56.3015 48.1263 55.5392 48.3566 54.8293 48.7996C53.89 49.3865 52.8525 49.6498 51.7498 49.6741Z" fill="#A2ABC3"/>
<path d="M37.3646 55.131C44.3356 55.131 51.3055 55.131 58.2765 55.131C58.4486 55.131 58.6216 55.1242 58.7928 55.1407C59.209 55.1796 59.4948 55.4846 59.4987 55.8772C59.5026 56.2639 59.2119 56.5903 58.8093 56.6389C58.6703 56.6554 58.5273 56.6467 58.3863 56.6467C44.3822 56.6467 30.3791 56.6467 16.375 56.6467C16.234 56.6467 16.0911 56.6564 15.952 56.6389C15.5524 56.5894 15.2607 56.2551 15.2685 55.8704C15.2762 55.4788 15.567 55.1747 15.9822 55.1388C16.1533 55.1242 16.3264 55.131 16.4985 55.131C23.4549 55.13 30.4102 55.131 37.3646 55.131Z" fill="#A2ABC3"/>
<path d="M57.9253 45.0018C57.6754 45.0028 57.4245 45.0135 57.1746 44.9999C56.7332 44.9765 56.4278 44.6705 56.4201 44.2605C56.4123 43.8485 56.7108 43.5162 57.1484 43.5007C57.6948 43.4812 58.2442 43.4812 58.7907 43.5026C59.202 43.5191 59.4928 43.8427 59.4996 44.2342C59.5074 44.6423 59.203 44.9707 58.7703 44.9979C58.4893 45.0154 58.2063 45.0008 57.9253 45.0018Z" fill="#A2ABC3"/>
</svg>
