<svg width="49" height="45" viewBox="0 0 49 45" fill="none" xmlns="http://www.w3.org/2000/svg">
<path d="M25.0625 28.2213C24.0203 28.2244 22.9797 27.5716 22.9797 26.2502V24.2098H20.9002C19.7521 24.2098 18.8174 23.2927 18.8174 22.1663C18.8174 21.04 19.7505 20.1228 20.9002 20.1228H22.9797C22.9797 20.1228 22.9797 18.0872 22.9797 18.0825C22.9797 15.4538 27.1453 15.4444 27.1453 18.0825V20.1228H29.2201C30.3681 20.1228 31.3028 21.04 31.3028 22.1663C31.3028 23.2927 30.3681 24.2098 29.2201 24.2098H27.1453C27.1453 24.2098 27.1453 26.2454 27.1453 26.2502C27.1453 27.5574 26.1031 28.2181 25.0625 28.2213ZM20.9002 21.6299C20.5987 21.6299 20.3518 21.8706 20.3518 22.1679C20.3518 22.4652 20.5971 22.7059 20.9002 22.7059H23.7461C24.1694 22.7059 24.5142 23.0425 24.5142 23.4594V26.2517C24.5142 26.549 24.7595 26.7897 25.0625 26.7897C25.3591 26.7897 25.6109 26.5428 25.6109 26.2517V23.4594C25.6109 23.0441 25.954 22.7059 26.3789 22.7059H29.2201C29.5231 22.7059 29.7684 22.4652 29.7684 22.1679C29.7684 21.8706 29.5231 21.6299 29.2201 21.6299H26.3789C25.9556 21.6299 25.6109 21.2932 25.6109 20.8764V18.0841C25.6109 17.7867 25.3655 17.546 25.0625 17.546C24.7595 17.546 24.5142 17.7867 24.5142 18.0841V20.8764C24.5142 21.2917 24.171 21.6299 23.7461 21.6299H20.9002Z" fill="#18C3BE"/>
<path d="M24.4228 39.8591C18.2979 39.8591 12.7598 38.9451 10.3147 37.5309C9.94912 37.3201 9.82726 36.8591 10.0437 36.5005C10.2602 36.1418 10.73 36.0222 11.0939 36.2346C13.2857 37.5025 18.6426 38.3536 24.4228 38.3536C30.4482 38.3536 36.0312 37.4176 38.0001 36.0789C38.3496 35.8429 38.8274 35.9263 39.0679 36.2676C39.3101 36.609 39.2219 37.0778 38.8755 37.3153C36.6036 38.8602 30.9308 39.8591 24.4228 39.8591Z" fill="#18C3BE"/>
<path d="M23.6804 44.2027C12.444 44.2027 0.502075 41.9028 0.502075 37.6365C0.502075 34.5201 6.67666 32.8888 10.358 32.1935C10.7749 32.1164 11.1773 32.3822 11.2559 32.7897C11.3361 33.1971 11.0635 33.592 10.6482 33.6706C4.6997 34.7938 2.0365 36.4708 2.0365 37.6349C2.0365 39.7476 10.2698 42.6957 23.6804 42.6957C37.0894 42.6957 45.3243 39.7476 45.3243 37.6349C45.3243 36.6674 43.3939 35.1132 37.9536 33.9239C37.54 33.8327 37.2802 33.4315 37.3716 33.0257C37.4646 32.6198 37.8751 32.3665 38.2871 32.4546C42.1961 33.3104 46.8571 34.904 46.8571 37.6365C46.8571 41.9028 34.9152 44.2027 23.6804 44.2027Z" fill="#18C3BE"/>
<path d="M48.3563 5.51459C48.1816 5.362 47.941 5.28177 47.6941 5.33368C46.878 5.5083 39.7029 7.13491 38.0883 9.75416C36.6453 12.0965 36.7752 14.8794 38.2535 16.5107C37.7693 17.4389 37.3331 18.3717 36.9339 19.2936C36.4609 18.5652 35.9398 17.8668 35.3995 17.1919C35.7378 16.753 35.9575 16.2166 36.0569 15.6015C36.3519 13.6744 35.3947 11.4531 34.3396 10.3394C33.5203 9.47415 32.4845 8.85591 31.4488 8.27228C30.4611 7.71382 29.3644 7.31897 28.404 6.73219C27.8973 6.42386 27.1004 6.41914 27.0652 7.20727C27.0523 7.52662 27.0347 7.85226 27.0219 8.18261C26.8872 10.6697 26.7397 13.4825 28.0833 15.7289C28.2244 15.9696 28.3847 16.1993 28.5499 16.4211C29.6001 17.8369 30.9437 18.6124 32.3306 18.6124C32.9624 18.6124 33.5957 18.4551 34.221 18.1421C34.9569 19.0749 35.6576 20.0393 36.2156 21.0209C34.9088 24.3449 34.1969 27.1042 34.0975 27.4943C32.5262 32.1382 30.5316 34.8235 25.0257 34.8235C17.8442 34.8235 14.4979 31.3249 14.4979 23.8148C14.4979 15.9617 22.6366 5.27705 24.9888 2.35733C25.2405 2.71285 25.5596 3.17693 25.9332 3.73067C26.4799 4.53925 27.7674 3.71651 27.2159 2.90635C26.2827 1.522 25.6702 0.696107 25.6446 0.659925C25.3736 0.261924 24.7355 0.271363 24.4356 0.623743C23.969 1.17119 12.9635 14.1385 12.9635 23.8163C12.9635 32.1209 17.0216 36.3306 25.0257 36.3306C27.9839 36.3306 30.0955 35.6132 31.6797 34.3437C35.9943 31.9289 38.3577 29.3333 38.898 26.4183C39.2476 24.5274 38.7746 22.6963 37.9039 20.9674C38.3705 19.8175 38.9044 18.6187 39.5121 17.4436C40.0829 17.7205 40.7211 17.8652 41.3785 17.8652C43.3298 17.8652 45.2762 16.6728 46.4611 14.7583C48.0196 12.224 48.5968 6.38925 48.6225 6.1407C48.6433 5.90001 48.5343 5.66876 48.3563 5.51459ZM34.5321 15.3718C34.5016 15.5826 34.4455 15.7698 34.3717 15.9318C34.1392 15.655 33.9115 15.3844 33.6839 15.1185C33.3407 14.7158 33.0089 14.3178 32.6898 13.9324C32.4204 13.6067 31.941 13.5596 31.6091 13.8175C31.2772 14.0818 31.2291 14.5522 31.4921 14.8778C31.8175 15.2695 32.1543 15.6723 32.5054 16.0828C32.7443 16.3597 32.9848 16.6429 33.2173 16.9323C32.9159 17.0535 32.616 17.107 32.3274 17.107C31.1922 17.107 30.32 16.2512 29.7861 15.5354C29.6514 15.3545 29.5215 15.1626 29.4061 14.9628C28.3318 13.1678 28.4232 10.7043 28.5338 8.48937C28.7615 8.59163 29.0181 8.71276 29.3131 8.8449C29.4975 8.92985 29.9143 9.14065 29.9143 9.14065C31.0559 9.76046 32.3515 10.4652 33.2109 11.3698C34.0174 12.2161 34.7405 14.0283 34.5321 15.3718ZM37.3861 26.1461C37.1039 27.6642 36.1402 29.1461 34.5128 30.5666C34.9056 29.7596 35.2488 28.8802 35.563 27.9411C35.5694 27.9222 35.5758 27.9049 35.5807 27.8813C35.5935 27.8325 36.1146 25.756 37.1151 23.0156C37.4598 24.0444 37.5833 25.0921 37.3861 26.1461ZM45.1448 13.9749C44.2549 15.4269 42.775 16.3597 41.3752 16.3597C40.9584 16.3597 40.572 16.2748 40.2208 16.1064C41.3865 14.0535 42.7622 12.1799 44.3335 10.9387C44.6654 10.6744 44.7135 10.2041 44.4505 9.87844C44.1811 9.5528 43.7017 9.50561 43.3698 9.7636C41.7184 11.0709 40.2817 12.9681 39.0616 15.0446C38.3561 13.8584 38.4411 12.0808 39.3999 10.5281C40.2465 9.14851 44.1266 7.77517 46.9678 7.05311C46.7353 8.81344 46.1581 12.3247 45.1448 13.9749Z" fill="#18C3BE"/>
</svg>
