<svg width="28" height="21" viewBox="0 0 28 21" fill="none" xmlns="http://www.w3.org/2000/svg">
<path d="M7 11.3126C7.00147 11.4279 6.97984 11.5423 6.93639 11.6491C6.89294 11.756 6.82854 11.853 6.747 11.9345C6.66545 12.0161 6.56841 12.0805 6.46158 12.1239C6.35476 12.1674 6.24032 12.189 6.125 12.1876H1.3125C1.14995 12.1862 0.990811 12.1408 0.852102 12.056C0.713394 11.9712 0.600331 11.8504 0.525004 11.7063C0.454958 11.5596 0.426098 11.3966 0.44151 11.2348C0.456922 11.073 0.516027 10.9184 0.612504 10.7876C1.38687 9.74809 2.42016 8.92975 3.60938 8.41412C3.09837 7.94635 2.70575 7.36391 2.46384 6.71475C2.22192 6.06558 2.13763 5.36825 2.21789 4.68014C2.29815 3.99203 2.54068 3.33282 2.92551 2.75676C3.31033 2.1807 3.82646 1.70426 4.43141 1.36666C5.03636 1.02906 5.71283 0.83994 6.40515 0.814876C7.09747 0.789813 7.78585 0.929518 8.41362 1.22249C9.0414 1.51547 9.59063 1.95334 10.0161 2.50006C10.4416 3.04679 10.7311 3.68674 10.8609 4.36724C10.8933 4.54448 10.8709 4.72737 10.7966 4.89152C10.7223 5.05567 10.5998 5.19328 10.4453 5.28599C9.03069 6.12485 7.95479 7.43295 7.40469 8.98287C7.13351 9.7295 6.99651 10.5182 7 11.3126ZM27.3875 10.7876C26.6131 9.74809 25.5798 8.92975 24.3906 8.41412C24.9016 7.94635 25.2943 7.36391 25.5362 6.71475C25.7781 6.06558 25.8624 5.36825 25.7821 4.68014C25.7019 3.99203 25.4593 3.33282 25.0745 2.75676C24.6897 2.1807 24.1735 1.70426 23.5686 1.36666C22.9637 1.02906 22.2872 0.83994 21.5949 0.814876C20.9025 0.789813 20.2142 0.929518 19.5864 1.22249C18.9586 1.51547 18.4094 1.95334 17.9839 2.50006C17.5584 3.04679 17.2689 3.68674 17.1391 4.36724C17.1067 4.54448 17.1292 4.72737 17.2034 4.89152C17.2777 5.05567 17.4002 5.19328 17.5547 5.28599C18.9712 6.12269 20.0477 7.43156 20.5953 8.98287C20.8665 9.7295 21.0035 10.5182 21 11.3126C20.9985 11.4279 21.0202 11.5423 21.0636 11.6491C21.1071 11.756 21.1715 11.853 21.253 11.9345C21.3346 12.0161 21.4316 12.0805 21.5384 12.1239C21.6452 12.1674 21.7597 12.189 21.875 12.1876H26.6875C26.85 12.1876 27.0093 12.1423 27.1475 12.0569C27.2857 11.9714 27.3975 11.8492 27.4701 11.7039C27.5428 11.5585 27.5736 11.3958 27.559 11.234C27.5444 11.0721 27.485 10.9176 27.3875 10.7876ZM17.1938 15.4797C18.0646 14.8123 18.7044 13.8888 19.0233 12.8389C19.3422 11.7891 19.3242 10.6658 18.9718 9.6267C18.6194 8.58763 17.9504 7.68509 17.0586 7.04588C16.1668 6.40667 15.0972 6.06291 14 6.06291C12.9028 6.06291 11.8332 6.40667 10.9414 7.04588C10.0497 7.68509 9.38057 8.58763 9.02817 9.6267C8.67576 10.6658 8.65776 11.7891 8.97668 12.8389C9.29561 13.8888 9.93543 14.8123 10.8063 15.4797C9.10496 16.2351 7.72569 17.5678 6.9125 19.2422C6.8478 19.3753 6.81882 19.5229 6.82841 19.6706C6.838 19.8182 6.88583 19.9608 6.96719 20.0844C7.04292 20.2112 7.15026 20.3162 7.27872 20.389C7.40717 20.4619 7.55233 20.5001 7.7 20.5001H20.3C20.4477 20.5001 20.5928 20.4619 20.7213 20.389C20.8497 20.3162 20.9571 20.2112 21.0328 20.0844C21.1142 19.9608 21.162 19.8182 21.1716 19.6706C21.1812 19.5229 21.1522 19.3753 21.0875 19.2422C20.2743 17.5678 18.8951 16.2351 17.1938 15.4797Z" fill="#8097E5"/>
</svg>
