<svg width="30" height="26" viewBox="0 0 30 26" fill="none" xmlns="http://www.w3.org/2000/svg">
<path d="M29.7304 13.6679L26.9179 16.4804C26.7387 16.6536 26.4992 16.7505 26.25 16.7505C26.0007 16.7505 25.7612 16.6536 25.582 16.4804L22.7695 13.6679C22.6423 13.5323 22.5561 13.3635 22.5209 13.181C22.4856 12.9985 22.5027 12.8098 22.5703 12.6366C22.642 12.466 22.7626 12.3204 22.9169 12.2182C23.0713 12.116 23.2524 12.0618 23.4375 12.0624H25.2656C25.0746 9.92366 24.22 7.89808 22.8213 6.26886C21.4226 4.63965 19.5498 3.48826 17.4646 2.97568C15.3794 2.4631 13.1862 2.61496 11.1916 3.41003C9.19692 4.2051 7.50062 5.60362 6.33981 7.41005C6.27227 7.51335 6.18498 7.60229 6.08298 7.67178C5.98098 7.74126 5.86625 7.78992 5.7454 7.81496C5.62454 7.84001 5.49993 7.84094 5.37872 7.81771C5.2575 7.79447 5.14207 7.74754 5.03903 7.67958C4.93519 7.61407 4.84541 7.52855 4.77493 7.42801C4.70445 7.32747 4.65467 7.21391 4.6285 7.09394C4.60232 6.97398 4.60027 6.85001 4.62247 6.72924C4.64466 6.60848 4.69066 6.49334 4.75778 6.39052C6.14069 4.24583 8.16192 2.58934 10.5365 1.65462C12.911 0.719901 15.519 0.554121 17.9928 1.18066C20.4666 1.80719 22.6813 3.19443 24.3246 5.14676C25.968 7.09908 26.957 9.518 27.1523 12.0624H29.0625C29.2476 12.0618 29.4287 12.116 29.583 12.2182C29.7373 12.3204 29.8579 12.466 29.9297 12.6366C29.9972 12.8098 30.0143 12.9985 29.9791 13.181C29.9438 13.3635 29.8576 13.5323 29.7304 13.6679ZM24.9609 18.3202C24.8579 18.2523 24.7424 18.2053 24.6212 18.1821C24.5 18.1589 24.3754 18.1598 24.2545 18.1848C24.1337 18.2099 24.019 18.2585 23.917 18.328C23.815 18.3975 23.7277 18.4864 23.6601 18.5897C23.377 19.0356 23.0597 19.4587 22.7109 19.8554C21.952 18.7668 20.9741 17.8487 19.8398 17.1601C18.5375 18.4078 16.8036 19.1043 15 19.1043C13.1964 19.1043 11.4625 18.4078 10.1601 17.1601C9.02583 17.8487 8.04792 18.7668 7.28903 19.8554C5.82417 18.2082 4.92844 16.1332 4.73435 13.9374H6.56247C6.74756 13.938 6.92867 13.8838 7.08299 13.7816C7.23732 13.6794 7.35794 13.5338 7.42966 13.3632C7.4972 13.19 7.51433 13.0013 7.47908 12.8188C7.44382 12.6363 7.35762 12.4675 7.23044 12.3319L4.41794 9.51943C4.2402 9.34338 4.00014 9.24462 3.74997 9.24462C3.4998 9.24462 3.25975 9.34338 3.082 9.51943L0.269501 12.3319C0.14232 12.4675 0.0561158 12.6363 0.0208605 12.8188C-0.0143949 13.0013 0.00273994 13.19 0.0702826 13.3632C0.142003 13.5338 0.262624 13.6794 0.416946 13.7816C0.571268 13.8838 0.752384 13.938 0.93747 13.9374H2.84763C3.08761 17.0773 4.53707 20.0014 6.8906 22.0936L6.93747 22.1288C8.25141 23.292 9.80128 24.1575 11.4809 24.6659C13.1605 25.1743 14.9302 25.3137 16.6687 25.0744C18.4071 24.8351 20.0734 24.2228 21.5532 23.2796C23.0329 22.3363 24.2914 21.0842 25.2422 19.6093C25.3093 19.5065 25.3553 19.3913 25.3775 19.2706C25.3997 19.1498 25.3976 19.0258 25.3714 18.9059C25.3453 18.7859 25.2955 18.6723 25.225 18.5718C25.1545 18.4712 25.0648 18.3857 24.9609 18.3202ZM15 17.2186C16.0198 17.2186 17.0167 16.9162 17.8646 16.3497C18.7126 15.7831 19.3735 14.9778 19.7637 14.0356C20.154 13.0934 20.2561 12.0567 20.0571 11.0565C19.8582 10.0562 19.3671 9.13749 18.646 8.41638C17.9249 7.69526 17.0061 7.20418 16.0059 7.00522C15.0057 6.80627 13.9689 6.90838 13.0268 7.29864C12.0846 7.68891 11.2793 8.3498 10.7127 9.19774C10.1461 10.0457 9.84372 11.0426 9.84372 12.0624C9.84372 13.4299 10.387 14.7414 11.3539 15.7084C12.3209 16.6754 13.6324 17.2186 15 17.2186Z" fill="#8097E5"/>
</svg>
